<svg id="no_phone_red" xmlns="http://www.w3.org/2000/svg" viewBox="0 0 378.43 236.87"><defs><style>.cls-1,.cls-3,.cls-4,.cls-6,.cls-7{fill:none;}.cls-1,.cls-3,.cls-4{stroke:#e24d4b;}.cls-1{stroke-miterlimit:10;stroke-width:5.19px;}.cls-2{fill:#e24d4b;}.cls-3{stroke-width:6.64px;}.cls-4,.cls-7{stroke-width:6.71px;}.cls-5{fill:#010101;}.cls-6,.cls-7{stroke:#231f20;}.cls-6{stroke-linejoin:round;stroke-width:10px;}</style></defs><path class="cls-1" d="M331.22,318.41h-27c-4.12,0-5.41-1.39-5.45-5.85s-.06-9.2,0-13.79c.05-3.74,1.46-5.34,4.82-5.35,18.51,0,41.94,0,60.44,0,3.27,0,4.66,1.59,4.7,5.12,0,4.79,0,9.59,0,14.39,0,3.95-1.35,5.46-4.9,5.47C354.65,318.43,340.47,318.41,331.22,318.41Z" transform="translate(-108.43 -176.43)"/><path class="cls-2" d="M235.18,303.35a23.15,23.15,0,1,1-23-23.1A23,23,0,0,1,235.18,303.35ZM222,303.27a9.93,9.93,0,1,0-9.9,10.09A10.05,10.05,0,0,0,222,303.27Z" transform="translate(-108.43 -176.43)"/><path class="cls-2" d="M292.48,303.24a23.16,23.16,0,1,1-23.4-23A23,23,0,0,1,292.48,303.24Zm-13.19.09a9.93,9.93,0,1,0-10,10A10,10,0,0,0,279.29,303.33Z" transform="translate(-108.43 -176.43)"/><path class="cls-2" d="M386.12,303.36a23.18,23.18,0,1,1,23.44,23.05A23,23,0,0,1,386.12,303.36Zm23.28,9.77a9.93,9.93,0,1,0-10.06-9.85A9.94,9.94,0,0,0,409.4,313.13Z" transform="translate(-108.43 -176.43)"/><path class="cls-2" d="M456.17,247.92l-5.66-3.62a6.34,6.34,0,0,1-2.7-3.71L439.26,208l9.09-.28s-2.37-13-4.59-19.55a11.51,11.51,0,0,0-8.15-7.62s-45.91-4.16-61.9-4.16-14.51,12.2-14.51,12.2v80.12l0,25.61h10.17v19.92H382l-.11-9.54c0-.45,0-.9,0-1.36a27.42,27.42,0,1,1,54.83,0c0,.48-.08,10.44-.1,10.91H447a8.72,8.72,0,0,0,4.66-1.34l2.55-1.62a7.64,7.64,0,0,0,3.64-6.42V251.45A4.65,4.65,0,0,0,456.17,247.92Zm-19.91-6.35-46.18-.49a3.58,3.58,0,0,1-3.52-3.15l-3.45-28.1a3.58,3.58,0,0,1,3.7-4l42.51,1.76a3.58,3.58,0,0,1,3.31,2.66l7.13,26.84A3.58,3.58,0,0,1,436.26,241.57Z" transform="translate(-108.43 -176.43)"/><path class="cls-2" d="M250.65,282.79H231.26l2.84,3.55a3.26,3.26,0,0,0,2.54,1.22H245a3.24,3.24,0,0,0,2.45-1.12Z" transform="translate(-108.43 -176.43)"/><path class="cls-3" d="M346.65,410l119-.15c17,0,17.89-6.39,17.89-15.14s-2.08-14.49-17-14.49c-7.92,0-8.83-12.14,0-12.14,11.54,0,11-5,11-7.73,0-7.46-11-7.39-11-7.39h-33" transform="translate(-108.43 -176.43)"/><path class="cls-4" d="M154.8,254.31h-26s-9.84-.37-9.84,10.27c0,4,.1,12.51,9.84,12.51,8.83,0,7.93,16,0,16s-17,3.74-17,20.22.91,28.52,17.9,28.52h53.89" transform="translate(-108.43 -176.43)"/><polygon class="cls-5" points="105.8 175.25 96.66 175.25 96.66 171.36 104.46 171.36 104.46 168.31 96.66 168.31 96.66 164.69 105.49 164.69 105.49 161.56 92.79 161.56 92.79 178.37 105.8 178.37 105.8 175.25"/><polygon class="cls-5" points="112.76 174.1 114.99 171.77 120.39 178.37 124.95 178.37 117.58 169.06 124.52 161.56 120.2 161.56 112.76 169.4 112.76 161.56 108.9 161.56 108.9 178.37 112.76 178.37 112.76 174.1"/><path class="cls-5" d="M249.2,340.16a8.68,8.68,0,0,0-2.92-1.82,10.26,10.26,0,0,0-3.66-.63,9.88,9.88,0,0,0-3.66.65,8.9,8.9,0,0,0-2.91,1.82,8,8,0,0,0-1.93,2.75,9,9,0,0,0,0,6.92,8,8,0,0,0,1.93,2.76,8.65,8.65,0,0,0,2.93,1.83,10.65,10.65,0,0,0,7.3,0,8.66,8.66,0,0,0,2.92-1.81,8.18,8.18,0,0,0,1.93-2.78,9.19,9.19,0,0,0,0-6.94A8.1,8.1,0,0,0,249.2,340.16Zm-1.72,8.41a5.12,5.12,0,0,1-2.78,2.83,5.61,5.61,0,0,1-4.16,0,4.8,4.8,0,0,1-1.67-1.13,5.32,5.32,0,0,1-1.11-1.7,6.23,6.23,0,0,1,0-4.34,5.48,5.48,0,0,1,1.11-1.71,4.94,4.94,0,0,1,1.67-1.13,5.74,5.74,0,0,1,4.16,0,5.1,5.1,0,0,1,2.78,2.84,6.09,6.09,0,0,1,0,4.34Z" transform="translate(-108.43 -176.43)"/><path class="cls-5" d="M258.65,350.17H262a9.23,9.23,0,0,0,3.88-.75,5.7,5.7,0,0,0,2.52-2.1,6.36,6.36,0,0,0,0-6.49,5.7,5.7,0,0,0-2.52-2.1A9.39,9.39,0,0,0,262,338h-7.28v16.8h3.91Zm5.84-8.25a2.65,2.65,0,0,1,.91,2.15,2.69,2.69,0,0,1-.91,2.16,4.11,4.11,0,0,1-2.69.77h-3.15v-5.83h3.15A4.17,4.17,0,0,1,264.49,341.92Z" transform="translate(-108.43 -176.43)"/><path class="cls-5" d="M276.49,338,269,354.8h4l1.49-3.6h7.79l1.49,3.6h4.08L280.33,338Zm-.76,10.25,2.66-6.41,2.67,6.41Z" transform="translate(-108.43 -176.43)"/><polygon class="cls-5" points="193.47 175.2 185.1 175.2 185.1 161.56 181.19 161.56 181.19 178.37 193.47 178.37 193.47 175.2"/><polygon class="cls-5" points="240.44 175.2 232.06 175.2 232.06 161.56 228.15 161.56 228.15 178.37 240.44 178.37 240.44 175.2"/><path class="cls-5" d="M358.33,355.09a7.56,7.56,0,0,0,5.56-2,7.64,7.64,0,0,0,2-5.71V338h-3.82v9.28a5,5,0,0,1-1,3.45,4.07,4.07,0,0,1-5.5,0,5,5,0,0,1-1-3.45V338h-3.91v9.38a7,7,0,0,0,7.61,7.71Z" transform="translate(-108.43 -176.43)"/><polygon class="cls-5" points="264.54 178.37 268.42 178.37 268.42 164.73 273.8 164.73 273.8 161.56 259.16 161.56 259.16 164.73 264.54 164.73 264.54 178.37"/><path class="cls-5" d="M392.67,352.61a8.75,8.75,0,0,0,2.93,1.83,10.14,10.14,0,0,0,3.67.65,10.27,10.27,0,0,0,3.64-.64,8.71,8.71,0,0,0,2.91-1.81,8.18,8.18,0,0,0,1.93-2.78,9.07,9.07,0,0,0,0-6.94,8.1,8.1,0,0,0-1.93-2.76,8.74,8.74,0,0,0-2.91-1.82,10.34,10.34,0,0,0-3.66-.63,9.85,9.85,0,0,0-3.66.65,8.84,8.84,0,0,0-2.92,1.82,8.16,8.16,0,0,0-1.93,2.75,9,9,0,0,0,0,6.92A8.1,8.1,0,0,0,392.67,352.61Zm1.72-8.38a5.29,5.29,0,0,1,1.1-1.71,4.94,4.94,0,0,1,1.67-1.13,5.48,5.48,0,0,1,2.09-.39,5.37,5.37,0,0,1,2.07.39,5.14,5.14,0,0,1,1.67,1.13,5.34,5.34,0,0,1,1.12,1.71,6.23,6.23,0,0,1,0,4.34,5.19,5.19,0,0,1-1.12,1.7,5,5,0,0,1-1.67,1.13,5.2,5.2,0,0,1-2.07.4,5.3,5.3,0,0,1-2.09-.4,4.8,4.8,0,0,1-1.67-1.13,5.14,5.14,0,0,1-1.1-1.7,6.09,6.09,0,0,1,0-4.34Z" transform="translate(-108.43 -176.43)"/><polygon class="cls-5" points="306.39 178.37 310.3 178.37 310.3 172.37 316.78 161.56 312.99 161.56 308.5 169 304.02 161.56 299.86 161.56 306.39 172.38 306.39 178.37"/><path class="cls-5" d="M182,385.36a.81.81,0,0,0-.62.24,7.91,7.91,0,0,1,.37,1.83,2.37,2.37,0,0,1-.62,1.8,2.57,2.57,0,0,1-2,.81,40.85,40.85,0,0,1-10.61-2,47,47,0,0,0,7.41-11.34c.86-1.8,1.56-3.2,2.08-4.2a31.41,31.41,0,0,0,10-1.89,19,19,0,0,0,7.27-4.56,8.91,8.91,0,0,0,2.69-6.21,6.63,6.63,0,0,0-2.52-5.37,9.2,9.2,0,0,0-6-2.07,11.44,11.44,0,0,0-4.71.9,11,11,0,0,0-3.88,3.12,29.5,29.5,0,0,0-3.34,5q-1.49,2.79-3.56,7.47a11.78,11.78,0,0,1-5.9-2.82,6.37,6.37,0,0,1-2.24-4.74,2.94,2.94,0,0,1,.67-1.95,2.29,2.29,0,0,1,1.86-.81,3.81,3.81,0,0,1,2.21.72,6.37,6.37,0,0,1,1.35,1.14q.3.42.48.72h.17a.56.56,0,0,0,.36-.18.7.7,0,0,0,.2-.54c0-1.12-.71-2.41-2.11-3.87a7,7,0,0,0-5.3-2.19,5.94,5.94,0,0,0-4.33,1.65,6.56,6.56,0,0,0-1.68,4.89,9.33,9.33,0,0,0,3.62,7.29,18.33,18.33,0,0,0,9.18,4,.72.72,0,0,1-.09.24.9.9,0,0,0-.08.24,52,52,0,0,1-8.36,13.92q-6.91-2.1-9.94-2.1a6.13,6.13,0,0,0-4.41,1.53A5.21,5.21,0,0,0,148,390a4.13,4.13,0,0,0,1.9,3.63,8.15,8.15,0,0,0,4.66,1.29,16.77,16.77,0,0,0,9.66-3.12q4,1.8,5.64,2.52a46.29,46.29,0,0,0,4.55,1.62,16.48,16.48,0,0,0,4.63.9,4.94,4.94,0,0,0,4-1.74,6.78,6.78,0,0,0,1.49-4.56,8.24,8.24,0,0,0-.78-3.45C183.17,385.93,182.61,385.36,182,385.36Zm3.2-25.5q2.19-2.7,4.38-2.7a2.4,2.4,0,0,1,1.88.78,2.84,2.84,0,0,1,.7,2q0,3-3.62,5.76a18,18,0,0,1-8.84,3.42A56.22,56.22,0,0,1,185.21,359.86ZM154.56,392a4.52,4.52,0,0,1-2.21-.48,1.49,1.49,0,0,1-.87-1.38c0-1.24.78-1.86,2.35-1.86a19.6,19.6,0,0,1,6.35,1.74A9.88,9.88,0,0,1,154.56,392Z" transform="translate(-108.43 -176.43)"/><path class="cls-5" d="M245.1,365.68a3,3,0,0,0-2,.9,4.56,4.56,0,0,0-1.35,2.19,3,3,0,0,0,.11,2.22,1.58,1.58,0,0,0,1.49.93,2.89,2.89,0,0,0,2-.93,4.74,4.74,0,0,0,1.35-2.22,2.89,2.89,0,0,0-.11-2.19A1.57,1.57,0,0,0,245.1,365.68Z" transform="translate(-108.43 -176.43)"/><path class="cls-5" d="M241.48,384.34q-1.83,2-3.06,2c-.49,0-.73-.34-.73-1a10.54,10.54,0,0,1,1.6-4.08q1.61-2.88,2.56-4.26t1.62-2.28v-.6H238.7q-1.62,3.24-3.45,6.24l-.82,1.36a27,27,0,0,1-2.18,2.6c-1.31,1.36-2.53,2-3.65,2a.76.76,0,0,1-.59-.3,1.07,1.07,0,0,1-.25-.72q0-2.34,8.7-15.6h2.13l1.12-1.8v-.3H237.8l2-2.88v-.6h-5.28q-.84,1.74-1.74,3.48h-2.24l-1.12,1.8v.3h2.3q-2,3.6-4.61,7.8c-1,1.57-1.81,2.91-2.48,4a29.29,29.29,0,0,1-2.15,2.74q-1.81,2-3,2-.78,0-.78-1,0-1.32,2.13-4.8t2.13-4.44c0-1.68-1-2.52-2.92-2.52a9,9,0,0,0-5.5,2.1q4.55-7.62,8.7-13.86v-.6h-5.33q-4,8.11-10.89,19.81a33.48,33.48,0,0,1-2.55,3.29q-1.83,2-3.06,2c-.49,0-.73-.34-.73-1a10.37,10.37,0,0,1,1.6-4.08q1.59-2.88,2.55-4.26c.64-.92,1.18-1.68,1.63-2.28v-.6h-4.77c-.19.36-.38.74-.56,1.14a3.31,3.31,0,0,0-3.2-1.68,8.68,8.68,0,0,0-5.56,2.22,16.25,16.25,0,0,0-4.24,5.28,12.63,12.63,0,0,0-1.54,5.64,5,5,0,0,0,.84,2.94,2.61,2.61,0,0,0,2.24,1.2c1.84,0,3.65-1.1,5.45-3.3a3.74,3.74,0,0,0,.84,2.43,2.49,2.49,0,0,0,1.91.87,7.31,7.31,0,0,0,4.46-1.9c-.39.63-.75,1.25-1.15,1.9h5q2.13-4.32,5.33-10a17.78,17.78,0,0,1,3.34-3.63,5.06,5.06,0,0,1,2.72-1.35c.38,0,.56.16.56.48a6.82,6.82,0,0,1-1.26,2.43,47.85,47.85,0,0,0-2.52,4.29,9.22,9.22,0,0,0-1.27,4.2,3.89,3.89,0,0,0,.79,2.61,2.46,2.46,0,0,0,2,.93,7.54,7.54,0,0,0,4.77-2.16,15.22,15.22,0,0,0,1.6-1.61,2.08,2.08,0,0,0,0,.23A3.67,3.67,0,0,0,223,390a2.91,2.91,0,0,0,2.22.93,8.41,8.41,0,0,0,5.17-2.16,14.87,14.87,0,0,0,1.69-1.63c0,.09,0,.17,0,.25a3.85,3.85,0,0,0,.81,2.61,2.57,2.57,0,0,0,2,.93,7.58,7.58,0,0,0,4.77-2.16,32.27,32.27,0,0,0,5.83-7.68l-.5-1.44A33.9,33.9,0,0,1,241.48,384.34Zm-42.46-7a1,1,0,0,1-.9.6,1,1,0,0,0,.9,1c-.34.6-1,1.66-1.91,3.18q-3,4.38-4.66,4.38-.9,0-.9-1.38c0-1.64.83-3.65,2.47-6s3.07-3.57,4.27-3.57a.82.82,0,0,1,.87.6A1.46,1.46,0,0,1,199,377.38Z" transform="translate(-108.43 -176.43)"/><path class="cls-5" d="M275.3,383.32a35,35,0,0,0,2.13-3.27c.64-1.1,1.21-2.14,1.72-3.12l1.34-2.61c.4-.76.7-1.36.93-1.8a3.21,3.21,0,0,0-2.27-.69,2.2,2.2,0,0,0-1.27.81c-.15.24-.36.63-.64,1.17l-1,1.92q-.6,1.11-1.29,2.43c-.47.88-1,1.76-1.55,2.64a42.57,42.57,0,0,1-2.38-3.93,35,35,0,0,1-1.94-4.17,16.39,16.39,0,0,0,2.69-1.47,12.16,12.16,0,0,0,2.25-1.92,8.56,8.56,0,0,0,1.52-2.34,7,7,0,0,0,.56-2.79,5.35,5.35,0,0,0-.4-2.1,5.5,5.5,0,0,0-1-1.65,4.49,4.49,0,0,0-1.49-1.05,4.37,4.37,0,0,0-1.74-.36,5.7,5.7,0,0,0-2.78.72,8,8,0,0,0-2.36,2,10.26,10.26,0,0,0-1.68,3,11.22,11.22,0,0,0-.65,3.87,13.34,13.34,0,0,0,.34,3,5.68,5.68,0,0,0,.28,1.2,18.54,18.54,0,0,0-6.37,5.16,10.54,10.54,0,0,0-2.33,6.48,6.32,6.32,0,0,0,2.05,5.07,7.63,7.63,0,0,0,5.19,1.77,9.45,9.45,0,0,0,4.57-1.17,17.41,17.41,0,0,0,4-3,15.11,15.11,0,0,0,3.48,3,7.09,7.09,0,0,0,3.76,1.14,3,3,0,0,0,2.24-1,14,14,0,0,0,1.58-1.86,7.31,7.31,0,0,1-3.71-1.47A19.52,19.52,0,0,1,275.3,383.32Zm-6.59-20q.81-1.77,2.1-1.77c.56,0,1,.35,1.21,1a5,5,0,0,1,.11,2.49,9.27,9.27,0,0,1-1.15,3,7.24,7.24,0,0,1-2.58,2.58.67.67,0,0,1-.06-.3,10.63,10.63,0,0,1-.45-2.94A9.63,9.63,0,0,1,268.71,363.31Zm-1.16,23.79a4.42,4.42,0,0,1-2.52.84,3.36,3.36,0,0,1-2.95-1.53,7,7,0,0,1-1-4,8.49,8.49,0,0,1,1.13-4.14,9.07,9.07,0,0,1,3-3.3,33.34,33.34,0,0,0,2,5.19,33.92,33.92,0,0,0,2.8,4.77A14.52,14.52,0,0,1,267.55,387.1Z" transform="translate(-108.43 -176.43)"/><path class="cls-5" d="M330.87,395.74l-.17.18a1.52,1.52,0,0,1-.73.45,3.63,3.63,0,0,1-1.29.21,2.59,2.59,0,0,1-2.13-1.08,4.89,4.89,0,0,1-.84-3.06,35.87,35.87,0,0,1,.89-6.66,36.39,36.39,0,0,0,.9-5.94,5.55,5.55,0,0,0-1.4-4.2,11.55,11.55,0,0,0,7.83-3.39,11.19,11.19,0,0,0,2.89-8.07,10.3,10.3,0,0,0-4.21-8.43,13.12,13.12,0,0,0-1.39-.95h2.27v-3.12h-9.15v-3.89h7.8v-3.05h-7.8v-3.62h8.83V338H320.48v14.48a22.36,22.36,0,0,0-6.65,1.35c-.68.26-1.33.54-2,.83L319.09,338h-3.87L310,350l-5.11-12H300.7L308,354.8h3.63a20.06,20.06,0,0,0-4.14,2.63,17.89,17.89,0,0,0-4.09,4.89,10.86,10.86,0,0,0-1.52,5.34,6.88,6.88,0,0,0,1.77,5,5.86,5.86,0,0,0,4.35,1.8,7.48,7.48,0,0,0,3.37-.78,8.41,8.41,0,0,0,2.58-1.92,14,14,0,0,0,1.74-2.46,14.18,14.18,0,0,0,1.06-2.34,5.3,5.3,0,0,0,.34-1.56c0-.56-.24-.82-.73-.78a4.85,4.85,0,0,1-1.77,2.25,5.3,5.3,0,0,1-3.5,1.29,2.27,2.27,0,0,1-1.91-.78,3.1,3.1,0,0,1-.62-2q0-3.42,4-6.84a13.88,13.88,0,0,1,9.32-3.42,11.68,11.68,0,0,1,7.69,2.37,7.74,7.74,0,0,1,2.87,6.27,9.17,9.17,0,0,1-2.73,6.9,8.31,8.31,0,0,1-5.86,2.64,8.67,8.67,0,0,1-2.13-.24,101.62,101.62,0,0,1,7-11.28v-.6H323.4l-.56,1.32q-.61,1.26-2.38,4.5t-4.07,7.08a60.09,60.09,0,0,1-6.82,9.9q-2.61,2.76-5.19,2.76a3,3,0,0,1-2.19-.84,3.09,3.09,0,0,1-.85-2.28,3.35,3.35,0,0,1,.4-1.62,2.87,2.87,0,0,1,.64-.9l.42-.3-.05-.12a.34.34,0,0,0-.14-.24.66.66,0,0,0-.42-.12,5.62,5.62,0,0,0-4.58,2.19,7.92,7.92,0,0,0-1.77,5.13,6.28,6.28,0,0,0,1.6,4.35,6.16,6.16,0,0,0,4.8,1.77,10.22,10.22,0,0,0,4.44-1,14.26,14.26,0,0,0,4.1-3.12,38.67,38.67,0,0,0,3.81-4.77q1.8-2.64,4.21-6.78a.93.93,0,0,0,1.52.3,1.66,1.66,0,0,1,0-1.77,1.59,1.59,0,0,1,1.4-.75,1.5,1.5,0,0,1,1.26.63,3.34,3.34,0,0,1,.48,2,15.29,15.29,0,0,1-1,4.86c-.66,1.88-1.3,3.83-1.94,5.85a19,19,0,0,0-1,5.61c0,2.08.49,3.6,1.49,4.56a5.21,5.21,0,0,0,3.78,1.44,6.88,6.88,0,0,0,4.49-1.56c1.28-1,1.91-2,1.91-3Q331.26,395.8,330.87,395.74Z" transform="translate(-108.43 -176.43)"/><path class="cls-5" d="M448.41,379.6a32.21,32.21,0,0,1-3.45,4.74c-1.22,1.36-2.22,2-3,2q-.78,0-.78-1,0-1.32,2.13-4.8t2.13-4.44c0-1.68-1-2.52-2.92-2.52a8.92,8.92,0,0,0-5.27,1.92c.22-.32.39-.58.5-.78v-.6H433c-1.2,2.4-2.46,4.77-3.76,7.13a23,23,0,0,1-3.51,3.55,9.41,9.41,0,0,1-5.92,2.46c-1.65,0-2.47-.9-2.47-2.7a8,8,0,0,1,.11-1.32,8,8,0,0,0,1.4.12,9.43,9.43,0,0,0,6.12-1.95,5.71,5.71,0,0,0,2.41-4.53,3.1,3.1,0,0,0-1-2.31,4,4,0,0,0-2.84-1,8.77,8.77,0,0,0-5.25,1.89,14,14,0,0,0-4.07,4.74,14.32,14.32,0,0,0-1.05,2.55,20.09,20.09,0,0,1-1.28,1.56q-1.81,2-3,2-.78,0-.78-1,0-1.32,2.13-4.8t2.13-4.44c0-1.68-1-2.52-2.92-2.52a8.92,8.92,0,0,0-5.27,1.92c.22-.32.39-.58.5-.78v-.6H400q-1.92,3.81-4,7.57a32.21,32.21,0,0,1-2.09,2.63q-1.83,2-3.06,2c-.49,0-.73-.34-.73-1a10.37,10.37,0,0,1,1.6-4.08q1.59-2.88,2.55-4.26c.64-.92,1.18-1.68,1.63-2.28v-.6H391.1c-.19.36-.38.74-.56,1.14a3.31,3.31,0,0,0-3.2-1.68,8.68,8.68,0,0,0-5.56,2.22,16.25,16.25,0,0,0-4.24,5.28,16,16,0,0,0-.73,1.69c-.45.54-.9,1.07-1.37,1.55-1.31,1.36-2.53,2-3.65,2a.75.75,0,0,1-.59-.3,1.07,1.07,0,0,1-.25-.72q0-2.34,8.7-15.6h2.13l1.12-1.8v-.3H381c.79-1.16,1.44-2.12,2-2.88v-.6h-5.28q-.84,1.74-1.74,3.48H373.7l-1.12,1.8v.3h2.3q-2,3.6-4.61,7.8-1.47,2.35-2.47,4a28.25,28.25,0,0,1-2.16,2.75q-1.81,2-3,2c-.52,0-.79-.34-.79-1q0-1.32,2.14-4.8t2.13-4.44c0-1.68-1-2.52-2.92-2.52a8.94,8.94,0,0,0-5.28,1.92,8.18,8.18,0,0,0,.51-.78v-.6h-4.72c-1.27,2.55-2.61,5.07-4,7.57a32.65,32.65,0,0,1-2.09,2.63q-1.83,2-3.06,2c-.49,0-.73-.34-.73-1a10.37,10.37,0,0,1,1.6-4.08Q347,378.4,348,377c.64-.92,1.18-1.68,1.63-2.28v-.6h-4.77c-.19.36-.38.74-.56,1.14a3.31,3.31,0,0,0-3.2-1.68,8.68,8.68,0,0,0-5.56,2.22,16.25,16.25,0,0,0-4.24,5.28,12.63,12.63,0,0,0-1.54,5.64,5,5,0,0,0,.84,2.94,2.61,2.61,0,0,0,2.24,1.2c1.84,0,3.65-1.1,5.45-3.3a3.74,3.74,0,0,0,.84,2.43,2.47,2.47,0,0,0,1.91.87A7.23,7.23,0,0,0,345.5,389c-.38.64-.76,1.29-1.16,1.92h5q2.24-4.62,5.33-10a17.5,17.5,0,0,1,3.34-3.63,5.06,5.06,0,0,1,2.72-1.35c.37,0,.56.16.56.48a6.82,6.82,0,0,1-1.26,2.43q-1.26,1.89-2.53,4.29a9.32,9.32,0,0,0-1.26,4.2A3.89,3.89,0,0,0,357,390a2.46,2.46,0,0,0,2,.93,7.54,7.54,0,0,0,4.77-2.16,15.22,15.22,0,0,0,1.6-1.61,2.08,2.08,0,0,0,0,.23,3.67,3.67,0,0,0,.87,2.61,2.91,2.91,0,0,0,2.22.93,8.36,8.36,0,0,0,5.16-2.16,17.21,17.21,0,0,0,2.46-2.5c0,.18,0,.35,0,.52a5,5,0,0,0,.84,2.94,2.61,2.61,0,0,0,2.24,1.2c1.84,0,3.65-1.1,5.45-3.3a3.74,3.74,0,0,0,.84,2.43,2.49,2.49,0,0,0,1.91.87,7.28,7.28,0,0,0,4.48-1.92c-.39.64-.77,1.29-1.17,1.92h5q2.25-4.62,5.33-10a17.78,17.78,0,0,1,3.34-3.63,5.06,5.06,0,0,1,2.72-1.35c.38,0,.56.16.56.48a6.82,6.82,0,0,1-1.26,2.43,47.85,47.85,0,0,0-2.52,4.29,9.22,9.22,0,0,0-1.27,4.2,3.89,3.89,0,0,0,.79,2.61,2.46,2.46,0,0,0,2,.93,7.54,7.54,0,0,0,4.77-2.16,20.14,20.14,0,0,0,2.7-2.94h0q0,5.52,5.5,5.52a10.69,10.69,0,0,0,7-3c-.51.86-1,1.71-1.55,2.56h5q2.25-4.62,5.33-10a17.78,17.78,0,0,1,3.34-3.63,5.06,5.06,0,0,1,2.72-1.35q.57,0,.57.48a6.92,6.92,0,0,1-1.27,2.43,47.85,47.85,0,0,0-2.52,4.29,9.22,9.22,0,0,0-1.27,4.2,3.89,3.89,0,0,0,.79,2.61,2.46,2.46,0,0,0,2,.93,7.58,7.58,0,0,0,4.78-2.16A33.53,33.53,0,0,0,449,381Zm-27.62-2.25a4.48,4.48,0,0,1,2.92-1.65c.45,0,.67.24.67.72a4.9,4.9,0,0,1-1.71,3.09,5.08,5.08,0,0,1-3.68,1.77,6.38,6.38,0,0,1-.84-.06A13.53,13.53,0,0,1,420.79,377.35Zm-78.58,0a1,1,0,0,1-.9.6,1,1,0,0,0,.9,1c-.34.6-1,1.66-1.91,3.18q-3,4.38-4.66,4.38-.9,0-.9-1.38c0-1.64.83-3.65,2.47-6s3.07-3.57,4.27-3.57a.82.82,0,0,1,.87.6A1.46,1.46,0,0,1,342.21,377.38Zm46.25,0a1,1,0,0,1-.9.6,1,1,0,0,0,.9,1c-.34.6-1,1.66-1.91,3.18q-3,4.38-4.66,4.38-.9,0-.9-1.38c0-1.64.83-3.65,2.47-6s3.07-3.57,4.27-3.57a.82.82,0,0,1,.87.6A1.46,1.46,0,0,1,388.46,377.38Z" transform="translate(-108.43 -176.43)"/><polygon class="cls-6" points="105.8 175.25 96.66 175.25 96.66 171.36 104.46 171.36 104.46 168.31 96.66 168.31 96.66 164.69 105.49 164.69 105.49 161.56 92.79 161.56 92.79 178.37 105.8 178.37 105.8 175.25"/><polygon class="cls-6" points="112.76 174.1 114.99 171.77 120.39 178.37 124.95 178.37 117.58 169.06 124.52 161.56 120.2 161.56 112.76 169.4 112.76 161.56 108.9 161.56 108.9 178.37 112.76 178.37 112.76 174.1"/><path class="cls-6" d="M249.2,340.16a8.68,8.68,0,0,0-2.92-1.82,10.26,10.26,0,0,0-3.66-.63,9.88,9.88,0,0,0-3.66.65,8.9,8.9,0,0,0-2.91,1.82,8,8,0,0,0-1.93,2.75,9,9,0,0,0,0,6.92,8,8,0,0,0,1.93,2.76,8.65,8.65,0,0,0,2.93,1.83,10.65,10.65,0,0,0,7.3,0,8.66,8.66,0,0,0,2.92-1.81,8.18,8.18,0,0,0,1.93-2.78,9.19,9.19,0,0,0,0-6.94A8.1,8.1,0,0,0,249.2,340.16Zm-1.72,8.41a5.12,5.12,0,0,1-2.78,2.83,5.61,5.61,0,0,1-4.16,0,4.8,4.8,0,0,1-1.67-1.13,5.32,5.32,0,0,1-1.11-1.7,6.23,6.23,0,0,1,0-4.34,5.48,5.48,0,0,1,1.11-1.71,4.94,4.94,0,0,1,1.67-1.13,5.74,5.74,0,0,1,4.16,0,5.1,5.1,0,0,1,2.78,2.84,6.09,6.09,0,0,1,0,4.34Z" transform="translate(-108.43 -176.43)"/><path class="cls-6" d="M258.65,350.17H262a9.23,9.23,0,0,0,3.88-.75,5.7,5.7,0,0,0,2.52-2.1,6.36,6.36,0,0,0,0-6.49,5.7,5.7,0,0,0-2.52-2.1A9.39,9.39,0,0,0,262,338h-7.28v16.8h3.91Zm5.84-8.25a2.65,2.65,0,0,1,.91,2.15,2.69,2.69,0,0,1-.91,2.16,4.11,4.11,0,0,1-2.69.77h-3.15v-5.83h3.15A4.17,4.17,0,0,1,264.49,341.92Z" transform="translate(-108.43 -176.43)"/><path class="cls-6" d="M276.49,338,269,354.8h4l1.49-3.6h7.79l1.49,3.6h4.08L280.33,338Zm-.76,10.25,2.66-6.41,2.67,6.41Z" transform="translate(-108.43 -176.43)"/><polygon class="cls-6" points="193.47 175.2 185.1 175.2 185.1 161.56 181.19 161.56 181.19 178.37 193.47 178.37 193.47 175.2"/><polygon class="cls-6" points="240.44 175.2 232.06 175.2 232.06 161.56 228.15 161.56 228.15 178.37 240.44 178.37 240.44 175.2"/><path class="cls-6" d="M358.33,355.09a7.56,7.56,0,0,0,5.56-2,7.64,7.64,0,0,0,2-5.71V338h-3.82v9.28a5,5,0,0,1-1,3.45,4.07,4.07,0,0,1-5.5,0,5,5,0,0,1-1-3.45V338h-3.91v9.38a7,7,0,0,0,7.61,7.71Z" transform="translate(-108.43 -176.43)"/><polygon class="cls-6" points="264.54 178.37 268.42 178.37 268.42 164.73 273.8 164.73 273.8 161.56 259.16 161.56 259.16 164.73 264.54 164.73 264.54 178.37"/><path class="cls-6" d="M392.67,352.61a8.75,8.75,0,0,0,2.93,1.83,10.14,10.14,0,0,0,3.67.65,10.27,10.27,0,0,0,3.64-.64,8.71,8.71,0,0,0,2.91-1.81,8.18,8.18,0,0,0,1.93-2.78,9.07,9.07,0,0,0,0-6.94,8.1,8.1,0,0,0-1.93-2.76,8.74,8.74,0,0,0-2.91-1.82,10.34,10.34,0,0,0-3.66-.63,9.85,9.85,0,0,0-3.66.65,8.84,8.84,0,0,0-2.92,1.82,8.16,8.16,0,0,0-1.93,2.75,9,9,0,0,0,0,6.92A8.1,8.1,0,0,0,392.67,352.61Zm1.72-8.38a5.29,5.29,0,0,1,1.1-1.71,4.94,4.94,0,0,1,1.67-1.13,5.48,5.48,0,0,1,2.09-.39,5.37,5.37,0,0,1,2.07.39,5.14,5.14,0,0,1,1.67,1.13,5.34,5.34,0,0,1,1.12,1.71,6.23,6.23,0,0,1,0,4.34,5.19,5.19,0,0,1-1.12,1.7,5,5,0,0,1-1.67,1.13,5.2,5.2,0,0,1-2.07.4,5.3,5.3,0,0,1-2.09-.4,4.8,4.8,0,0,1-1.67-1.13,5.14,5.14,0,0,1-1.1-1.7,6.09,6.09,0,0,1,0-4.34Z" transform="translate(-108.43 -176.43)"/><polygon class="cls-6" points="306.39 178.37 310.3 178.37 310.3 172.37 316.78 161.56 312.99 161.56 308.5 169 304.02 161.56 299.86 161.56 306.39 172.38 306.39 178.37"/><path class="cls-6" d="M182,385.36a.81.81,0,0,0-.62.24,7.91,7.91,0,0,1,.37,1.83,2.37,2.37,0,0,1-.62,1.8,2.57,2.57,0,0,1-2,.81,40.85,40.85,0,0,1-10.61-2,47,47,0,0,0,7.41-11.34c.86-1.8,1.56-3.2,2.08-4.2a31.41,31.41,0,0,0,10-1.89,19,19,0,0,0,7.27-4.56,8.91,8.91,0,0,0,2.69-6.21,6.63,6.63,0,0,0-2.52-5.37,9.2,9.2,0,0,0-6-2.07,11.44,11.44,0,0,0-4.71.9,11,11,0,0,0-3.88,3.12,29.5,29.5,0,0,0-3.34,5q-1.49,2.79-3.56,7.47a11.78,11.78,0,0,1-5.9-2.82,6.37,6.37,0,0,1-2.24-4.74,2.94,2.94,0,0,1,.67-1.95,2.29,2.29,0,0,1,1.86-.81,3.81,3.81,0,0,1,2.21.72,6.37,6.37,0,0,1,1.35,1.14q.3.42.48.72h.17a.56.56,0,0,0,.36-.18.7.7,0,0,0,.2-.54c0-1.12-.71-2.41-2.11-3.87a7,7,0,0,0-5.3-2.19,5.94,5.94,0,0,0-4.33,1.65,6.56,6.56,0,0,0-1.68,4.89,9.33,9.33,0,0,0,3.62,7.29,18.33,18.33,0,0,0,9.18,4,.72.72,0,0,1-.09.24.9.9,0,0,0-.08.24,52,52,0,0,1-8.36,13.92q-6.91-2.1-9.94-2.1a6.13,6.13,0,0,0-4.41,1.53A5.21,5.21,0,0,0,148,390a4.13,4.13,0,0,0,1.9,3.63,8.15,8.15,0,0,0,4.66,1.29,16.77,16.77,0,0,0,9.66-3.12q4,1.8,5.64,2.52a46.29,46.29,0,0,0,4.55,1.62,16.48,16.48,0,0,0,4.63.9,4.94,4.94,0,0,0,4-1.74,6.78,6.78,0,0,0,1.49-4.56,8.24,8.24,0,0,0-.78-3.45C183.17,385.93,182.61,385.36,182,385.36Zm3.2-25.5q2.19-2.7,4.38-2.7a2.4,2.4,0,0,1,1.88.78,2.84,2.84,0,0,1,.7,2q0,3-3.62,5.76a18,18,0,0,1-8.84,3.42A56.22,56.22,0,0,1,185.21,359.86ZM154.56,392a4.52,4.52,0,0,1-2.21-.48,1.49,1.49,0,0,1-.87-1.38c0-1.24.78-1.86,2.35-1.86a19.6,19.6,0,0,1,6.35,1.74A9.88,9.88,0,0,1,154.56,392Z" transform="translate(-108.43 -176.43)"/><path class="cls-6" d="M245.1,365.68a3,3,0,0,0-2,.9,4.56,4.56,0,0,0-1.35,2.19,3,3,0,0,0,.11,2.22,1.58,1.58,0,0,0,1.49.93,2.89,2.89,0,0,0,2-.93,4.74,4.74,0,0,0,1.35-2.22,2.89,2.89,0,0,0-.11-2.19A1.57,1.57,0,0,0,245.1,365.68Z" transform="translate(-108.43 -176.43)"/><path class="cls-6" d="M241.48,384.34q-1.83,2-3.06,2c-.49,0-.73-.34-.73-1a10.54,10.54,0,0,1,1.6-4.08q1.61-2.88,2.56-4.26t1.62-2.28v-.6H238.7q-1.62,3.24-3.45,6.24l-.82,1.36a27,27,0,0,1-2.18,2.6c-1.31,1.36-2.53,2-3.65,2a.76.76,0,0,1-.59-.3,1.07,1.07,0,0,1-.25-.72q0-2.34,8.7-15.6h2.13l1.12-1.8v-.3H237.8l2-2.88v-.6h-5.28q-.84,1.74-1.74,3.48h-2.24l-1.12,1.8v.3h2.3q-2,3.6-4.61,7.8c-1,1.57-1.81,2.91-2.48,4a29.29,29.29,0,0,1-2.15,2.74q-1.81,2-3,2-.78,0-.78-1,0-1.32,2.13-4.8t2.13-4.44c0-1.68-1-2.52-2.92-2.52a9,9,0,0,0-5.5,2.1q4.55-7.62,8.7-13.86v-.6h-5.33q-4,8.11-10.89,19.81a33.48,33.48,0,0,1-2.55,3.29q-1.83,2-3.06,2c-.49,0-.73-.34-.73-1a10.37,10.37,0,0,1,1.6-4.08q1.59-2.88,2.55-4.26c.64-.92,1.18-1.68,1.63-2.28v-.6h-4.77c-.19.36-.38.74-.56,1.14a3.31,3.31,0,0,0-3.2-1.68,8.68,8.68,0,0,0-5.56,2.22,16.25,16.25,0,0,0-4.24,5.28,12.63,12.63,0,0,0-1.54,5.64,5,5,0,0,0,.84,2.94,2.61,2.61,0,0,0,2.24,1.2c1.84,0,3.65-1.1,5.45-3.3a3.74,3.74,0,0,0,.84,2.43,2.49,2.49,0,0,0,1.91.87,7.31,7.31,0,0,0,4.46-1.9c-.39.63-.75,1.25-1.15,1.9h5q2.13-4.32,5.33-10a17.78,17.78,0,0,1,3.34-3.63,5.06,5.06,0,0,1,2.72-1.35c.38,0,.56.16.56.48a6.82,6.82,0,0,1-1.26,2.43,47.85,47.85,0,0,0-2.52,4.29,9.22,9.22,0,0,0-1.27,4.2,3.89,3.89,0,0,0,.79,2.61,2.46,2.46,0,0,0,2,.93,7.54,7.54,0,0,0,4.77-2.16,15.22,15.22,0,0,0,1.6-1.61,2.08,2.08,0,0,0,0,.23A3.67,3.67,0,0,0,223,390a2.91,2.91,0,0,0,2.22.93,8.41,8.41,0,0,0,5.17-2.16,14.87,14.87,0,0,0,1.69-1.63c0,.09,0,.17,0,.25a3.85,3.85,0,0,0,.81,2.61,2.57,2.57,0,0,0,2,.93,7.58,7.58,0,0,0,4.77-2.16,32.27,32.27,0,0,0,5.83-7.68l-.5-1.44A33.9,33.9,0,0,1,241.48,384.34Zm-42.46-7a1,1,0,0,1-.9.6,1,1,0,0,0,.9,1c-.34.6-1,1.66-1.91,3.18q-3,4.38-4.66,4.38-.9,0-.9-1.38c0-1.64.83-3.65,2.47-6s3.07-3.57,4.27-3.57a.82.82,0,0,1,.87.6A1.46,1.46,0,0,1,199,377.38Z" transform="translate(-108.43 -176.43)"/><path class="cls-6" d="M275.3,383.32a35,35,0,0,0,2.13-3.27c.64-1.1,1.21-2.14,1.72-3.12l1.34-2.61c.4-.76.7-1.36.93-1.8a3.21,3.21,0,0,0-2.27-.69,2.2,2.2,0,0,0-1.27.81c-.15.24-.36.63-.64,1.17l-1,1.92q-.6,1.11-1.29,2.43c-.47.88-1,1.76-1.55,2.64a42.57,42.57,0,0,1-2.38-3.93,35,35,0,0,1-1.94-4.17,16.39,16.39,0,0,0,2.69-1.47,12.16,12.16,0,0,0,2.25-1.92,8.56,8.56,0,0,0,1.52-2.34,7,7,0,0,0,.56-2.79,5.35,5.35,0,0,0-.4-2.1,5.5,5.5,0,0,0-1-1.65,4.49,4.49,0,0,0-1.49-1.05,4.37,4.37,0,0,0-1.74-.36,5.7,5.7,0,0,0-2.78.72,8,8,0,0,0-2.36,2,10.26,10.26,0,0,0-1.68,3,11.22,11.22,0,0,0-.65,3.87,13.34,13.34,0,0,0,.34,3,5.68,5.68,0,0,0,.28,1.2,18.54,18.54,0,0,0-6.37,5.16,10.54,10.54,0,0,0-2.33,6.48,6.32,6.32,0,0,0,2.05,5.07,7.63,7.63,0,0,0,5.19,1.77,9.45,9.45,0,0,0,4.57-1.17,17.41,17.41,0,0,0,4-3,15.11,15.11,0,0,0,3.48,3,7.09,7.09,0,0,0,3.76,1.14,3,3,0,0,0,2.24-1,14,14,0,0,0,1.58-1.86,7.31,7.31,0,0,1-3.71-1.47A19.52,19.52,0,0,1,275.3,383.32Zm-6.59-20q.81-1.77,2.1-1.77c.56,0,1,.35,1.21,1a5,5,0,0,1,.11,2.49,9.27,9.27,0,0,1-1.15,3,7.24,7.24,0,0,1-2.58,2.58.67.67,0,0,1-.06-.3,10.63,10.63,0,0,1-.45-2.94A9.63,9.63,0,0,1,268.71,363.31Zm-1.16,23.79a4.42,4.42,0,0,1-2.52.84,3.36,3.36,0,0,1-2.95-1.53,7,7,0,0,1-1-4,8.49,8.49,0,0,1,1.13-4.14,9.07,9.07,0,0,1,3-3.3,33.34,33.34,0,0,0,2,5.19,33.92,33.92,0,0,0,2.8,4.77A14.52,14.52,0,0,1,267.55,387.1Z" transform="translate(-108.43 -176.43)"/><path class="cls-6" d="M330.87,395.74l-.17.18a1.52,1.52,0,0,1-.73.45,3.63,3.63,0,0,1-1.29.21,2.59,2.59,0,0,1-2.13-1.08,4.89,4.89,0,0,1-.84-3.06,35.87,35.87,0,0,1,.89-6.66,36.39,36.39,0,0,0,.9-5.94,5.55,5.55,0,0,0-1.4-4.2,11.55,11.55,0,0,0,7.83-3.39,11.19,11.19,0,0,0,2.89-8.07,10.3,10.3,0,0,0-4.21-8.43,13.12,13.12,0,0,0-1.39-.95h2.27v-3.12h-9.15v-3.89h7.8v-3.05h-7.8v-3.62h8.83V338H320.48v14.48a22.36,22.36,0,0,0-6.65,1.35c-.68.26-1.33.54-2,.83L319.09,338h-3.87L310,350l-5.11-12H300.7L308,354.8h3.63a20.06,20.06,0,0,0-4.14,2.63,17.89,17.89,0,0,0-4.09,4.89,10.86,10.86,0,0,0-1.52,5.34,6.88,6.88,0,0,0,1.77,5,5.86,5.86,0,0,0,4.35,1.8,7.48,7.48,0,0,0,3.37-.78,8.41,8.41,0,0,0,2.58-1.92,14,14,0,0,0,1.74-2.46,14.18,14.18,0,0,0,1.06-2.34,5.3,5.3,0,0,0,.34-1.56c0-.56-.24-.82-.73-.78a4.85,4.85,0,0,1-1.77,2.25,5.3,5.3,0,0,1-3.5,1.29,2.27,2.27,0,0,1-1.91-.78,3.1,3.1,0,0,1-.62-2q0-3.42,4-6.84a13.88,13.88,0,0,1,9.32-3.42,11.68,11.68,0,0,1,7.69,2.37,7.74,7.74,0,0,1,2.87,6.27,9.17,9.17,0,0,1-2.73,6.9,8.31,8.31,0,0,1-5.86,2.64,8.67,8.67,0,0,1-2.13-.24,101.62,101.62,0,0,1,7-11.28v-.6H323.4l-.56,1.32q-.61,1.26-2.38,4.5t-4.07,7.08a60.09,60.09,0,0,1-6.82,9.9q-2.61,2.76-5.19,2.76a3,3,0,0,1-2.19-.84,3.09,3.09,0,0,1-.85-2.28,3.35,3.35,0,0,1,.4-1.62,2.87,2.87,0,0,1,.64-.9l.42-.3-.05-.12a.34.34,0,0,0-.14-.24.66.66,0,0,0-.42-.12,5.62,5.62,0,0,0-4.58,2.19,7.92,7.92,0,0,0-1.77,5.13,6.28,6.28,0,0,0,1.6,4.35,6.16,6.16,0,0,0,4.8,1.77,10.22,10.22,0,0,0,4.44-1,14.26,14.26,0,0,0,4.1-3.12,38.67,38.67,0,0,0,3.81-4.77q1.8-2.64,4.21-6.78a.93.93,0,0,0,1.52.3,1.66,1.66,0,0,1,0-1.77,1.59,1.59,0,0,1,1.4-.75,1.5,1.5,0,0,1,1.26.63,3.34,3.34,0,0,1,.48,2,15.29,15.29,0,0,1-1,4.86c-.66,1.88-1.3,3.83-1.94,5.85a19,19,0,0,0-1,5.61c0,2.08.49,3.6,1.49,4.56a5.21,5.21,0,0,0,3.78,1.44,6.88,6.88,0,0,0,4.49-1.56c1.28-1,1.91-2,1.91-3Q331.26,395.8,330.87,395.74Z" transform="translate(-108.43 -176.43)"/><path class="cls-6" d="M448.41,379.6a32.21,32.21,0,0,1-3.45,4.74c-1.22,1.36-2.22,2-3,2q-.78,0-.78-1,0-1.32,2.13-4.8t2.13-4.44c0-1.68-1-2.52-2.92-2.52a8.92,8.92,0,0,0-5.27,1.92c.22-.32.39-.58.5-.78v-.6H433c-1.2,2.4-2.46,4.77-3.76,7.13a23,23,0,0,1-3.51,3.55,9.41,9.41,0,0,1-5.92,2.46c-1.65,0-2.47-.9-2.47-2.7a8,8,0,0,1,.11-1.32,8,8,0,0,0,1.4.12,9.43,9.43,0,0,0,6.12-1.95,5.71,5.71,0,0,0,2.41-4.53,3.1,3.1,0,0,0-1-2.31,4,4,0,0,0-2.84-1,8.77,8.77,0,0,0-5.25,1.89,14,14,0,0,0-4.07,4.74,14.32,14.32,0,0,0-1.05,2.55,20.09,20.09,0,0,1-1.28,1.56q-1.81,2-3,2-.78,0-.78-1,0-1.32,2.13-4.8t2.13-4.44c0-1.68-1-2.52-2.92-2.52a8.92,8.92,0,0,0-5.27,1.92c.22-.32.39-.58.5-.78v-.6H400q-1.92,3.81-4,7.57a32.21,32.21,0,0,1-2.09,2.63q-1.83,2-3.06,2c-.49,0-.73-.34-.73-1a10.37,10.37,0,0,1,1.6-4.08q1.59-2.88,2.55-4.26c.64-.92,1.18-1.68,1.63-2.28v-.6H391.1c-.19.36-.38.74-.56,1.14a3.31,3.31,0,0,0-3.2-1.68,8.68,8.68,0,0,0-5.56,2.22,16.25,16.25,0,0,0-4.24,5.28,16,16,0,0,0-.73,1.69c-.45.54-.9,1.07-1.37,1.55-1.31,1.36-2.53,2-3.65,2a.75.75,0,0,1-.59-.3,1.07,1.07,0,0,1-.25-.72q0-2.34,8.7-15.6h2.13l1.12-1.8v-.3H381c.79-1.16,1.44-2.12,2-2.88v-.6h-5.28q-.84,1.74-1.74,3.48H373.7l-1.12,1.8v.3h2.3q-2,3.6-4.61,7.8-1.47,2.35-2.47,4a28.25,28.25,0,0,1-2.16,2.75q-1.81,2-3,2c-.52,0-.79-.34-.79-1q0-1.32,2.14-4.8t2.13-4.44c0-1.68-1-2.52-2.92-2.52a8.94,8.94,0,0,0-5.28,1.92,8.18,8.18,0,0,0,.51-.78v-.6h-4.72c-1.27,2.55-2.61,5.07-4,7.57a32.65,32.65,0,0,1-2.09,2.63q-1.83,2-3.06,2c-.49,0-.73-.34-.73-1a10.37,10.37,0,0,1,1.6-4.08Q347,378.4,348,377c.64-.92,1.18-1.68,1.63-2.28v-.6h-4.77c-.19.36-.38.74-.56,1.14a3.31,3.31,0,0,0-3.2-1.68,8.68,8.68,0,0,0-5.56,2.22,16.25,16.25,0,0,0-4.24,5.28,12.63,12.63,0,0,0-1.54,5.64,5,5,0,0,0,.84,2.94,2.61,2.61,0,0,0,2.24,1.2c1.84,0,3.65-1.1,5.45-3.3a3.74,3.74,0,0,0,.84,2.43,2.47,2.47,0,0,0,1.91.87A7.23,7.23,0,0,0,345.5,389c-.38.64-.76,1.29-1.16,1.92h5q2.24-4.62,5.33-10a17.5,17.5,0,0,1,3.34-3.63,5.06,5.06,0,0,1,2.72-1.35c.37,0,.56.16.56.48a6.82,6.82,0,0,1-1.26,2.43q-1.26,1.89-2.53,4.29a9.32,9.32,0,0,0-1.26,4.2A3.89,3.89,0,0,0,357,390a2.46,2.46,0,0,0,2,.93,7.54,7.54,0,0,0,4.77-2.16,15.22,15.22,0,0,0,1.6-1.61,2.08,2.08,0,0,0,0,.23,3.67,3.67,0,0,0,.87,2.61,2.91,2.91,0,0,0,2.22.93,8.36,8.36,0,0,0,5.16-2.16,17.21,17.21,0,0,0,2.46-2.5c0,.18,0,.35,0,.52a5,5,0,0,0,.84,2.94,2.61,2.61,0,0,0,2.24,1.2c1.84,0,3.65-1.1,5.45-3.3a3.74,3.74,0,0,0,.84,2.43,2.49,2.49,0,0,0,1.91.87,7.28,7.28,0,0,0,4.48-1.92c-.39.64-.77,1.29-1.17,1.92h5q2.25-4.62,5.33-10a17.78,17.78,0,0,1,3.34-3.63,5.06,5.06,0,0,1,2.72-1.35c.38,0,.56.16.56.48a6.82,6.82,0,0,1-1.26,2.43,47.85,47.85,0,0,0-2.52,4.29,9.22,9.22,0,0,0-1.27,4.2,3.89,3.89,0,0,0,.79,2.61,2.46,2.46,0,0,0,2,.93,7.54,7.54,0,0,0,4.77-2.16,20.14,20.14,0,0,0,2.7-2.94h0q0,5.52,5.5,5.52a10.69,10.69,0,0,0,7-3c-.51.86-1,1.71-1.55,2.56h5q2.25-4.62,5.33-10a17.78,17.78,0,0,1,3.34-3.63,5.06,5.06,0,0,1,2.72-1.35q.57,0,.57.48a6.92,6.92,0,0,1-1.27,2.43,47.85,47.85,0,0,0-2.52,4.29,9.22,9.22,0,0,0-1.27,4.2,3.89,3.89,0,0,0,.79,2.61,2.46,2.46,0,0,0,2,.93,7.58,7.58,0,0,0,4.78-2.16A33.53,33.53,0,0,0,449,381Zm-27.62-2.25a4.48,4.48,0,0,1,2.92-1.65c.45,0,.67.24.67.72a4.9,4.9,0,0,1-1.71,3.09,5.08,5.08,0,0,1-3.68,1.77,6.38,6.38,0,0,1-.84-.06A13.53,13.53,0,0,1,420.79,377.35Zm-78.58,0a1,1,0,0,1-.9.6,1,1,0,0,0,.9,1c-.34.6-1,1.66-1.91,3.18q-3,4.38-4.66,4.38-.9,0-.9-1.38c0-1.64.83-3.65,2.47-6s3.07-3.57,4.27-3.57a.82.82,0,0,1,.87.6A1.46,1.46,0,0,1,342.21,377.38Zm46.25,0a1,1,0,0,1-.9.6,1,1,0,0,0,.9,1c-.34.6-1,1.66-1.91,3.18q-3,4.38-4.66,4.38-.9,0-.9-1.38c0-1.64.83-3.65,2.47-6s3.07-3.57,4.27-3.57a.82.82,0,0,1,.87.6A1.46,1.46,0,0,1,388.46,377.38Z" transform="translate(-108.43 -176.43)"/><polygon class="cls-2" points="105.8 175.25 96.66 175.25 96.66 171.36 104.46 171.36 104.46 168.31 96.66 168.31 96.66 164.69 105.49 164.69 105.49 161.56 92.79 161.56 92.79 178.37 105.8 178.37 105.8 175.25"/><polygon class="cls-2" points="112.76 174.1 114.99 171.77 120.39 178.37 124.95 178.37 117.58 169.06 124.52 161.56 120.2 161.56 112.76 169.4 112.76 161.56 108.9 161.56 108.9 178.37 112.76 178.37 112.76 174.1"/><path class="cls-2" d="M249.2,340.16a8.68,8.68,0,0,0-2.92-1.82,10.26,10.26,0,0,0-3.66-.63,9.88,9.88,0,0,0-3.66.65,8.9,8.9,0,0,0-2.91,1.82,8,8,0,0,0-1.93,2.75,9,9,0,0,0,0,6.92,8,8,0,0,0,1.93,2.76,8.65,8.65,0,0,0,2.93,1.83,10.65,10.65,0,0,0,7.3,0,8.66,8.66,0,0,0,2.92-1.81,8.18,8.18,0,0,0,1.93-2.78,9.19,9.19,0,0,0,0-6.94A8.1,8.1,0,0,0,249.2,340.16Zm-1.72,8.41a5.12,5.12,0,0,1-2.78,2.83,5.61,5.61,0,0,1-4.16,0,4.8,4.8,0,0,1-1.67-1.13,5.32,5.32,0,0,1-1.11-1.7,6.23,6.23,0,0,1,0-4.34,5.48,5.48,0,0,1,1.11-1.71,4.94,4.94,0,0,1,1.67-1.13,5.74,5.74,0,0,1,4.16,0,5.1,5.1,0,0,1,2.78,2.84,6.09,6.09,0,0,1,0,4.34Z" transform="translate(-108.43 -176.43)"/><path class="cls-2" d="M258.65,350.17H262a9.23,9.23,0,0,0,3.88-.75,5.7,5.7,0,0,0,2.52-2.1,6.36,6.36,0,0,0,0-6.49,5.7,5.7,0,0,0-2.52-2.1A9.39,9.39,0,0,0,262,338h-7.28v16.8h3.91Zm5.84-8.25a2.65,2.65,0,0,1,.91,2.15,2.69,2.69,0,0,1-.91,2.16,4.11,4.11,0,0,1-2.69.77h-3.15v-5.83h3.15A4.17,4.17,0,0,1,264.49,341.92Z" transform="translate(-108.43 -176.43)"/><path class="cls-2" d="M276.49,338,269,354.8h4l1.49-3.6h7.79l1.49,3.6h4.08L280.33,338Zm-.76,10.25,2.66-6.41,2.67,6.41Z" transform="translate(-108.43 -176.43)"/><polygon class="cls-2" points="193.47 175.2 185.1 175.2 185.1 161.56 181.19 161.56 181.19 178.37 193.47 178.37 193.47 175.2"/><polygon class="cls-2" points="240.44 175.2 232.06 175.2 232.06 161.56 228.15 161.56 228.15 178.37 240.44 178.37 240.44 175.2"/><path class="cls-2" d="M358.33,355.09a7.56,7.56,0,0,0,5.56-2,7.64,7.64,0,0,0,2-5.71V338h-3.82v9.28a5,5,0,0,1-1,3.45,4.07,4.07,0,0,1-5.5,0,5,5,0,0,1-1-3.45V338h-3.91v9.38a7,7,0,0,0,7.61,7.71Z" transform="translate(-108.43 -176.43)"/><polygon class="cls-2" points="264.54 178.37 268.42 178.37 268.42 164.73 273.8 164.73 273.8 161.56 259.16 161.56 259.16 164.73 264.54 164.73 264.54 178.37"/><path class="cls-2" d="M392.67,352.61a8.75,8.75,0,0,0,2.93,1.83,10.14,10.14,0,0,0,3.67.65,10.27,10.27,0,0,0,3.64-.64,8.71,8.71,0,0,0,2.91-1.81,8.18,8.18,0,0,0,1.93-2.78,9.07,9.07,0,0,0,0-6.94,8.1,8.1,0,0,0-1.93-2.76,8.74,8.74,0,0,0-2.91-1.82,10.34,10.34,0,0,0-3.66-.63,9.85,9.85,0,0,0-3.66.65,8.84,8.84,0,0,0-2.92,1.82,8.16,8.16,0,0,0-1.93,2.75,9,9,0,0,0,0,6.92A8.1,8.1,0,0,0,392.67,352.61Zm1.72-8.38a5.29,5.29,0,0,1,1.1-1.71,4.94,4.94,0,0,1,1.67-1.13,5.48,5.48,0,0,1,2.09-.39,5.37,5.37,0,0,1,2.07.39,5.14,5.14,0,0,1,1.67,1.13,5.34,5.34,0,0,1,1.12,1.71,6.23,6.23,0,0,1,0,4.34,5.19,5.19,0,0,1-1.12,1.7,5,5,0,0,1-1.67,1.13,5.2,5.2,0,0,1-2.07.4,5.3,5.3,0,0,1-2.09-.4,4.8,4.8,0,0,1-1.67-1.13,5.14,5.14,0,0,1-1.1-1.7,6.09,6.09,0,0,1,0-4.34Z" transform="translate(-108.43 -176.43)"/><polygon class="cls-2" points="306.39 178.37 310.3 178.37 310.3 172.37 316.78 161.56 312.99 161.56 308.5 169 304.02 161.56 299.86 161.56 306.39 172.38 306.39 178.37"/><path class="cls-2" d="M182,385.36a.81.81,0,0,0-.62.24,7.91,7.91,0,0,1,.37,1.83,2.37,2.37,0,0,1-.62,1.8,2.57,2.57,0,0,1-2,.81,40.85,40.85,0,0,1-10.61-2,47,47,0,0,0,7.41-11.34c.86-1.8,1.56-3.2,2.08-4.2a31.41,31.41,0,0,0,10-1.89,19,19,0,0,0,7.27-4.56,8.91,8.91,0,0,0,2.69-6.21,6.63,6.63,0,0,0-2.52-5.37,9.2,9.2,0,0,0-6-2.07,11.44,11.44,0,0,0-4.71.9,11,11,0,0,0-3.88,3.12,29.5,29.5,0,0,0-3.34,5q-1.49,2.79-3.56,7.47a11.78,11.78,0,0,1-5.9-2.82,6.37,6.37,0,0,1-2.24-4.74,2.94,2.94,0,0,1,.67-1.95,2.29,2.29,0,0,1,1.86-.81,3.81,3.81,0,0,1,2.21.72,6.37,6.37,0,0,1,1.35,1.14q.3.42.48.72h.17a.56.56,0,0,0,.36-.18.7.7,0,0,0,.2-.54c0-1.12-.71-2.41-2.11-3.87a7,7,0,0,0-5.3-2.19,5.94,5.94,0,0,0-4.33,1.65,6.56,6.56,0,0,0-1.68,4.89,9.33,9.33,0,0,0,3.62,7.29,18.33,18.33,0,0,0,9.18,4,.72.72,0,0,1-.09.24.9.9,0,0,0-.08.24,52,52,0,0,1-8.36,13.92q-6.91-2.1-9.94-2.1a6.13,6.13,0,0,0-4.41,1.53A5.21,5.21,0,0,0,148,390a4.13,4.13,0,0,0,1.9,3.63,8.15,8.15,0,0,0,4.66,1.29,16.77,16.77,0,0,0,9.66-3.12q4,1.8,5.64,2.52a46.29,46.29,0,0,0,4.55,1.62,16.48,16.48,0,0,0,4.63.9,4.94,4.94,0,0,0,4-1.74,6.78,6.78,0,0,0,1.49-4.56,8.24,8.24,0,0,0-.78-3.45C183.17,385.93,182.61,385.36,182,385.36Zm3.2-25.5q2.19-2.7,4.38-2.7a2.4,2.4,0,0,1,1.88.78,2.84,2.84,0,0,1,.7,2q0,3-3.62,5.76a18,18,0,0,1-8.84,3.42A56.22,56.22,0,0,1,185.21,359.86ZM154.56,392a4.52,4.52,0,0,1-2.21-.48,1.49,1.49,0,0,1-.87-1.38c0-1.24.78-1.86,2.35-1.86a19.6,19.6,0,0,1,6.35,1.74A9.88,9.88,0,0,1,154.56,392Z" transform="translate(-108.43 -176.43)"/><path class="cls-2" d="M245.1,365.68a3,3,0,0,0-2,.9,4.56,4.56,0,0,0-1.35,2.19,3,3,0,0,0,.11,2.22,1.58,1.58,0,0,0,1.49.93,2.89,2.89,0,0,0,2-.93,4.74,4.74,0,0,0,1.35-2.22,2.89,2.89,0,0,0-.11-2.19A1.57,1.57,0,0,0,245.1,365.68Z" transform="translate(-108.43 -176.43)"/><path class="cls-2" d="M241.48,384.34q-1.83,2-3.06,2c-.49,0-.73-.34-.73-1a10.54,10.54,0,0,1,1.6-4.08q1.61-2.88,2.56-4.26t1.62-2.28v-.6H238.7q-1.62,3.24-3.45,6.24l-.82,1.36a27,27,0,0,1-2.18,2.6c-1.31,1.36-2.53,2-3.65,2a.76.76,0,0,1-.59-.3,1.07,1.07,0,0,1-.25-.72q0-2.34,8.7-15.6h2.13l1.12-1.8v-.3H237.8l2-2.88v-.6h-5.28q-.84,1.74-1.74,3.48h-2.24l-1.12,1.8v.3h2.3q-2,3.6-4.61,7.8c-1,1.57-1.81,2.91-2.48,4a29.29,29.29,0,0,1-2.15,2.74q-1.81,2-3,2-.78,0-.78-1,0-1.32,2.13-4.8t2.13-4.44c0-1.68-1-2.52-2.92-2.52a9,9,0,0,0-5.5,2.1q4.55-7.62,8.7-13.86v-.6h-5.33q-4,8.11-10.89,19.81a33.48,33.48,0,0,1-2.55,3.29q-1.83,2-3.06,2c-.49,0-.73-.34-.73-1a10.37,10.37,0,0,1,1.6-4.08q1.59-2.88,2.55-4.26c.64-.92,1.18-1.68,1.63-2.28v-.6h-4.77c-.19.36-.38.74-.56,1.14a3.31,3.31,0,0,0-3.2-1.68,8.68,8.68,0,0,0-5.56,2.22,16.25,16.25,0,0,0-4.24,5.28,12.63,12.63,0,0,0-1.54,5.64,5,5,0,0,0,.84,2.94,2.61,2.61,0,0,0,2.24,1.2c1.84,0,3.65-1.1,5.45-3.3a3.74,3.74,0,0,0,.84,2.43,2.49,2.49,0,0,0,1.91.87,7.31,7.31,0,0,0,4.46-1.9c-.39.63-.75,1.25-1.15,1.9h5q2.13-4.32,5.33-10a17.78,17.78,0,0,1,3.34-3.63,5.06,5.06,0,0,1,2.72-1.35c.38,0,.56.16.56.48a6.82,6.82,0,0,1-1.26,2.43,47.85,47.85,0,0,0-2.52,4.29,9.22,9.22,0,0,0-1.27,4.2,3.89,3.89,0,0,0,.79,2.61,2.46,2.46,0,0,0,2,.93,7.54,7.54,0,0,0,4.77-2.16,15.22,15.22,0,0,0,1.6-1.61,2.08,2.08,0,0,0,0,.23A3.67,3.67,0,0,0,223,390a2.91,2.91,0,0,0,2.22.93,8.41,8.41,0,0,0,5.17-2.16,14.87,14.87,0,0,0,1.69-1.63c0,.09,0,.17,0,.25a3.85,3.85,0,0,0,.81,2.61,2.57,2.57,0,0,0,2,.93,7.58,7.58,0,0,0,4.77-2.16,32.27,32.27,0,0,0,5.83-7.68l-.5-1.44A33.9,33.9,0,0,1,241.48,384.34Zm-42.46-7a1,1,0,0,1-.9.6,1,1,0,0,0,.9,1c-.34.6-1,1.66-1.91,3.18q-3,4.38-4.66,4.38-.9,0-.9-1.38c0-1.64.83-3.65,2.47-6s3.07-3.57,4.27-3.57a.82.82,0,0,1,.87.6A1.46,1.46,0,0,1,199,377.38Z" transform="translate(-108.43 -176.43)"/><path class="cls-2" d="M275.3,383.32a35,35,0,0,0,2.13-3.27c.64-1.1,1.21-2.14,1.72-3.12l1.34-2.61c.4-.76.7-1.36.93-1.8a3.21,3.21,0,0,0-2.27-.69,2.2,2.2,0,0,0-1.27.81c-.15.24-.36.63-.64,1.17l-1,1.92q-.6,1.11-1.29,2.43c-.47.88-1,1.76-1.55,2.64a42.57,42.57,0,0,1-2.38-3.93,35,35,0,0,1-1.94-4.17,16.39,16.39,0,0,0,2.69-1.47,12.16,12.16,0,0,0,2.25-1.92,8.56,8.56,0,0,0,1.52-2.34,7,7,0,0,0,.56-2.79,5.35,5.35,0,0,0-.4-2.1,5.5,5.5,0,0,0-1-1.65,4.49,4.49,0,0,0-1.49-1.05,4.37,4.37,0,0,0-1.74-.36,5.7,5.7,0,0,0-2.78.72,8,8,0,0,0-2.36,2,10.26,10.26,0,0,0-1.68,3,11.22,11.22,0,0,0-.65,3.87,13.34,13.34,0,0,0,.34,3,5.68,5.68,0,0,0,.28,1.2,18.54,18.54,0,0,0-6.37,5.16,10.54,10.54,0,0,0-2.33,6.48,6.32,6.32,0,0,0,2.05,5.07,7.63,7.63,0,0,0,5.19,1.77,9.45,9.45,0,0,0,4.57-1.17,17.41,17.41,0,0,0,4-3,15.11,15.11,0,0,0,3.48,3,7.09,7.09,0,0,0,3.76,1.14,3,3,0,0,0,2.24-1,14,14,0,0,0,1.58-1.86,7.31,7.31,0,0,1-3.71-1.47A19.52,19.52,0,0,1,275.3,383.32Zm-6.59-20q.81-1.77,2.1-1.77c.56,0,1,.35,1.21,1a5,5,0,0,1,.11,2.49,9.27,9.27,0,0,1-1.15,3,7.24,7.24,0,0,1-2.58,2.58.67.67,0,0,1-.06-.3,10.63,10.63,0,0,1-.45-2.94A9.63,9.63,0,0,1,268.71,363.31Zm-1.16,23.79a4.42,4.42,0,0,1-2.52.84,3.36,3.36,0,0,1-2.95-1.53,7,7,0,0,1-1-4,8.49,8.49,0,0,1,1.13-4.14,9.07,9.07,0,0,1,3-3.3,33.34,33.34,0,0,0,2,5.19,33.92,33.92,0,0,0,2.8,4.77A14.52,14.52,0,0,1,267.55,387.1Z" transform="translate(-108.43 -176.43)"/><path class="cls-2" d="M330.87,395.74l-.17.18a1.52,1.52,0,0,1-.73.45,3.63,3.63,0,0,1-1.29.21,2.59,2.59,0,0,1-2.13-1.08,4.89,4.89,0,0,1-.84-3.06,35.87,35.87,0,0,1,.89-6.66,36.39,36.39,0,0,0,.9-5.94,5.55,5.55,0,0,0-1.4-4.2,11.55,11.55,0,0,0,7.83-3.39,11.19,11.19,0,0,0,2.89-8.07,10.3,10.3,0,0,0-4.21-8.43,13.12,13.12,0,0,0-1.39-.95h2.27v-3.12h-9.15v-3.89h7.8v-3.05h-7.8v-3.62h8.83V338H320.48v14.48a22.36,22.36,0,0,0-6.65,1.35c-.68.26-1.33.54-2,.83L319.09,338h-3.87L310,350l-5.11-12H300.7L308,354.8h3.63a20.06,20.06,0,0,0-4.14,2.63,17.89,17.89,0,0,0-4.09,4.89,10.86,10.86,0,0,0-1.52,5.34,6.88,6.88,0,0,0,1.77,5,5.86,5.86,0,0,0,4.35,1.8,7.48,7.48,0,0,0,3.37-.78,8.41,8.41,0,0,0,2.58-1.92,14,14,0,0,0,1.74-2.46,14.18,14.18,0,0,0,1.06-2.34,5.3,5.3,0,0,0,.34-1.56c0-.56-.24-.82-.73-.78a4.85,4.85,0,0,1-1.77,2.25,5.3,5.3,0,0,1-3.5,1.29,2.27,2.27,0,0,1-1.91-.78,3.1,3.1,0,0,1-.62-2q0-3.42,4-6.84a13.88,13.88,0,0,1,9.32-3.42,11.68,11.68,0,0,1,7.69,2.37,7.74,7.74,0,0,1,2.87,6.27,9.17,9.17,0,0,1-2.73,6.9,8.31,8.31,0,0,1-5.86,2.64,8.67,8.67,0,0,1-2.13-.24,101.62,101.62,0,0,1,7-11.28v-.6H323.4l-.56,1.32q-.61,1.26-2.38,4.5t-4.07,7.08a60.09,60.09,0,0,1-6.82,9.9q-2.61,2.76-5.19,2.76a3,3,0,0,1-2.19-.84,3.09,3.09,0,0,1-.85-2.28,3.35,3.35,0,0,1,.4-1.62,2.87,2.87,0,0,1,.64-.9l.42-.3-.05-.12a.34.34,0,0,0-.14-.24.66.66,0,0,0-.42-.12,5.62,5.62,0,0,0-4.58,2.19,7.92,7.92,0,0,0-1.77,5.13,6.28,6.28,0,0,0,1.6,4.35,6.16,6.16,0,0,0,4.8,1.77,10.22,10.22,0,0,0,4.44-1,14.26,14.26,0,0,0,4.1-3.12,38.67,38.67,0,0,0,3.81-4.77q1.8-2.64,4.21-6.78a.93.93,0,0,0,1.52.3,1.66,1.66,0,0,1,0-1.77,1.59,1.59,0,0,1,1.4-.75,1.5,1.5,0,0,1,1.26.63,3.34,3.34,0,0,1,.48,2,15.29,15.29,0,0,1-1,4.86c-.66,1.88-1.3,3.83-1.94,5.85a19,19,0,0,0-1,5.61c0,2.08.49,3.6,1.49,4.56a5.21,5.21,0,0,0,3.78,1.44,6.88,6.88,0,0,0,4.49-1.56c1.28-1,1.91-2,1.91-3Q331.26,395.8,330.87,395.74Z" transform="translate(-108.43 -176.43)"/><path class="cls-2" d="M448.41,379.6a32.21,32.21,0,0,1-3.45,4.74c-1.22,1.36-2.22,2-3,2q-.78,0-.78-1,0-1.32,2.13-4.8t2.13-4.44c0-1.68-1-2.52-2.92-2.52a8.92,8.92,0,0,0-5.27,1.92c.22-.32.39-.58.5-.78v-.6H433c-1.2,2.4-2.46,4.77-3.76,7.13a23,23,0,0,1-3.51,3.55,9.41,9.41,0,0,1-5.92,2.46c-1.65,0-2.47-.9-2.47-2.7a8,8,0,0,1,.11-1.32,8,8,0,0,0,1.4.12,9.43,9.43,0,0,0,6.12-1.95,5.71,5.71,0,0,0,2.41-4.53,3.1,3.1,0,0,0-1-2.31,4,4,0,0,0-2.84-1,8.77,8.77,0,0,0-5.25,1.89,14,14,0,0,0-4.07,4.74,14.32,14.32,0,0,0-1.05,2.55,20.09,20.09,0,0,1-1.28,1.56q-1.81,2-3,2-.78,0-.78-1,0-1.32,2.13-4.8t2.13-4.44c0-1.68-1-2.52-2.92-2.52a8.92,8.92,0,0,0-5.27,1.92c.22-.32.39-.58.5-.78v-.6H400q-1.92,3.81-4,7.57a32.21,32.21,0,0,1-2.09,2.63q-1.83,2-3.06,2c-.49,0-.73-.34-.73-1a10.37,10.37,0,0,1,1.6-4.08q1.59-2.88,2.55-4.26c.64-.92,1.18-1.68,1.63-2.28v-.6H391.1c-.19.36-.38.74-.56,1.14a3.31,3.31,0,0,0-3.2-1.68,8.68,8.68,0,0,0-5.56,2.22,16.25,16.25,0,0,0-4.24,5.28,16,16,0,0,0-.73,1.69c-.45.54-.9,1.07-1.37,1.55-1.31,1.36-2.53,2-3.65,2a.75.75,0,0,1-.59-.3,1.07,1.07,0,0,1-.25-.72q0-2.34,8.7-15.6h2.13l1.12-1.8v-.3H381c.79-1.16,1.44-2.12,2-2.88v-.6h-5.28q-.84,1.74-1.74,3.48H373.7l-1.12,1.8v.3h2.3q-2,3.6-4.61,7.8-1.47,2.35-2.47,4a28.25,28.25,0,0,1-2.16,2.75q-1.81,2-3,2c-.52,0-.79-.34-.79-1q0-1.32,2.14-4.8t2.13-4.44c0-1.68-1-2.52-2.92-2.52a8.94,8.94,0,0,0-5.28,1.92,8.18,8.18,0,0,0,.51-.78v-.6h-4.72c-1.27,2.55-2.61,5.07-4,7.57a32.65,32.65,0,0,1-2.09,2.63q-1.83,2-3.06,2c-.49,0-.73-.34-.73-1a10.37,10.37,0,0,1,1.6-4.08Q347,378.4,348,377c.64-.92,1.18-1.68,1.63-2.28v-.6h-4.77c-.19.36-.38.74-.56,1.14a3.31,3.31,0,0,0-3.2-1.68,8.68,8.68,0,0,0-5.56,2.22,16.25,16.25,0,0,0-4.24,5.28,12.63,12.63,0,0,0-1.54,5.64,5,5,0,0,0,.84,2.94,2.61,2.61,0,0,0,2.24,1.2c1.84,0,3.65-1.1,5.45-3.3a3.74,3.74,0,0,0,.84,2.43,2.47,2.47,0,0,0,1.91.87A7.23,7.23,0,0,0,345.5,389c-.38.64-.76,1.29-1.16,1.92h5q2.24-4.62,5.33-10a17.5,17.5,0,0,1,3.34-3.63,5.06,5.06,0,0,1,2.72-1.35c.37,0,.56.16.56.48a6.82,6.82,0,0,1-1.26,2.43q-1.26,1.89-2.53,4.29a9.32,9.32,0,0,0-1.26,4.2A3.89,3.89,0,0,0,357,390a2.46,2.46,0,0,0,2,.93,7.54,7.54,0,0,0,4.77-2.16,15.22,15.22,0,0,0,1.6-1.61,2.08,2.08,0,0,0,0,.23,3.67,3.67,0,0,0,.87,2.61,2.91,2.91,0,0,0,2.22.93,8.36,8.36,0,0,0,5.16-2.16,17.21,17.21,0,0,0,2.46-2.5c0,.18,0,.35,0,.52a5,5,0,0,0,.84,2.94,2.61,2.61,0,0,0,2.24,1.2c1.84,0,3.65-1.1,5.45-3.3a3.74,3.74,0,0,0,.84,2.43,2.49,2.49,0,0,0,1.91.87,7.28,7.28,0,0,0,4.48-1.92c-.39.64-.77,1.29-1.17,1.92h5q2.25-4.62,5.33-10a17.78,17.78,0,0,1,3.34-3.63,5.06,5.06,0,0,1,2.72-1.35c.38,0,.56.16.56.48a6.82,6.82,0,0,1-1.26,2.43,47.85,47.85,0,0,0-2.52,4.29,9.22,9.22,0,0,0-1.27,4.2,3.89,3.89,0,0,0,.79,2.61,2.46,2.46,0,0,0,2,.93,7.54,7.54,0,0,0,4.77-2.16,20.14,20.14,0,0,0,2.7-2.94h0q0,5.52,5.5,5.52a10.69,10.69,0,0,0,7-3c-.51.86-1,1.71-1.55,2.56h5q2.25-4.62,5.33-10a17.78,17.78,0,0,1,3.34-3.63,5.06,5.06,0,0,1,2.72-1.35q.57,0,.57.48a6.92,6.92,0,0,1-1.27,2.43,47.85,47.85,0,0,0-2.52,4.29,9.22,9.22,0,0,0-1.27,4.2,3.89,3.89,0,0,0,.79,2.61,2.46,2.46,0,0,0,2,.93,7.58,7.58,0,0,0,4.78-2.16A33.53,33.53,0,0,0,449,381Zm-27.62-2.25a4.48,4.48,0,0,1,2.92-1.65c.45,0,.67.24.67.72a4.9,4.9,0,0,1-1.71,3.09,5.08,5.08,0,0,1-3.68,1.77,6.38,6.38,0,0,1-.84-.06A13.53,13.53,0,0,1,420.79,377.35Zm-78.58,0a1,1,0,0,1-.9.6,1,1,0,0,0,.9,1c-.34.6-1,1.66-1.91,3.18q-3,4.38-4.66,4.38-.9,0-.9-1.38c0-1.64.83-3.65,2.47-6s3.07-3.57,4.27-3.57a.82.82,0,0,1,.87.6A1.46,1.46,0,0,1,342.21,377.38Zm46.25,0a1,1,0,0,1-.9.6,1,1,0,0,0,.9,1c-.34.6-1,1.66-1.91,3.18q-3,4.38-4.66,4.38-.9,0-.9-1.38c0-1.64.83-3.65,2.47-6s3.07-3.57,4.27-3.57a.82.82,0,0,1,.87.6A1.46,1.46,0,0,1,388.46,377.38Z" transform="translate(-108.43 -176.43)"/><path class="cls-7" d="M123.16,410" transform="translate(-108.43 -176.43)"/><path class="cls-7" d="M325.84,410" transform="translate(-108.43 -176.43)"/><path class="cls-2" d="M352.92,234.75c-.35-19.14-15.06-35.63-34-38.63-2.89-.45-13.1-.57-16.31-.88l-102.26.42c-19.76.71-36.53,16.11-38.47,35.71-.75,7.66-.35,15.43-.46,23.15,0,2.64,0,5.29,0,8.27-3.93,0-7.53.08-11.12,0-2.63-.08-3.82.85-3.8,3.64q.12,22.19,0,44.35c0,2.65,1.08,3.6,3.57,3.57,5.34-.06,10.68-.07,16,0,2,0,3.09-.88,3.9-2.65.3-.67.62-1.33.93-2l11.13-22.05.12-.08H187a3.27,3.27,0,0,0,2.46-1.12l3.16-3.68H151.14v-.15c0-4.3,0-8.3,0-12.29,0-.84.11-1.68.18-2.63H348.49c0,4.12-.15,8,.05,11.9.13,2.5-.61,3.25-3.17,3.23-12.21-.11-34.08-.07-48.32-.06h-9.14l2.86,3.58a3.28,3.28,0,0,0,2.55,1.22h8.46c14.68,0,35.7,0,47.86,0,2.4,0,3.41-1.14,3.4-3.6C353,267.56,353.22,251.15,352.92,234.75ZM151.15,287.56h25l-11.69,22.12H151.15ZM344.3,249.75h-176V235.68h176Z" transform="translate(-108.43 -176.43)"/></svg>