<svg id="black_no_num" xmlns="http://www.w3.org/2000/svg" viewBox="0 0 378.43 236.87"><defs><style>.cls-1,.cls-2,.cls-3,.cls-4{fill:none;}.cls-1,.cls-2,.cls-3{stroke:#000;}.cls-1{stroke-miterlimit:10;stroke-width:5.19px;}.cls-2{stroke-width:6.64px;}.cls-3,.cls-4{stroke-width:6.71px;}.cls-4{stroke:#231f20;}</style></defs><path class="cls-1" d="M331.75,318.49q-13.47,0-26.95,0c-4.12,0-5.41-1.39-5.45-5.84s-.06-9.2,0-13.8c.05-3.73,1.46-5.34,4.82-5.34,18.51,0,41.94,0,60.44,0,3.27,0,4.66,1.59,4.7,5.12.05,4.8,0,9.6,0,14.4,0,4-1.35,5.45-4.9,5.46C355.18,318.51,341,318.49,331.75,318.49Z" transform="translate(-108.96 -176.51)"/><path d="M235.71,303.43a23.15,23.15,0,1,1-23-23.1A23,23,0,0,1,235.71,303.43Zm-13.18-.08a9.93,9.93,0,1,0-9.9,10.09A10,10,0,0,0,222.53,303.35Z" transform="translate(-108.96 -176.51)"/><path d="M293,303.32a23.16,23.16,0,1,1-23.4-23A23,23,0,0,1,293,303.32Zm-13.19.08a9.93,9.93,0,1,0-10,10A10,10,0,0,0,279.82,303.4Z" transform="translate(-108.96 -176.51)"/><path d="M386.65,303.44a23.18,23.18,0,1,1,46.36,0,23.18,23.18,0,0,1-46.36,0Zm23.28,9.76a9.93,9.93,0,1,0-10.06-9.84A9.93,9.93,0,0,0,409.93,313.2Z" transform="translate(-108.96 -176.51)"/><path d="M456.7,248,451,244.37a6.28,6.28,0,0,1-2.7-3.71l-8.55-32.55,9.09-.27s-2.37-13-4.59-19.55a11.51,11.51,0,0,0-8.15-7.62s-45.91-4.16-61.9-4.16-14.51,12.2-14.51,12.2v80.12l0,25.6h10.17v19.93h12.69l-.12-9.54c0-.45,0-.9,0-1.36a27.42,27.42,0,1,1,54.83,0c0,.47-.08,10.43-.1,10.91h10.37a8.7,8.7,0,0,0,4.66-1.34l2.55-1.62a7.66,7.66,0,0,0,3.64-6.43V251.52A4.63,4.63,0,0,0,456.7,248Zm-19.91-6.35-46.18-.49a3.59,3.59,0,0,1-3.52-3.15l-3.45-28.11a3.57,3.57,0,0,1,3.7-4l42.51,1.76a3.56,3.56,0,0,1,3.31,2.66l7.13,26.84A3.58,3.58,0,0,1,436.79,241.65Z" transform="translate(-108.96 -176.51)"/><path d="M251.18,282.87H231.79l2.84,3.55a3.26,3.26,0,0,0,2.54,1.22h8.39a3.24,3.24,0,0,0,2.45-1.12Z" transform="translate(-108.96 -176.51)"/><path class="cls-2" d="M346.65,410.06l119.53-.15c17,0,17.89-6.39,17.89-15.14s-2.08-14.5-17-14.5c-7.93,0-8.84-12.13,0-12.13,11.53,0,11-5,11-7.73,0-7.47-11-7.39-11-7.39h-33" transform="translate(-108.96 -176.51)"/><path class="cls-3" d="M155.34,254.39h-26s-9.84-.37-9.84,10.26c0,4,.1,12.52,9.84,12.52,8.83,0,7.93,16,0,16s-17,3.74-17,20.22.9,28.52,17.89,28.52H184.1" transform="translate(-108.96 -176.51)"/><path class="cls-4" d="M123.69,410.06" transform="translate(-108.96 -176.51)"/><path class="cls-4" d="M326.37,410.06" transform="translate(-108.96 -176.51)"/><path d="M353.45,234.82c-.35-19.13-15.06-35.62-34-38.62-2.89-.46-13.1-.58-16.31-.88l-102.26.42c-19.76.71-36.53,16.1-38.47,35.71-.75,7.65-.35,15.43-.46,23.15,0,2.64,0,5.28,0,8.26-3.93,0-7.53.09-11.12,0-2.63-.08-3.82.85-3.8,3.64q.12,22.17,0,44.35c0,2.65,1.08,3.59,3.57,3.57,5.34-.06,10.69-.07,16,0,2,0,3.08-.88,3.89-2.65.3-.66.62-1.32.93-2l11.13-22.06.12-.07h4.83a3.26,3.26,0,0,0,2.46-1.12l3.16-3.68H151.68v-.15c0-4.31,0-8.3,0-12.29,0-.84.11-1.68.18-2.63H349c0,4.12-.15,8,.05,11.9.13,2.5-.61,3.25-3.17,3.23-12.21-.11-34.08-.07-48.32-.06h-9.14l2.86,3.57a3.26,3.26,0,0,0,2.55,1.23h8.46c14.68,0,35.7,0,47.86,0,2.4,0,3.41-1.14,3.4-3.6C353.51,267.63,353.75,251.22,353.45,234.82ZM151.69,287.64h25L165,309.76H151.69Zm193.14-37.81h-176V235.76h176Z" transform="translate(-108.96 -176.51)"/><path d="M262.33,341.24h-3.14v5.83h3.14a4.11,4.11,0,0,0,2.69-.76,2.68,2.68,0,0,0,.91-2.16A2.62,2.62,0,0,0,265,342,4.11,4.11,0,0,0,262.33,341.24Z" transform="translate(-108.96 -176.51)"/><path d="M192.7,360a2.84,2.84,0,0,0-.7-2,2.4,2.4,0,0,0-1.88-.78q-2.19,0-4.38,2.7a56.22,56.22,0,0,0-5.5,9.24,18,18,0,0,0,8.84-3.42Q192.7,363,192.7,360Z" transform="translate(-108.96 -176.51)"/><path d="M198.82,375.66q-1.8,0-4.27,3.57c-1.64,2.38-2.47,4.39-2.47,6q0,1.38.9,1.38,1.64,0,4.66-4.38c.94-1.52,1.57-2.58,1.91-3.18a1,1,0,0,1-.9-1,1,1,0,0,0,.9-.6,1.46,1.46,0,0,0,.14-1.2A.82.82,0,0,0,198.82,375.66Z" transform="translate(-108.96 -176.51)"/><path d="M152,390.18a1.5,1.5,0,0,0,.87,1.38,4.55,4.55,0,0,0,2.21.48,9.88,9.88,0,0,0,5.62-2,19.54,19.54,0,0,0-6.35-1.74C152.79,388.32,152,388.94,152,390.18Z" transform="translate(-108.96 -176.51)"/><path d="M246.9,342.6a5,5,0,0,0-1.67-1.13,5.39,5.39,0,0,0-2.08-.4,5.47,5.47,0,0,0-2.08.4,4.8,4.8,0,0,0-1.67,1.13,5.44,5.44,0,0,0-1.11,1.7,6.26,6.26,0,0,0,0,4.35,5.55,5.55,0,0,0,1.11,1.7,4.94,4.94,0,0,0,1.67,1.13,5.46,5.46,0,0,0,2.08.39,5.39,5.39,0,0,0,2.08-.39,5.14,5.14,0,0,0,1.67-1.13,5.21,5.21,0,0,0,1.11-1.7,6.11,6.11,0,0,0,0-4.35A5.11,5.11,0,0,0,246.9,342.6Zm-3.52,4.16-.07.1H243a.24.24,0,0,1-.06-.11.94.94,0,0,1,0-.29,1.32,1.32,0,0,1,0-.28.34.34,0,0,1,.06-.1h.34l.06.1a.9.9,0,0,1,0,.28A.85.85,0,0,1,243.38,346.76Z" transform="translate(-108.96 -176.51)"/><path d="M268.93,370.74a7.24,7.24,0,0,0,2.58-2.58,9.27,9.27,0,0,0,1.15-3,5,5,0,0,0-.11-2.49c-.25-.7-.65-1.05-1.21-1.05q-1.29,0-2.1,1.77a9.63,9.63,0,0,0-.82,4.11,10.63,10.63,0,0,0,.45,2.94A.67.67,0,0,0,268.93,370.74Z" transform="translate(-108.96 -176.51)"/><path d="M396,350.35a4.94,4.94,0,0,0,1.67,1.13,5.48,5.48,0,0,0,2.09.39,5.37,5.37,0,0,0,2.07-.39,5.14,5.14,0,0,0,1.67-1.13,5.41,5.41,0,0,0,1.12-1.7,6.26,6.26,0,0,0,0-4.35,5.29,5.29,0,0,0-1.12-1.7,5,5,0,0,0-1.67-1.13,5.38,5.38,0,0,0-2.07-.4,5.48,5.48,0,0,0-2.09.4A4.8,4.8,0,0,0,396,342.6a5.24,5.24,0,0,0-1.1,1.7,6.11,6.11,0,0,0,0,4.35A5.35,5.35,0,0,0,396,350.35Zm3.53-4.17a.32.32,0,0,1,.05-.09,1.41,1.41,0,0,1,.35,0,.18.18,0,0,1,.05.08,1,1,0,0,1,0,.29,1.32,1.32,0,0,1,0,.28h0a.26.26,0,0,1-.07.11h-.33a.41.41,0,0,1-.06-.11.94.94,0,0,1,0-.29A.85.85,0,0,1,399.55,346.18Z" transform="translate(-108.96 -176.51)"/><path d="M265.73,375.06a9.15,9.15,0,0,0-3,3.3,8.49,8.49,0,0,0-1.13,4.14,7,7,0,0,0,1,4,3.36,3.36,0,0,0,2.95,1.53,4.47,4.47,0,0,0,2.53-.84,15.32,15.32,0,0,0,2.47-2.16,34.48,34.48,0,0,1-4.83-10Z" transform="translate(-108.96 -176.51)"/><path d="M388.26,375.66q-1.8,0-4.27,3.57t-2.46,6c0,.92.29,1.38.89,1.38q1.63,0,4.66-4.38c.94-1.52,1.57-2.58,1.91-3.18a1,1,0,0,1-.9-1,1,1,0,0,0,.9-.6,1.46,1.46,0,0,0,.14-1.2A.82.82,0,0,0,388.26,375.66Z" transform="translate(-108.96 -176.51)"/><path d="M423.2,379.59a4.9,4.9,0,0,0,1.71-3.09c0-.48-.22-.72-.67-.72a4.48,4.48,0,0,0-2.92,1.65,13.53,13.53,0,0,0-2.64,3.87,6.41,6.41,0,0,0,.85.06A5.08,5.08,0,0,0,423.2,379.59Z" transform="translate(-108.96 -176.51)"/><path d="M342,375.66q-1.8,0-4.27,3.57c-1.64,2.38-2.47,4.39-2.47,6q0,1.38.9,1.38,1.63,0,4.66-4.38c.94-1.52,1.57-2.58,1.91-3.18a1,1,0,0,1-.9-1,1,1,0,0,0,.9-.6,1.46,1.46,0,0,0,.14-1.2A.82.82,0,0,0,342,375.66Z" transform="translate(-108.96 -176.51)"/><polygon points="167.3 171.81 172.63 171.81 169.97 165.41 167.3 171.81"/><path d="M454.16,379.3l-.56-1.44a5,5,0,0,0-2.71-2.78c-.5-3.82-3.59-6.4-7.85-6.4a12.58,12.58,0,0,0-3.87.62,5.29,5.29,0,0,0-.9-.08h-4.71a5,5,0,0,0-3.57,1.5,8.93,8.93,0,0,0-5.92-2,13.53,13.53,0,0,0-7.88,2.62,8,8,0,0,0-6.21-2.62,12.53,12.53,0,0,0-3.87.62,5.29,5.29,0,0,0-.9-.08H400.5a4.9,4.9,0,0,0-2.05.44,5,5,0,0,0-2.05-.44h-4.77l-.47,0a9.53,9.53,0,0,0-2.77-.55,4.63,4.63,0,0,0,0-.65v-.3a5,5,0,0,0-.18-1.35,4.94,4.94,0,0,0,.24-1.53v-.6a5,5,0,0,0-5-5h-3.75a5,5,0,0,0,2.64-4.39v-8.63h.38a4.94,4.94,0,0,0,2.88-.92c0,.38-.06.76-.06,1.15a13.56,13.56,0,0,0,1.1,5.44,13.13,13.13,0,0,0,3.09,4.42,14,14,0,0,0,4.56,2.85,15.77,15.77,0,0,0,10.89,0,13.89,13.89,0,0,0,4.56-2.85c.23-.21.44-.45.65-.68a5,5,0,0,0,4.92,4.2h3.91a5,5,0,0,0,5-5v-4.61l5.77-9.62a5,5,0,0,0-4.29-7.57H422a5,5,0,0,0-4.28,2.42l-.21.34-.2-.34a5,5,0,0,0-4.28-2.42h-4.16a5,5,0,0,0-2.94,1l-.66-.29a15.82,15.82,0,0,0-10.91,0,14,14,0,0,0-4.54,2.85,13.26,13.26,0,0,0-2,2.42v-1a5,5,0,0,0-5-5H368.12a4,4,0,0,1-1.68,0h-3.82a5,5,0,0,0-3.73,1.68,5,5,0,0,0-3.73-1.68h-3.91a5,5,0,0,0-5,5v8.64H346v-8.64a5,5,0,0,0-5-5h-3.91a5,5,0,0,0-1.7.32,5,5,0,0,0-1.7-.32H321a4.86,4.86,0,0,1-1.39,0h-3.87a5,5,0,0,0-4.59,3l-.56,1.3-.54-1.28a5,5,0,0,0-4.6-3h-4.23a5,5,0,0,0-3.58,1.53,5,5,0,0,0-3.59-1.53h-3.91a5,5,0,0,0-4.64,3.15l-.09-.19a5,5,0,0,0-4.56-3H277a5,5,0,0,0-4.57,3l-.36.8a10.85,10.85,0,0,0-3.61-2.6,14.53,14.53,0,0,0-5.93-1.17h-7.28a5,5,0,0,0-4,2.05,13.72,13.72,0,0,0-2.67-1.37,15.82,15.82,0,0,0-10.91,0c-.35.14-.68.29-1,.46a5,5,0,0,0-3.18-1.16h-4.32a5,5,0,0,0-3.62,1.56l-.1.1a5,5,0,0,0-3.72-1.66h-3.86a5.14,5.14,0,0,0-1.71.32,5,5,0,0,0-1.7-.32h-12.7a5,5,0,0,0-5,5v11.06a14.32,14.32,0,0,0-6.8-1.63,16.59,16.59,0,0,0-6.75,1.33,16,16,0,0,0-5.68,4.49c-.37.45-.74.92-1.1,1.4a17.55,17.55,0,0,0-1.3-1.52,12.11,12.11,0,0,0-8.91-3.72,10.93,10.93,0,0,0-7.83,3.08A11.36,11.36,0,0,0,155.2,361a14.31,14.31,0,0,0,5.38,11.09,21.21,21.21,0,0,0,5.44,3.36,46.88,46.88,0,0,1-3.37,5.51,32.87,32.87,0,0,0-8.12-1.38,11,11,0,0,0-7.86,2.92,10.14,10.14,0,0,0-3.14,7.54,9.09,9.09,0,0,0,4.11,7.77,13,13,0,0,0,7.45,2.15,21.34,21.34,0,0,0,10-2.49c1.46.66,2.56,1.15,3.31,1.47a51.29,51.29,0,0,0,5.06,1.81,21.06,21.06,0,0,0,6.12,1.13,9.92,9.92,0,0,0,7.76-3.49,11,11,0,0,0,1.62-2.55,8.28,8.28,0,0,0,1.23.1,10,10,0,0,0,4.39-1,8.15,8.15,0,0,0,5.74.84,5.21,5.21,0,0,0,1.37.19h5a5,5,0,0,0,4.22-2.32,7.43,7.43,0,0,0,5.43,2.32,10.74,10.74,0,0,0,5-1.29,8.05,8.05,0,0,0,4.42,1.29,11.77,11.77,0,0,0,5.35-1.34,7.53,7.53,0,0,0,4.31,1.34,12.37,12.37,0,0,0,8-3.36,36.6,36.6,0,0,0,6.87-8.91,5,5,0,0,0,.43-4.23l-.5-1.44a5,5,0,0,0-1.37-2,5.48,5.48,0,0,0,.13-1l.32-.28a9.66,9.66,0,0,0,2.72-4.49,7.76,7.76,0,0,0-.5-5.89,6.59,6.59,0,0,0-5.91-3.56A7.13,7.13,0,0,0,244,361a4.35,4.35,0,0,0-.87-.79h0a15.09,15.09,0,0,0,5.41-1,13.72,13.72,0,0,0,2.67-1.37,5,5,0,0,0,4,2h3.92a5,5,0,0,0,5-4.7l.39-.06a4.87,4.87,0,0,0,.34,1.59,13.59,13.59,0,0,0-2,1.92,15.13,15.13,0,0,0-2.52,4.5,16.19,16.19,0,0,0-.95,5.58c0,.57,0,1.15.08,1.73a22,22,0,0,0-4.81,4.6,15.48,15.48,0,0,0-3.35,9.51,11.22,11.22,0,0,0,3.78,8.85,12.55,12.55,0,0,0,8.46,3,14.57,14.57,0,0,0,7-1.77q.74-.41,1.44-.87c.35.25.69.48,1.05.7a12,12,0,0,0,6.38,1.88,8,8,0,0,0,5.79-2.44,18.78,18.78,0,0,0,2.15-2.55,5,5,0,0,0-3.79-7.82,2.58,2.58,0,0,1-1.15-.56l-.26-.19.07-.13c.68-1.17,1.3-2.3,1.83-3.33l1.35-2.61c.39-.77.71-1.38.94-1.82a5,5,0,0,0-1.84-6.53,9.74,9.74,0,0,0-3.26-1.35,11.72,11.72,0,0,0,.31-2.73,10.43,10.43,0,0,0-.77-4,10.2,10.2,0,0,0-2-3.18,5.9,5.9,0,0,0-.57-.55l.11-.27h1.11l.22.52a5,5,0,0,0,4.61,3.08h4.08a5.05,5.05,0,0,0,.88-.08,5.14,5.14,0,0,0,.88.08h9.43l0,.08a15.85,15.85,0,0,0-2.16,7.79,12,12,0,0,0,2.72,8,10.56,10.56,0,0,0-5.85,3.75,12.83,12.83,0,0,0-2.88,8.27,11.23,11.23,0,0,0,2.9,7.7,11,11,0,0,0,8.5,3.42,15.2,15.2,0,0,0,6.59-1.48,19.1,19.1,0,0,0,5.57-4.19l.3-.31c-.07.7-.11,1.39-.11,2.06,0,3.48,1,6.22,3,8.15A10.22,10.22,0,0,0,325.4,406a11.94,11.94,0,0,0,7.65-2.69c2.49-2,3.74-4.35,3.74-6.87a7.2,7.2,0,0,0-.08-1.05c.35-.13.7-.27,1.05-.44a8.16,8.16,0,0,0,5.74.84,5.21,5.21,0,0,0,1.37.19h5a5,5,0,0,0,4.22-2.32,7.43,7.43,0,0,0,5.43,2.32,10.63,10.63,0,0,0,5-1.3A8,8,0,0,0,369,396a12,12,0,0,0,5.91-1.64,7.47,7.47,0,0,0,4.76,1.64,10,10,0,0,0,4.39-1,8.16,8.16,0,0,0,5.74.84,5.21,5.21,0,0,0,1.37.19h5a5,5,0,0,0,4.22-2.32,7.43,7.43,0,0,0,5.43,2.32,11.19,11.19,0,0,0,5.94-1.82,10.86,10.86,0,0,0,7,2.24,13.63,13.63,0,0,0,4.05-.62,5,5,0,0,0,1.39.2h5a5,5,0,0,0,4.22-2.32,7.43,7.43,0,0,0,5.43,2.32,12.37,12.37,0,0,0,8-3.36,37.78,37.78,0,0,0,6.91-8.88A5,5,0,0,0,454.16,379.3ZM413,338.07l4.48,7.44,4.49-7.44h3.79l-6.48,10.81v6h-3.91v-6l-6.53-10.82ZM391.27,343a8.16,8.16,0,0,1,1.93-2.75,8.87,8.87,0,0,1,2.92-1.83,10.05,10.05,0,0,1,3.66-.64,10.34,10.34,0,0,1,3.66.63,8.88,8.88,0,0,1,2.91,1.81,8.3,8.3,0,0,1,1.93,2.76,9.1,9.1,0,0,1,0,6.95,8,8,0,0,1-1.93,2.77,8.74,8.74,0,0,1-2.91,1.82,10.27,10.27,0,0,1-3.64.63,9.94,9.94,0,0,1-3.67-.65,8.89,8.89,0,0,1-2.93-1.82,8.1,8.1,0,0,1-1.93-2.76,8.59,8.59,0,0,1-.69-3.46A8.48,8.48,0,0,1,391.27,343Zm-173.41-4.94h3.86v7.84l7.44-7.84h4.32l-6.94,7.5,7.37,9.3h-4.56l-5.4-6.59-2.23,2.33v4.26h-3.86Zm10.62,21.72a5.12,5.12,0,0,0,.87.08h3.3a5,5,0,0,0-2.13,2.21l-.35.74a4.88,4.88,0,0,0-1.66.61,5.17,5.17,0,0,0,.23-1.51v-.6A4.82,4.82,0,0,0,228.48,359.79Zm-3.56,9.48v.51l-.24-.13Zm-23.17-31.2h12.7v3.12h-8.83v3.63h7.8v3.05h-7.8v3.88h9.14v3.12h-13Zm1.73,21.87v-.07h10.06q-2.16,4.26-5.1,9.57a5.2,5.2,0,0,0-1.48-.22h-4.77l-.47,0a8.66,8.66,0,0,0-1.63-.42A13.49,13.49,0,0,0,203.48,359.94Zm-25,12.66c-.52,1-1.22,2.4-2.08,4.2A47,47,0,0,1,169,388.14a40.85,40.85,0,0,0,10.61,2,2.57,2.57,0,0,0,2-.81,2.34,2.34,0,0,0,.62-1.8,7.91,7.91,0,0,0-.37-1.83.81.81,0,0,1,.62-.24c.6,0,1.16.57,1.69,1.71a8.24,8.24,0,0,1,.78,3.45,6.73,6.73,0,0,1-1.49,4.56,4.94,4.94,0,0,1-4,1.74,16.48,16.48,0,0,1-4.63-.9,46.29,46.29,0,0,1-4.55-1.62q-1.65-.72-5.64-2.52a16.77,16.77,0,0,1-9.66,3.12,8.1,8.1,0,0,1-4.65-1.29,4.12,4.12,0,0,1-1.91-3.63,5.19,5.19,0,0,1,1.6-3.93,6.09,6.09,0,0,1,4.4-1.53q3,0,9.94,2.1a51.73,51.73,0,0,0,8.36-13.92.72.72,0,0,1,.09-.24.9.9,0,0,0,.08-.24,18.33,18.33,0,0,1-9.18-4A9.33,9.33,0,0,1,160.2,361a6.53,6.53,0,0,1,1.69-4.89,5.91,5.91,0,0,1,4.32-1.65,7,7,0,0,1,5.3,2.19c1.41,1.46,2.11,2.75,2.11,3.87a.7.7,0,0,1-.2.54.56.56,0,0,1-.36.18h-.17a6.36,6.36,0,0,0-.48-.72,6.11,6.11,0,0,0-1.35-1.14,3.81,3.81,0,0,0-2.21-.72,2.29,2.29,0,0,0-1.86.81,2.94,2.94,0,0,0-.67,1.95,6.35,6.35,0,0,0,2.25,4.74,11.71,11.71,0,0,0,5.89,2.82q2.07-4.68,3.56-7.47a29.5,29.5,0,0,1,3.34-5,11,11,0,0,1,3.88-3.12,11.47,11.47,0,0,1,4.71-.9,9.2,9.2,0,0,1,6,2.07,6.63,6.63,0,0,1,2.52,5.37,8.86,8.86,0,0,1-2.69,6.21,19,19,0,0,1-7.27,4.56A31.41,31.41,0,0,1,178.5,372.6Zm6.93,4.18a19.19,19.19,0,0,0-1.26,2.15c-.27.53-.5,1.06-.72,1.58a6.13,6.13,0,0,0-.91-.07,5.91,5.91,0,0,0-2.68.63c.36-.69.72-1.39,1.07-2.11.27-.57.53-1.09.76-1.58A34.71,34.71,0,0,0,185.43,376.78Zm54.76,12a7.58,7.58,0,0,1-4.77,2.16,2.57,2.57,0,0,1-2-.93,3.85,3.85,0,0,1-.81-2.61,2,2,0,0,1,0-.25,16.81,16.81,0,0,1-1.7,1.63,8.41,8.41,0,0,1-5.17,2.16,2.9,2.9,0,0,1-2.21-.93,3.67,3.67,0,0,1-.87-2.61,1.79,1.79,0,0,1,0-.23,17.4,17.4,0,0,1-1.59,1.61,7.58,7.58,0,0,1-4.78,2.16,2.46,2.46,0,0,1-2-.93,3.89,3.89,0,0,1-.79-2.61,9.22,9.22,0,0,1,1.27-4.2,47.85,47.85,0,0,1,2.52-4.29,6.92,6.92,0,0,0,1.27-2.43q0-.48-.57-.48a5.06,5.06,0,0,0-2.72,1.35A17.78,17.78,0,0,0,212,381q-3.19,5.64-5.33,10h-5c.4-.65.76-1.27,1.15-1.91a7.27,7.27,0,0,1-4.46,1.91,2.49,2.49,0,0,1-1.91-.87,3.74,3.74,0,0,1-.84-2.43c-1.79,2.2-3.61,3.3-5.44,3.3a2.62,2.62,0,0,1-2.25-1.2,5,5,0,0,1-.84-2.94,12.63,12.63,0,0,1,1.54-5.64,16.25,16.25,0,0,1,4.24-5.28,8.68,8.68,0,0,1,5.56-2.22,3.31,3.31,0,0,1,3.2,1.68c.18-.4.37-.78.56-1.14H207v.6c-.45.6-1,1.36-1.63,2.28s-1.49,2.34-2.55,4.26a10.37,10.37,0,0,0-1.6,4.08c0,.68.24,1,.73,1q1.23,0,3.06-2a33.48,33.48,0,0,0,2.55-3.29q6.82-11.67,10.89-19.81h5.33v.6q-4.16,6.24-8.7,13.86a9.07,9.07,0,0,1,5.5-2.1c2,0,2.92.84,2.92,2.52q0,1-2.13,4.44t-2.13,4.8q0,1,.78,1c.79,0,1.79-.68,3-2a29.23,29.23,0,0,0,2.14-2.74c.68-1.13,1.5-2.47,2.49-4q2.63-4.2,4.6-7.8h-2.3v-.3l1.12-1.8h2.24q.9-1.74,1.74-3.48h5.28v.6c-.52.76-1.18,1.72-2,2.88h1.9v.3l-1.12,1.8H237q-8.7,13.26-8.7,15.6a1.07,1.07,0,0,0,.25.72.76.76,0,0,0,.59.3c1.12,0,2.34-.68,3.65-2a27,27,0,0,0,2.18-2.6l.82-1.36q1.83-3,3.45-6.24H244v.6c-.44.6-1,1.36-1.62,2.28s-1.49,2.34-2.56,4.26a10.54,10.54,0,0,0-1.6,4.08c0,.68.25,1,.73,1q1.25,0,3.06-2a33.9,33.9,0,0,0,3.51-4.74l.51,1.44A32.52,32.52,0,0,1,240.19,388.8Zm-3.9-29.54a4.5,4.5,0,0,0,.65-.42c.25.12.5.24.77.34l.24.08Zm7.35,7.4a3,3,0,0,1,2-.9,1.57,1.57,0,0,1,1.49.9,2.85,2.85,0,0,1,.11,2.19c0,.17-.11.33-.17.49a2.05,2.05,0,0,1,0,.87.21.21,0,0,1,0,.07l-.35-.25a4.8,4.8,0,0,1-.83,1,2.93,2.93,0,0,1-2,.93,1.56,1.56,0,0,1-1.48-.93,3,3,0,0,1-.12-2.22A4.72,4.72,0,0,1,243.64,366.66Zm8-16.72a8,8,0,0,1-1.93,2.77,8.68,8.68,0,0,1-2.92,1.82,10.18,10.18,0,0,1-3.63.63,9.94,9.94,0,0,1-3.67-.65,8.89,8.89,0,0,1-2.93-1.82,8.1,8.1,0,0,1-1.93-2.76,8.59,8.59,0,0,1-.69-3.46,8.48,8.48,0,0,1,.69-3.46,8.16,8.16,0,0,1,1.93-2.75,8.93,8.93,0,0,1,2.91-1.83,10.13,10.13,0,0,1,3.66-.64,10.26,10.26,0,0,1,3.66.63,8.82,8.82,0,0,1,2.92,1.81,8.3,8.3,0,0,1,1.93,2.76,9.1,9.1,0,0,1,0,6.95Zm10.89.3h-3.36v4.63h-3.92v-16.8h7.28a9.36,9.36,0,0,1,3.88.74,5.57,5.57,0,0,1,2.52,2.1,6.36,6.36,0,0,1,0,6.49,5.83,5.83,0,0,1-2.52,2.1A9.36,9.36,0,0,1,262.55,350.24Zm15.86,22.48a2.2,2.2,0,0,1,1.27-.81,3.21,3.21,0,0,1,2.27.69q-.33.66-.93,1.8L279.68,377c-.51,1-1.08,2-1.72,3.12a35,35,0,0,1-2.13,3.27,19.52,19.52,0,0,0,3.76,3.63,7.31,7.31,0,0,0,3.71,1.47,14.65,14.65,0,0,1-1.57,1.86,3.08,3.08,0,0,1-2.25,1,7.09,7.09,0,0,1-3.76-1.14,15.11,15.11,0,0,1-3.48-3,17.36,17.36,0,0,1-4,3,9.51,9.51,0,0,1-4.58,1.17,7.63,7.63,0,0,1-5.19-1.77,6.32,6.32,0,0,1-2-5.07,10.54,10.54,0,0,1,2.33-6.48,18.63,18.63,0,0,1,6.37-5.16,5.68,5.68,0,0,1-.28-1.2,13.94,13.94,0,0,1-.34-3,11.22,11.22,0,0,1,.65-3.87,10.26,10.26,0,0,1,1.68-3,8,8,0,0,1,2.36-2,5.73,5.73,0,0,1,2.78-.72,4.42,4.42,0,0,1,3.23,1.41,5.55,5.55,0,0,1,1.43,3.75,7,7,0,0,1-.56,2.79,8.56,8.56,0,0,1-1.52,2.34,12.42,12.42,0,0,1-2.24,1.92,16.48,16.48,0,0,1-2.7,1.47,35,35,0,0,0,1.94,4.17,42.57,42.57,0,0,0,2.38,3.93c.56-.88,1.08-1.76,1.55-2.64s.9-1.69,1.29-2.43l1-1.92C278.05,373.35,278.26,373,278.41,372.72Zm5.9-17.85-1.49-3.6H275l-1.5,3.6h-4l7.47-16.8h3.84l7.53,16.8Zm83.81-16.8h14.64v3.17h-5.37v13.63H373.5V341.24h-5.38Zm-16.87,0h3.91v9.29a5,5,0,0,0,1,3.45,4.1,4.1,0,0,0,5.5,0,5,5,0,0,0,1-3.45v-9.29h3.82v9.39a7.69,7.69,0,0,1-2,5.71,8.83,8.83,0,0,1-11.17,0,7.69,7.69,0,0,1-2-5.71Zm1.3,20.66a13.65,13.65,0,0,0,6.31,1.43,12.51,12.51,0,0,0,9.08-3.43c.24-.24.47-.5.69-.76a5,5,0,0,0,4.87,3.9h2.34a5,5,0,0,0-2.13,2.21l-.36.74a5,5,0,0,0-3.36,2.27l-1.13,1.8a5.06,5.06,0,0,0-.75,2.65v.24a8.68,8.68,0,0,0-4.38-1.1,12.64,12.64,0,0,0-3.88.62,5.17,5.17,0,0,0-.89-.08h-4.71a4.9,4.9,0,0,0-2.05.44,5,5,0,0,0-2.05-.44h-4.77l-.47,0a9.49,9.49,0,0,0-3.06-.55,19.64,19.64,0,0,0,.5-4.43,15.84,15.84,0,0,0-.62-4.39h7.67A5,5,0,0,0,352.55,358.73Zm-15.44-20.66H341v13.64h8.38v3.16H337.11Zm-38.05,7.56.46,1.08h-.46Zm-8.91,9.24v-16.8h3.91v13.64h8.37v3.16Zm39.74,44.55A6.89,6.89,0,0,1,325.4,401a5.21,5.21,0,0,1-3.79-1.44c-1-1-1.49-2.48-1.49-4.56a19,19,0,0,1,.95-5.61c.64-2,1.28-4,1.94-5.85a15.29,15.29,0,0,0,1-4.86,3.34,3.34,0,0,0-.48-2,1.48,1.48,0,0,0-1.26-.63,1.6,1.6,0,0,0-1.4.75,1.66,1.66,0,0,0,0,1.77.93.93,0,0,1-1.52-.3q-2.41,4.14-4.21,6.78a38.67,38.67,0,0,1-3.81,4.77,14.26,14.26,0,0,1-4.1,3.12,10.19,10.19,0,0,1-4.44,1,6.16,6.16,0,0,1-4.8-1.77,6.28,6.28,0,0,1-1.6-4.35,7.92,7.92,0,0,1,1.77-5.13,5.62,5.62,0,0,1,4.58-2.19.64.64,0,0,1,.42.12.34.34,0,0,1,.14.24l.06.12-.43.3a3,3,0,0,0-.64.9,3.35,3.35,0,0,0-.39,1.62,3.08,3.08,0,0,0,.84,2.28,3,3,0,0,0,2.19.84q2.58,0,5.19-2.76a60.09,60.09,0,0,0,6.82-9.9q2.29-3.84,4.07-7.08t2.38-4.5l.57-1.32h5.27v.6a101.62,101.62,0,0,0-7,11.28,8.67,8.67,0,0,0,2.13.24,8.31,8.31,0,0,0,5.86-2.64,9.17,9.17,0,0,0,2.73-6.9,7.74,7.74,0,0,0-2.87-6.27,11.67,11.67,0,0,0-7.69-2.37,13.84,13.84,0,0,0-9.31,3.42q-4,3.42-4,6.84a3.1,3.1,0,0,0,.62,2,2.29,2.29,0,0,0,1.91.78,5.28,5.28,0,0,0,3.5-1.29,4.85,4.85,0,0,0,1.77-2.25c.49,0,.73.22.73.78a5.56,5.56,0,0,1-.33,1.56,14.32,14.32,0,0,1-1.07,2.34,14,14,0,0,1-1.74,2.46,8.41,8.41,0,0,1-2.58,1.92,7.48,7.48,0,0,1-3.37.78,5.86,5.86,0,0,1-4.35-1.8,6.88,6.88,0,0,1-1.77-5,10.86,10.86,0,0,1,1.52-5.34,17.89,17.89,0,0,1,4.09-4.89,19.68,19.68,0,0,1,4.14-2.64h-3.62l-7.28-16.8h4.23l5.11,12,5.18-12h3.87l-7.21,16.67a20.6,20.6,0,0,1,2-.83,22.56,22.56,0,0,1,6.64-1.36V338.07h12.7v3.12h-8.84v3.63h7.8v3.05h-7.8v3.88H334v3.12h-2.27a14.9,14.9,0,0,1,1.39,1,10.3,10.3,0,0,1,4.21,8.43,11.19,11.19,0,0,1-2.89,8.07,11.55,11.55,0,0,1-7.83,3.39,5.51,5.51,0,0,1,1.4,4.2,37.17,37.17,0,0,1-.89,5.94,36.07,36.07,0,0,0-.9,6.66,4.89,4.89,0,0,0,.84,3.06,2.59,2.59,0,0,0,2.13,1.08,3.63,3.63,0,0,0,1.29-.21,1.52,1.52,0,0,0,.73-.45l.17-.18q.39.06.39.6C331.79,397.38,331.16,398.38,329.89,399.42ZM443.61,388.8a7.58,7.58,0,0,1-4.78,2.16,2.46,2.46,0,0,1-2-.93,4,4,0,0,1-.79-2.61,9.35,9.35,0,0,1,1.27-4.2,47.85,47.85,0,0,1,2.52-4.29,6.74,6.74,0,0,0,1.27-2.43c0-.32-.19-.48-.56-.48a5,5,0,0,0-2.73,1.35,17.78,17.78,0,0,0-3.34,3.63q-3.09,5.34-5.33,10h-5c.53-.85,1-1.71,1.55-2.56a10.67,10.67,0,0,1-7,3q-5.5,0-5.5-5.52h0a20.32,20.32,0,0,1-2.69,2.95,7.58,7.58,0,0,1-4.78,2.16,2.46,2.46,0,0,1-2-.93,3.89,3.89,0,0,1-.79-2.61,9.35,9.35,0,0,1,1.27-4.2,47.85,47.85,0,0,1,2.52-4.29,6.74,6.74,0,0,0,1.27-2.43q0-.48-.57-.48a5.06,5.06,0,0,0-2.72,1.35,17.78,17.78,0,0,0-3.34,3.63q-3.09,5.34-5.33,10h-5c.4-.64.78-1.28,1.17-1.92a7.33,7.33,0,0,1-4.48,1.92,2.49,2.49,0,0,1-1.91-.87,3.74,3.74,0,0,1-.84-2.43c-1.79,2.2-3.61,3.3-5.44,3.3a2.62,2.62,0,0,1-2.25-1.2,5,5,0,0,1-.84-2.94c0-.17,0-.35,0-.52a17.72,17.72,0,0,1-2.45,2.5A8.41,8.41,0,0,1,369,391a2.88,2.88,0,0,1-2.21-.93,3.67,3.67,0,0,1-.87-2.61,1.79,1.79,0,0,1,0-.23,16.24,16.24,0,0,1-1.6,1.61,7.54,7.54,0,0,1-4.77,2.16,2.46,2.46,0,0,1-2-.93,3.89,3.89,0,0,1-.79-2.61,9.32,9.32,0,0,1,1.26-4.2q1.28-2.4,2.53-4.29a6.82,6.82,0,0,0,1.26-2.43c0-.32-.18-.48-.56-.48a5.06,5.06,0,0,0-2.72,1.35A17.5,17.5,0,0,0,355.2,381q-3.09,5.34-5.33,10h-5c.4-.64.78-1.28,1.17-1.92a7.33,7.33,0,0,1-4.48,1.92,2.49,2.49,0,0,1-1.91-.87,3.74,3.74,0,0,1-.84-2.43q-2.7,3.3-5.44,3.3a2.62,2.62,0,0,1-2.25-1.2,5,5,0,0,1-.84-2.94,12.63,12.63,0,0,1,1.54-5.64,16.25,16.25,0,0,1,4.24-5.28,8.68,8.68,0,0,1,5.56-2.22,3.31,3.31,0,0,1,3.2,1.68c.18-.4.37-.78.56-1.14h4.77v.6c-.45.6-1,1.36-1.63,2.28s-1.49,2.34-2.55,4.26a10.37,10.37,0,0,0-1.6,4.08c0,.68.24,1,.73,1q1.23,0,3.06-2a32.21,32.21,0,0,0,2.09-2.63c1.38-2.51,2.72-5,4-7.57H359v.6c-.11.2-.28.46-.5.78a8.89,8.89,0,0,1,5.27-1.92c1.95,0,2.92.84,2.92,2.52q0,1-2.13,4.44c-1.42,2.32-2.14,3.92-2.14,4.8,0,.68.27,1,.79,1q1.18,0,3-2a29.52,29.52,0,0,0,2.16-2.75q1-1.69,2.47-4,2.64-4.2,4.61-7.8h-2.3v-.3l1.12-1.8h2.24q.9-1.74,1.74-3.48h5.28v.6c-.52.76-1.18,1.72-2,2.88h1.9v.3l-1.12,1.8h-2.13q-8.7,13.26-8.7,15.6a1.07,1.07,0,0,0,.25.72.76.76,0,0,0,.59.3c1.12,0,2.34-.68,3.65-2,.47-.49.92-1,1.37-1.56a15,15,0,0,1,.73-1.68,16.25,16.25,0,0,1,4.24-5.28,8.68,8.68,0,0,1,5.56-2.22,3.31,3.31,0,0,1,3.2,1.68c.18-.4.37-.78.56-1.14h4.77v.6c-.45.6-1,1.36-1.63,2.28s-1.49,2.34-2.55,4.26a10.37,10.37,0,0,0-1.6,4.08c0,.68.24,1,.73,1q1.23,0,3.06-2a32.41,32.41,0,0,0,2.09-2.64c1.39-2.5,2.73-5,4-7.56h4.71v.6c-.11.2-.28.46-.5.78a8.92,8.92,0,0,1,5.27-1.92c1.95,0,2.92.84,2.92,2.52q0,1-2.13,4.44t-2.13,4.8q0,1,.78,1c.79,0,1.79-.68,3-2,.43-.49.86-1,1.28-1.56a14.26,14.26,0,0,1,1-2.55,14,14,0,0,1,4.07-4.74,8.77,8.77,0,0,1,5.25-1.89,4,4,0,0,1,2.84,1,3.11,3.11,0,0,1,1,2.31,5.72,5.72,0,0,1-2.42,4.53,9.43,9.43,0,0,1-6.12,1.95,8,8,0,0,1-1.4-.12,8,8,0,0,0-.11,1.32c0,1.8.82,2.7,2.47,2.7a9.41,9.41,0,0,0,5.92-2.46,23,23,0,0,0,3.51-3.55c1.3-2.36,2.56-4.74,3.76-7.13h4.71v.6c-.11.2-.28.46-.5.78a8.92,8.92,0,0,1,5.27-1.92c1.95,0,2.92.84,2.92,2.52q0,1-2.13,4.44t-2.13,4.8q0,1,.78,1c.79,0,1.79-.68,3-2a32.21,32.21,0,0,0,3.45-4.74l.56,1.44A33.53,33.53,0,0,1,443.61,388.8Z" transform="translate(-108.96 -176.51)"/></svg>