<svg xmlns="http://www.w3.org/2000/svg" viewBox="0 0 378.43 240.94"><defs><style>.cls-1,.cls-3,.cls-4,.cls-6,.cls-8{fill:none;stroke:#231f20;}.cls-1{stroke-miterlimit:10;stroke-width:5.19px;}.cls-2{fill:#231f20;}.cls-3{stroke-width:6.64px;}.cls-4{stroke-width:6.71px;}.cls-5{fill:#010101;}.cls-6,.cls-8{stroke-linejoin:round;}.cls-6{stroke-width:6px;}.cls-7{fill:#e24d4b;}.cls-8{stroke-width:10px;}</style></defs><g id="normal_br"><path class="cls-1" d="M331,318.85q-13.47,0-26.94,0c-4.12,0-5.42-1.39-5.45-5.84,0-4.6-.06-9.2,0-13.8.05-3.73,1.46-5.34,4.83-5.34,18.5,0,41.93,0,60.44,0,3.27,0,4.66,1.59,4.7,5.12.05,4.8,0,9.6,0,14.4,0,3.95-1.35,5.45-4.9,5.46C354.46,318.87,340.29,318.85,331,318.85Z" transform="translate(-108.25 -176.87)"/><path class="cls-2" d="M235,303.79a23.14,23.14,0,1,1-23-23.1A23,23,0,0,1,235,303.79Zm-13.17-.08a9.93,9.93,0,1,0-9.9,10.09A10.05,10.05,0,0,0,221.82,303.71Z" transform="translate(-108.25 -176.87)"/><path class="cls-2" d="M292.3,303.68a23.16,23.16,0,1,1-23.4-23A23,23,0,0,1,292.3,303.68Zm-13.19.08a9.93,9.93,0,1,0-10,10A10,10,0,0,0,279.11,303.76Z" transform="translate(-108.25 -176.87)"/><path class="cls-2" d="M385.94,303.8a23.18,23.18,0,1,1,46.35,0,23.18,23.18,0,0,1-46.35,0Zm23.28,9.76a9.93,9.93,0,1,0-10.07-9.84A9.93,9.93,0,0,0,409.22,313.56Z" transform="translate(-108.25 -176.87)"/><path class="cls-2" d="M456,248.36l-5.66-3.63a6.24,6.24,0,0,1-2.7-3.71l-8.56-32.55,9.09-.27s-2.36-13-4.59-19.55a11.51,11.51,0,0,0-8.14-7.62s-45.91-4.16-61.9-4.16S359,189.07,359,189.07v80.12l0,25.6h10.17v19.93h12.69l-.11-9.54c0-.45,0-.9,0-1.36a27.42,27.42,0,1,1,54.83,0c0,.47-.08,10.43-.11,10.91H446.8a8.75,8.75,0,0,0,4.66-1.34l2.54-1.62a7.64,7.64,0,0,0,3.64-6.43V251.88A4.67,4.67,0,0,0,456,248.36ZM436.08,242l-46.19-.49a3.59,3.59,0,0,1-3.51-3.15l-3.45-28.11a3.58,3.58,0,0,1,3.7-4L429.14,208a3.57,3.57,0,0,1,3.31,2.66l7.13,26.84A3.59,3.59,0,0,1,436.08,242Z" transform="translate(-108.25 -176.87)"/><path class="cls-2" d="M250.47,283.23H231.08l2.84,3.55a3.26,3.26,0,0,0,2.54,1.22h8.39a3.25,3.25,0,0,0,2.45-1.12Z" transform="translate(-108.25 -176.87)"/><path class="cls-3" d="M437.63,410.42s23.27-.15,27.84-.15c17,0,17.89-6.39,17.89-15.14s-2.08-14.5-17-14.5c-7.92,0-8.83-12.13,0-12.13,11.54,0,11-5,11-7.73,0-7.47-11-7.39-11-7.39h-33" transform="translate(-108.25 -176.87)"/><path class="cls-4" d="M154.62,254.75h-26s-9.84-.37-9.84,10.26c0,4,.1,12.52,9.84,12.52,8.83,0,7.92,16,0,16s-17,3.74-17,20.22.91,28.52,17.89,28.52h53.9" transform="translate(-108.25 -176.87)"/><path class="cls-5" d="M343.06,414.81a3.87,3.87,0,0,1-2.11-.59,4,4,0,0,1-1.47-1.69,6.9,6.9,0,0,1,0-5.4,4.06,4.06,0,0,1,1.47-1.69,4.15,4.15,0,0,1,4.23,0,4.06,4.06,0,0,1,1.47,1.69,7,7,0,0,1,0,5.4,4,4,0,0,1-1.47,1.69A3.91,3.91,0,0,1,343.06,414.81Zm0-1.87a1.6,1.6,0,0,0,1-.32,2.17,2.17,0,0,0,.66-1,6.68,6.68,0,0,0,0-3.55,2.12,2.12,0,0,0-.66-1,1.65,1.65,0,0,0-2,0,2.21,2.21,0,0,0-.67,1,6.43,6.43,0,0,0,0,3.55,2.26,2.26,0,0,0,.67,1A1.61,1.61,0,0,0,343.06,412.94Z" transform="translate(-108.25 -176.87)"/><path class="cls-5" d="M348.15,412.62v-1.5l4.54-6.09H355l-4.42,6.09-1.1-.31h7.57v1.81Zm5.18,2v-2l.07-1.81V409h2.1v5.63Z" transform="translate(-108.25 -176.87)"/><path class="cls-5" d="M361.85,414.81a3.87,3.87,0,0,1-2.11-.59,4,4,0,0,1-1.47-1.69,7,7,0,0,1,0-5.4,4.06,4.06,0,0,1,1.47-1.69,4.15,4.15,0,0,1,4.23,0,4.06,4.06,0,0,1,1.47,1.69,6.9,6.9,0,0,1,0,5.4,4,4,0,0,1-1.47,1.69A3.86,3.86,0,0,1,361.85,414.81Zm0-1.87a1.58,1.58,0,0,0,1-.32,2.17,2.17,0,0,0,.66-1,6.68,6.68,0,0,0,0-3.55,2.12,2.12,0,0,0-.66-1,1.58,1.58,0,0,0-1-.32,1.56,1.56,0,0,0-1,.32,2.13,2.13,0,0,0-.67,1,6.43,6.43,0,0,0,0,3.55,2.19,2.19,0,0,0,.67,1A1.56,1.56,0,0,0,361.85,412.94Z" transform="translate(-108.25 -176.87)"/><path class="cls-5" d="M372.43,414.64v-8.79l1,1h-2.88V405h4.15v9.61Z" transform="translate(-108.25 -176.87)"/><path class="cls-5" d="M380.32,414.81a5.72,5.72,0,0,1-2.13-.36,3.17,3.17,0,0,1-1.4-1,2.53,2.53,0,0,1-.51-1.58,2.34,2.34,0,0,1,.49-1.51,3.12,3.12,0,0,1,1.41-.95,7.1,7.1,0,0,1,4.28,0,3.16,3.16,0,0,1,1.41,1,2.36,2.36,0,0,1,.5,1.5,2.59,2.59,0,0,1-.5,1.58,3.24,3.24,0,0,1-1.42,1A5.8,5.8,0,0,1,380.32,414.81Zm0-4.62a5.75,5.75,0,0,1-1.95-.3,2.85,2.85,0,0,1-1.29-.89,2.19,2.19,0,0,1-.46-1.41,2.35,2.35,0,0,1,.47-1.45,3,3,0,0,1,1.3-.94,5.68,5.68,0,0,1,3.87,0,3,3,0,0,1,1.3.94,2.35,2.35,0,0,1,.47,1.45,2.25,2.25,0,0,1-.46,1.41,2.74,2.74,0,0,1-1.29.89A5.81,5.81,0,0,1,380.32,410.19Zm0,3a2.09,2.09,0,0,0,1.32-.37,1.21,1.21,0,0,0,.49-1,1.18,1.18,0,0,0-.49-1,2.16,2.16,0,0,0-1.32-.37,2.2,2.2,0,0,0-1.32.37,1.19,1.19,0,0,0-.48,1,1.23,1.23,0,0,0,.48,1A2.13,2.13,0,0,0,380.32,413.17Zm0-4.28a1.75,1.75,0,0,0,1.1-.32,1.14,1.14,0,0,0,0-1.76,1.78,1.78,0,0,0-1.09-.31,1.75,1.75,0,0,0-1.08.31,1.07,1.07,0,0,0-.41.89,1,1,0,0,0,.4.87A1.72,1.72,0,0,0,380.32,408.89Z" transform="translate(-108.25 -176.87)"/><path class="cls-5" d="M385.32,414.64V413.2l3.71-3.5a4.36,4.36,0,0,0,.65-.71,2,2,0,0,0,.28-.58,1.82,1.82,0,0,0,.07-.5,1.08,1.08,0,0,0-.39-.88,1.77,1.77,0,0,0-1.15-.32,2.64,2.64,0,0,0-1.13.25,2.4,2.4,0,0,0-.86.73l-1.61-1a3.72,3.72,0,0,1,1.53-1.31,5.13,5.13,0,0,1,2.28-.48,4.78,4.78,0,0,1,1.88.34,2.86,2.86,0,0,1,1.26,1,2.61,2.61,0,0,1,.44,1.51,3.25,3.25,0,0,1-.13.92,3.36,3.36,0,0,1-.47,1,7,7,0,0,1-1,1.14l-3.08,2.89-.42-.8h5.44v1.81Z" transform="translate(-108.25 -176.87)"/><path class="cls-5" d="M397.63,414.81a3.87,3.87,0,0,1-2.11-.59,4,4,0,0,1-1.47-1.69,6.9,6.9,0,0,1,0-5.4,4.06,4.06,0,0,1,1.47-1.69,4.15,4.15,0,0,1,4.23,0,4.06,4.06,0,0,1,1.47,1.69,7,7,0,0,1,0,5.4,4,4,0,0,1-1.47,1.69A3.91,3.91,0,0,1,397.63,414.81Zm0-1.87a1.6,1.6,0,0,0,1-.32,2.17,2.17,0,0,0,.66-1,6.68,6.68,0,0,0,0-3.55,2.12,2.12,0,0,0-.66-1,1.65,1.65,0,0,0-1.95,0,2.21,2.21,0,0,0-.67,1,6.43,6.43,0,0,0,0,3.55,2.26,2.26,0,0,0,.67,1A1.61,1.61,0,0,0,397.63,412.94Z" transform="translate(-108.25 -176.87)"/><path class="cls-5" d="M410,414.81a7.39,7.39,0,0,1-2-.27,5.17,5.17,0,0,1-1.69-.78l.88-1.69a4.39,4.39,0,0,0,1.26.64,4.64,4.64,0,0,0,1.48.24,2.3,2.3,0,0,0,1.32-.33,1.07,1.07,0,0,0,.49-.93,1.1,1.1,0,0,0-.2-.66,1.28,1.28,0,0,0-.69-.43,4.42,4.42,0,0,0-1.36-.16h-2.45l.48-5.41h5.88v1.78h-5.08l1.15-1-.35,3.87-1.14-1h2a5.62,5.62,0,0,1,2.29.39,2.65,2.65,0,0,1,1.27,1.06,2.94,2.94,0,0,1,.41,1.53,3,3,0,0,1-.43,1.57,3,3,0,0,1-1.31,1.17A5.11,5.11,0,0,1,410,414.81Z" transform="translate(-108.25 -176.87)"/><path class="cls-5" d="M414.79,412.62v-1.5l4.53-6.09h2.34l-4.43,6.09-1.1-.31h7.57v1.81Zm5.18,2v-2l.06-1.81V409h2.11v5.63Z" transform="translate(-108.25 -176.87)"/><path class="cls-5" d="M427.69,404.86a4.66,4.66,0,0,1,2.3.54,3.57,3.57,0,0,1,1.48,1.61,6.71,6.71,0,0,1-.11,5.43,4.23,4.23,0,0,1-1.72,1.76,5.16,5.16,0,0,1-2.56.61,6.26,6.26,0,0,1-1.45-.17,4.31,4.31,0,0,1-1.21-.49l.81-1.64a2.29,2.29,0,0,0,.86.38,4.19,4.19,0,0,0,1,.1,2.59,2.59,0,0,0,2-.76,3.09,3.09,0,0,0,.74-2.23c0-.17,0-.35,0-.55s0-.4-.06-.61l.6.58a2.51,2.51,0,0,1-.66.9,2.81,2.81,0,0,1-1,.55,3.83,3.83,0,0,1-1.26.19,3.79,3.79,0,0,1-1.67-.37,3.06,3.06,0,0,1-1.2-1.05,2.84,2.84,0,0,1-.44-1.58,3,3,0,0,1,.48-1.7,3.26,3.26,0,0,1,1.32-1.11A4.3,4.3,0,0,1,427.69,404.86Zm.13,1.66a2,2,0,0,0-.84.17,1.3,1.3,0,0,0-.56.5,1.5,1.5,0,0,0,.24,1.81,1.76,1.76,0,0,0,1.19.39,1.86,1.86,0,0,0,.87-.19,1.49,1.49,0,0,0,.57-.51,1.37,1.37,0,0,0,.21-.75,1.34,1.34,0,0,0-.19-.72,1.29,1.29,0,0,0-.57-.51A2,2,0,0,0,427.82,406.52Z" transform="translate(-108.25 -176.87)"/><path class="cls-6" d="M343.06,414.81a3.87,3.87,0,0,1-2.11-.59,4,4,0,0,1-1.47-1.69,6.9,6.9,0,0,1,0-5.4,4.06,4.06,0,0,1,1.47-1.69,4.15,4.15,0,0,1,4.23,0,4.06,4.06,0,0,1,1.47,1.69,7,7,0,0,1,0,5.4,4,4,0,0,1-1.47,1.69A3.91,3.91,0,0,1,343.06,414.81Zm0-1.87a1.6,1.6,0,0,0,1-.32,2.17,2.17,0,0,0,.66-1,6.68,6.68,0,0,0,0-3.55,2.12,2.12,0,0,0-.66-1,1.65,1.65,0,0,0-2,0,2.21,2.21,0,0,0-.67,1,6.43,6.43,0,0,0,0,3.55,2.26,2.26,0,0,0,.67,1A1.61,1.61,0,0,0,343.06,412.94Z" transform="translate(-108.25 -176.87)"/><path class="cls-6" d="M348.15,412.62v-1.5l4.54-6.09H355l-4.42,6.09-1.1-.31h7.57v1.81Zm5.18,2v-2l.07-1.81V409h2.1v5.63Z" transform="translate(-108.25 -176.87)"/><path class="cls-6" d="M361.85,414.81a3.87,3.87,0,0,1-2.11-.59,4,4,0,0,1-1.47-1.69,7,7,0,0,1,0-5.4,4.06,4.06,0,0,1,1.47-1.69,4.15,4.15,0,0,1,4.23,0,4.06,4.06,0,0,1,1.47,1.69,6.9,6.9,0,0,1,0,5.4,4,4,0,0,1-1.47,1.69A3.86,3.86,0,0,1,361.85,414.81Zm0-1.87a1.58,1.58,0,0,0,1-.32,2.17,2.17,0,0,0,.66-1,6.68,6.68,0,0,0,0-3.55,2.12,2.12,0,0,0-.66-1,1.58,1.58,0,0,0-1-.32,1.56,1.56,0,0,0-1,.32,2.13,2.13,0,0,0-.67,1,6.43,6.43,0,0,0,0,3.55,2.19,2.19,0,0,0,.67,1A1.56,1.56,0,0,0,361.85,412.94Z" transform="translate(-108.25 -176.87)"/><path class="cls-6" d="M372.43,414.64v-8.79l1,1h-2.88V405h4.15v9.61Z" transform="translate(-108.25 -176.87)"/><path class="cls-6" d="M380.32,414.81a5.72,5.72,0,0,1-2.13-.36,3.17,3.17,0,0,1-1.4-1,2.53,2.53,0,0,1-.51-1.58,2.34,2.34,0,0,1,.49-1.51,3.12,3.12,0,0,1,1.41-.95,7.1,7.1,0,0,1,4.28,0,3.16,3.16,0,0,1,1.41,1,2.36,2.36,0,0,1,.5,1.5,2.59,2.59,0,0,1-.5,1.58,3.24,3.24,0,0,1-1.42,1A5.8,5.8,0,0,1,380.32,414.81Zm0-4.62a5.75,5.75,0,0,1-1.95-.3,2.85,2.85,0,0,1-1.29-.89,2.19,2.19,0,0,1-.46-1.41,2.35,2.35,0,0,1,.47-1.45,3,3,0,0,1,1.3-.94,5.68,5.68,0,0,1,3.87,0,3,3,0,0,1,1.3.94,2.35,2.35,0,0,1,.47,1.45,2.25,2.25,0,0,1-.46,1.41,2.74,2.74,0,0,1-1.29.89A5.81,5.81,0,0,1,380.32,410.19Zm0,3a2.09,2.09,0,0,0,1.32-.37,1.21,1.21,0,0,0,.49-1,1.18,1.18,0,0,0-.49-1,2.16,2.16,0,0,0-1.32-.37,2.2,2.2,0,0,0-1.32.37,1.19,1.19,0,0,0-.48,1,1.23,1.23,0,0,0,.48,1A2.13,2.13,0,0,0,380.32,413.17Zm0-4.28a1.75,1.75,0,0,0,1.1-.32,1.14,1.14,0,0,0,0-1.76,1.78,1.78,0,0,0-1.09-.31,1.75,1.75,0,0,0-1.08.31,1.07,1.07,0,0,0-.41.89,1,1,0,0,0,.4.87A1.72,1.72,0,0,0,380.32,408.89Z" transform="translate(-108.25 -176.87)"/><path class="cls-6" d="M385.32,414.64V413.2l3.71-3.5a4.36,4.36,0,0,0,.65-.71,2,2,0,0,0,.28-.58,1.82,1.82,0,0,0,.07-.5,1.08,1.08,0,0,0-.39-.88,1.77,1.77,0,0,0-1.15-.32,2.64,2.64,0,0,0-1.13.25,2.4,2.4,0,0,0-.86.73l-1.61-1a3.72,3.72,0,0,1,1.53-1.31,5.13,5.13,0,0,1,2.28-.48,4.78,4.78,0,0,1,1.88.34,2.86,2.86,0,0,1,1.26,1,2.61,2.61,0,0,1,.44,1.51,3.25,3.25,0,0,1-.13.92,3.36,3.36,0,0,1-.47,1,7,7,0,0,1-1,1.14l-3.08,2.89-.42-.8h5.44v1.81Z" transform="translate(-108.25 -176.87)"/><path class="cls-6" d="M397.63,414.81a3.87,3.87,0,0,1-2.11-.59,4,4,0,0,1-1.47-1.69,6.9,6.9,0,0,1,0-5.4,4.06,4.06,0,0,1,1.47-1.69,4.15,4.15,0,0,1,4.23,0,4.06,4.06,0,0,1,1.47,1.69,7,7,0,0,1,0,5.4,4,4,0,0,1-1.47,1.69A3.91,3.91,0,0,1,397.63,414.81Zm0-1.87a1.6,1.6,0,0,0,1-.32,2.17,2.17,0,0,0,.66-1,6.68,6.68,0,0,0,0-3.55,2.12,2.12,0,0,0-.66-1,1.65,1.65,0,0,0-1.95,0,2.21,2.21,0,0,0-.67,1,6.43,6.43,0,0,0,0,3.55,2.26,2.26,0,0,0,.67,1A1.61,1.61,0,0,0,397.63,412.94Z" transform="translate(-108.25 -176.87)"/><path class="cls-6" d="M410,414.81a7.39,7.39,0,0,1-2-.27,5.17,5.17,0,0,1-1.69-.78l.88-1.69a4.39,4.39,0,0,0,1.26.64,4.64,4.64,0,0,0,1.48.24,2.3,2.3,0,0,0,1.32-.33,1.07,1.07,0,0,0,.49-.93,1.1,1.1,0,0,0-.2-.66,1.28,1.28,0,0,0-.69-.43,4.42,4.42,0,0,0-1.36-.16h-2.45l.48-5.41h5.88v1.78h-5.08l1.15-1-.35,3.87-1.14-1h2a5.62,5.62,0,0,1,2.29.39,2.65,2.65,0,0,1,1.27,1.06,2.94,2.94,0,0,1,.41,1.53,3,3,0,0,1-.43,1.57,3,3,0,0,1-1.31,1.17A5.11,5.11,0,0,1,410,414.81Z" transform="translate(-108.25 -176.87)"/><path class="cls-6" d="M414.79,412.62v-1.5l4.53-6.09h2.34l-4.43,6.09-1.1-.31h7.57v1.81Zm5.18,2v-2l.06-1.81V409h2.11v5.63Z" transform="translate(-108.25 -176.87)"/><path class="cls-6" d="M427.69,404.86a4.66,4.66,0,0,1,2.3.54,3.57,3.57,0,0,1,1.48,1.61,6.71,6.71,0,0,1-.11,5.43,4.23,4.23,0,0,1-1.72,1.76,5.16,5.16,0,0,1-2.56.61,6.26,6.26,0,0,1-1.45-.17,4.31,4.31,0,0,1-1.21-.49l.81-1.64a2.29,2.29,0,0,0,.86.38,4.19,4.19,0,0,0,1,.1,2.59,2.59,0,0,0,2-.76,3.09,3.09,0,0,0,.74-2.23c0-.17,0-.35,0-.55s0-.4-.06-.61l.6.58a2.51,2.51,0,0,1-.66.9,2.81,2.81,0,0,1-1,.55,3.83,3.83,0,0,1-1.26.19,3.79,3.79,0,0,1-1.67-.37,3.06,3.06,0,0,1-1.2-1.05,2.84,2.84,0,0,1-.44-1.58,3,3,0,0,1,.48-1.7,3.26,3.26,0,0,1,1.32-1.11A4.3,4.3,0,0,1,427.69,404.86Zm.13,1.66a2,2,0,0,0-.84.17,1.3,1.3,0,0,0-.56.5,1.5,1.5,0,0,0,.24,1.81,1.76,1.76,0,0,0,1.19.39,1.86,1.86,0,0,0,.87-.19,1.49,1.49,0,0,0,.57-.51,1.37,1.37,0,0,0,.21-.75,1.34,1.34,0,0,0-.19-.72,1.29,1.29,0,0,0-.57-.51A2,2,0,0,0,427.82,406.52Z" transform="translate(-108.25 -176.87)"/><path class="cls-7" d="M343.06,414.81a3.87,3.87,0,0,1-2.11-.59,4,4,0,0,1-1.47-1.69,6.9,6.9,0,0,1,0-5.4,4.06,4.06,0,0,1,1.47-1.69,4.15,4.15,0,0,1,4.23,0,4.06,4.06,0,0,1,1.47,1.69,7,7,0,0,1,0,5.4,4,4,0,0,1-1.47,1.69A3.91,3.91,0,0,1,343.06,414.81Zm0-1.87a1.6,1.6,0,0,0,1-.32,2.17,2.17,0,0,0,.66-1,6.68,6.68,0,0,0,0-3.55,2.12,2.12,0,0,0-.66-1,1.65,1.65,0,0,0-2,0,2.21,2.21,0,0,0-.67,1,6.43,6.43,0,0,0,0,3.55,2.26,2.26,0,0,0,.67,1A1.61,1.61,0,0,0,343.06,412.94Z" transform="translate(-108.25 -176.87)"/><path class="cls-7" d="M348.15,412.62v-1.5l4.54-6.09H355l-4.42,6.09-1.1-.31h7.57v1.81Zm5.18,2v-2l.07-1.81V409h2.1v5.63Z" transform="translate(-108.25 -176.87)"/><path class="cls-7" d="M361.85,414.81a3.87,3.87,0,0,1-2.11-.59,4,4,0,0,1-1.47-1.69,7,7,0,0,1,0-5.4,4.06,4.06,0,0,1,1.47-1.69,4.15,4.15,0,0,1,4.23,0,4.06,4.06,0,0,1,1.47,1.69,6.9,6.9,0,0,1,0,5.4,4,4,0,0,1-1.47,1.69A3.86,3.86,0,0,1,361.85,414.81Zm0-1.87a1.58,1.58,0,0,0,1-.32,2.17,2.17,0,0,0,.66-1,6.68,6.68,0,0,0,0-3.55,2.12,2.12,0,0,0-.66-1,1.58,1.58,0,0,0-1-.32,1.56,1.56,0,0,0-1,.32,2.13,2.13,0,0,0-.67,1,6.43,6.43,0,0,0,0,3.55,2.19,2.19,0,0,0,.67,1A1.56,1.56,0,0,0,361.85,412.94Z" transform="translate(-108.25 -176.87)"/><path class="cls-7" d="M372.43,414.64v-8.79l1,1h-2.88V405h4.15v9.61Z" transform="translate(-108.25 -176.87)"/><path class="cls-7" d="M380.32,414.81a5.72,5.72,0,0,1-2.13-.36,3.17,3.17,0,0,1-1.4-1,2.53,2.53,0,0,1-.51-1.58,2.34,2.34,0,0,1,.49-1.51,3.12,3.12,0,0,1,1.41-.95,7.1,7.1,0,0,1,4.28,0,3.16,3.16,0,0,1,1.41,1,2.36,2.36,0,0,1,.5,1.5,2.59,2.59,0,0,1-.5,1.58,3.24,3.24,0,0,1-1.42,1A5.8,5.8,0,0,1,380.32,414.81Zm0-4.62a5.75,5.75,0,0,1-1.95-.3,2.85,2.85,0,0,1-1.29-.89,2.19,2.19,0,0,1-.46-1.41,2.35,2.35,0,0,1,.47-1.45,3,3,0,0,1,1.3-.94,5.68,5.68,0,0,1,3.87,0,3,3,0,0,1,1.3.94,2.35,2.35,0,0,1,.47,1.45,2.25,2.25,0,0,1-.46,1.41,2.74,2.74,0,0,1-1.29.89A5.81,5.81,0,0,1,380.32,410.19Zm0,3a2.09,2.09,0,0,0,1.32-.37,1.21,1.21,0,0,0,.49-1,1.18,1.18,0,0,0-.49-1,2.16,2.16,0,0,0-1.32-.37,2.2,2.2,0,0,0-1.32.37,1.19,1.19,0,0,0-.48,1,1.23,1.23,0,0,0,.48,1A2.13,2.13,0,0,0,380.32,413.17Zm0-4.28a1.75,1.75,0,0,0,1.1-.32,1.14,1.14,0,0,0,0-1.76,1.78,1.78,0,0,0-1.09-.31,1.75,1.75,0,0,0-1.08.31,1.07,1.07,0,0,0-.41.89,1,1,0,0,0,.4.87A1.72,1.72,0,0,0,380.32,408.89Z" transform="translate(-108.25 -176.87)"/><path class="cls-7" d="M385.32,414.64V413.2l3.71-3.5a4.36,4.36,0,0,0,.65-.71,2,2,0,0,0,.28-.58,1.82,1.82,0,0,0,.07-.5,1.08,1.08,0,0,0-.39-.88,1.77,1.77,0,0,0-1.15-.32,2.64,2.64,0,0,0-1.13.25,2.4,2.4,0,0,0-.86.73l-1.61-1a3.72,3.72,0,0,1,1.53-1.31,5.13,5.13,0,0,1,2.28-.48,4.78,4.78,0,0,1,1.88.34,2.86,2.86,0,0,1,1.26,1,2.61,2.61,0,0,1,.44,1.51,3.25,3.25,0,0,1-.13.92,3.36,3.36,0,0,1-.47,1,7,7,0,0,1-1,1.14l-3.08,2.89-.42-.8h5.44v1.81Z" transform="translate(-108.25 -176.87)"/><path class="cls-7" d="M397.63,414.81a3.87,3.87,0,0,1-2.11-.59,4,4,0,0,1-1.47-1.69,6.9,6.9,0,0,1,0-5.4,4.06,4.06,0,0,1,1.47-1.69,4.15,4.15,0,0,1,4.23,0,4.06,4.06,0,0,1,1.47,1.69,7,7,0,0,1,0,5.4,4,4,0,0,1-1.47,1.69A3.91,3.91,0,0,1,397.63,414.81Zm0-1.87a1.6,1.6,0,0,0,1-.32,2.17,2.17,0,0,0,.66-1,6.68,6.68,0,0,0,0-3.55,2.12,2.12,0,0,0-.66-1,1.65,1.65,0,0,0-1.95,0,2.21,2.21,0,0,0-.67,1,6.43,6.43,0,0,0,0,3.55,2.26,2.26,0,0,0,.67,1A1.61,1.61,0,0,0,397.63,412.94Z" transform="translate(-108.25 -176.87)"/><path class="cls-7" d="M410,414.81a7.39,7.39,0,0,1-2-.27,5.17,5.17,0,0,1-1.69-.78l.88-1.69a4.39,4.39,0,0,0,1.26.64,4.64,4.64,0,0,0,1.48.24,2.3,2.3,0,0,0,1.32-.33,1.07,1.07,0,0,0,.49-.93,1.1,1.1,0,0,0-.2-.66,1.28,1.28,0,0,0-.69-.43,4.42,4.42,0,0,0-1.36-.16h-2.45l.48-5.41h5.88v1.78h-5.08l1.15-1-.35,3.87-1.14-1h2a5.62,5.62,0,0,1,2.29.39,2.65,2.65,0,0,1,1.27,1.06,2.94,2.94,0,0,1,.41,1.53,3,3,0,0,1-.43,1.57,3,3,0,0,1-1.31,1.17A5.11,5.11,0,0,1,410,414.81Z" transform="translate(-108.25 -176.87)"/><path class="cls-7" d="M414.79,412.62v-1.5l4.53-6.09h2.34l-4.43,6.09-1.1-.31h7.57v1.81Zm5.18,2v-2l.06-1.81V409h2.11v5.63Z" transform="translate(-108.25 -176.87)"/><path class="cls-7" d="M427.69,404.86a4.66,4.66,0,0,1,2.3.54,3.57,3.57,0,0,1,1.48,1.61,6.71,6.71,0,0,1-.11,5.43,4.23,4.23,0,0,1-1.72,1.76,5.16,5.16,0,0,1-2.56.61,6.26,6.26,0,0,1-1.45-.17,4.31,4.31,0,0,1-1.21-.49l.81-1.64a2.29,2.29,0,0,0,.86.38,4.19,4.19,0,0,0,1,.1,2.59,2.59,0,0,0,2-.76,3.09,3.09,0,0,0,.74-2.23c0-.17,0-.35,0-.55s0-.4-.06-.61l.6.58a2.51,2.51,0,0,1-.66.9,2.81,2.81,0,0,1-1,.55,3.83,3.83,0,0,1-1.26.19,3.79,3.79,0,0,1-1.67-.37,3.06,3.06,0,0,1-1.2-1.05,2.84,2.84,0,0,1-.44-1.58,3,3,0,0,1,.48-1.7,3.26,3.26,0,0,1,1.32-1.11A4.3,4.3,0,0,1,427.69,404.86Zm.13,1.66a2,2,0,0,0-.84.17,1.3,1.3,0,0,0-.56.5,1.5,1.5,0,0,0,.24,1.81,1.76,1.76,0,0,0,1.19.39,1.86,1.86,0,0,0,.87-.19,1.49,1.49,0,0,0,.57-.51,1.37,1.37,0,0,0,.21-.75,1.34,1.34,0,0,0-.19-.72,1.29,1.29,0,0,0-.57-.51A2,2,0,0,0,427.82,406.52Z" transform="translate(-108.25 -176.87)"/><polygon class="cls-5" points="105.8 175.25 96.66 175.25 96.66 171.36 104.46 171.36 104.46 168.31 96.66 168.31 96.66 164.69 105.49 164.69 105.49 161.56 92.79 161.56 92.79 178.37 105.8 178.37 105.8 175.25"/><polygon class="cls-5" points="112.76 174.1 114.99 171.77 120.39 178.37 124.95 178.37 117.58 169.06 124.52 161.56 120.2 161.56 112.76 169.4 112.76 161.56 108.9 161.56 108.9 178.37 112.76 178.37 112.76 174.1"/><path class="cls-5" d="M249,340.59a9,9,0,0,0-2.92-1.81,10.26,10.26,0,0,0-3.66-.63,10.05,10.05,0,0,0-3.66.64,9.08,9.08,0,0,0-2.92,1.83,8.3,8.3,0,0,0-1.93,2.75,8.65,8.65,0,0,0-.68,3.46,8.75,8.75,0,0,0,.68,3.46,8.24,8.24,0,0,0,1.93,2.76,9,9,0,0,0,2.93,1.82,10,10,0,0,0,3.67.65,10.19,10.19,0,0,0,3.64-.63,8.89,8.89,0,0,0,2.92-1.82A8.18,8.18,0,0,0,251,350.3a9.22,9.22,0,0,0,0-6.95A8.45,8.45,0,0,0,249,340.59ZM247.3,349a5.24,5.24,0,0,1-1.12,1.7,5.1,5.1,0,0,1-1.66,1.13,5.77,5.77,0,0,1-4.17,0,5,5,0,0,1-1.67-1.13,5.35,5.35,0,0,1-1.1-1.7,6.11,6.11,0,0,1,0-4.35,5.24,5.24,0,0,1,1.1-1.7,4.89,4.89,0,0,1,1.67-1.13,5.63,5.63,0,0,1,4.17,0,5,5,0,0,1,1.66,1.13,5.13,5.13,0,0,1,1.12,1.7,6.11,6.11,0,0,1,0,4.35Z" transform="translate(-108.25 -176.87)"/><path class="cls-5" d="M258.47,350.6h3.36a9.41,9.41,0,0,0,3.89-.74,6,6,0,0,0,2.52-8.59,5.57,5.57,0,0,0-2.52-2.1,9.41,9.41,0,0,0-3.89-.74h-7.27v16.8h3.91Zm5.83-8.24a2.63,2.63,0,0,1,.92,2.15,2.69,2.69,0,0,1-.92,2.16,4.06,4.06,0,0,1-2.68.76h-3.15V341.6h3.15A4.06,4.06,0,0,1,264.3,342.36Z" transform="translate(-108.25 -176.87)"/><path class="cls-5" d="M276.3,338.43l-7.46,16.8h4l1.5-3.6h7.78l1.5,3.6h4.08l-7.54-16.8Zm-.75,10.25,2.66-6.4,2.67,6.4Z" transform="translate(-108.25 -176.87)"/><polygon class="cls-5" points="193.47 175.2 185.1 175.2 185.1 161.56 181.19 161.56 181.19 178.37 193.47 178.37 193.47 175.2"/><polygon class="cls-5" points="240.44 175.2 232.06 175.2 232.06 161.56 228.15 161.56 228.15 178.37 240.44 178.37 240.44 175.2"/><path class="cls-5" d="M358.14,355.52a7.56,7.56,0,0,0,5.57-2,7.69,7.69,0,0,0,2-5.71v-9.39h-3.82v9.29a5,5,0,0,1-1,3.45,4.1,4.1,0,0,1-5.5,0,5,5,0,0,1-1-3.45v-9.29h-3.92v9.39a7.69,7.69,0,0,0,2,5.71A7.6,7.6,0,0,0,358.14,355.52Z" transform="translate(-108.25 -176.87)"/><polygon class="cls-5" points="264.54 178.37 268.42 178.37 268.42 164.73 273.8 164.73 273.8 161.56 259.16 161.56 259.16 164.73 264.54 164.73 264.54 178.37"/><path class="cls-5" d="M392.49,353.05a8.89,8.89,0,0,0,2.93,1.82,9.9,9.9,0,0,0,3.67.65,10.18,10.18,0,0,0,3.63-.63,8.78,8.78,0,0,0,2.92-1.82,8.18,8.18,0,0,0,1.93-2.77,9.1,9.1,0,0,0,0-6.95,8.45,8.45,0,0,0-1.93-2.76,8.92,8.92,0,0,0-2.92-1.81,10.26,10.26,0,0,0-3.66-.63,10.05,10.05,0,0,0-3.66.64,8.93,8.93,0,0,0-2.91,1.83,8.19,8.19,0,0,0-1.94,2.75,8.65,8.65,0,0,0-.68,3.46,8.75,8.75,0,0,0,.68,3.46A8.13,8.13,0,0,0,392.49,353.05Zm1.71-8.39a5.27,5.27,0,0,1,1.11-1.7,4.76,4.76,0,0,1,1.66-1.13,5.52,5.52,0,0,1,2.09-.4,5.43,5.43,0,0,1,2.08.4,5,5,0,0,1,1.67,1.13,5.11,5.11,0,0,1,1.11,1.7,6.11,6.11,0,0,1,0,4.35,5.21,5.21,0,0,1-1.11,1.7,5.14,5.14,0,0,1-1.67,1.13,5.43,5.43,0,0,1-2.08.39,5.51,5.51,0,0,1-2.09-.39,4.9,4.9,0,0,1-1.66-1.13,5.38,5.38,0,0,1-1.11-1.7,6.26,6.26,0,0,1,0-4.35Z" transform="translate(-108.25 -176.87)"/><polygon class="cls-5" points="306.39 178.37 310.3 178.37 310.3 172.37 316.78 161.56 312.99 161.56 308.5 169 304.02 161.56 299.86 161.56 306.39 172.38 306.39 178.37"/><path class="cls-5" d="M181.83,385.8a.81.81,0,0,0-.62.24,7.91,7.91,0,0,1,.37,1.83,2.37,2.37,0,0,1-.62,1.8,2.57,2.57,0,0,1-2.05.81,40.78,40.78,0,0,1-10.61-2,47,47,0,0,0,7.41-11.34q1.29-2.7,2.08-4.2a31.41,31.41,0,0,0,10-1.89,19,19,0,0,0,7.27-4.56,8.91,8.91,0,0,0,2.69-6.21,6.61,6.61,0,0,0-2.53-5.37,9.15,9.15,0,0,0-6-2.07,11.52,11.52,0,0,0-4.72.9,11,11,0,0,0-3.87,3.12,28.92,28.92,0,0,0-3.34,5q-1.49,2.79-3.56,7.47a11.74,11.74,0,0,1-5.9-2.82,6.34,6.34,0,0,1-2.24-4.74,2.94,2.94,0,0,1,.67-1.95,2.28,2.28,0,0,1,1.85-.81,3.82,3.82,0,0,1,2.22.72,6.37,6.37,0,0,1,1.35,1.14,7.72,7.72,0,0,1,.47.72h.17a.6.6,0,0,0,.37-.18.7.7,0,0,0,.19-.54q0-1.68-2.1-3.87a7,7,0,0,0-5.31-2.19,5.91,5.91,0,0,0-4.32,1.65,6.56,6.56,0,0,0-1.68,4.89,9.33,9.33,0,0,0,3.62,7.29,18.29,18.29,0,0,0,9.18,4,.72.72,0,0,1-.09.24.9.9,0,0,0-.08.24,52,52,0,0,1-8.37,13.92q-6.9-2.1-9.93-2.1a6.13,6.13,0,0,0-4.41,1.53,5.22,5.22,0,0,0-1.6,3.93,4.14,4.14,0,0,0,1.91,3.63,8.13,8.13,0,0,0,4.66,1.29,16.77,16.77,0,0,0,9.65-3.12q4,1.8,5.65,2.52a46,46,0,0,0,4.54,1.62,16.54,16.54,0,0,0,4.63.9,4.94,4.94,0,0,0,4-1.74A6.78,6.78,0,0,0,184.3,391a8.11,8.11,0,0,0-.79-3.45Q182.73,385.8,181.83,385.8Zm3.2-25.5q2.19-2.7,4.38-2.7a2.42,2.42,0,0,1,1.88.78,2.88,2.88,0,0,1,.7,2q0,3-3.62,5.76a18,18,0,0,1-8.84,3.42A55.51,55.51,0,0,1,185,360.3Zm-30.65,32.1a4.56,4.56,0,0,1-2.22-.48,1.5,1.5,0,0,1-.87-1.38c0-1.24.79-1.86,2.36-1.86a19.5,19.5,0,0,1,6.34,1.74A9.87,9.87,0,0,1,154.38,392.4Z" transform="translate(-108.25 -176.87)"/><path class="cls-5" d="M244.92,366.12a2.93,2.93,0,0,0-2,.9,4.56,4.56,0,0,0-1.35,2.19,2.93,2.93,0,0,0,.11,2.22,1.57,1.57,0,0,0,1.49.93,2.91,2.91,0,0,0,2-.93,4.83,4.83,0,0,0,1.35-2.22,2.94,2.94,0,0,0-.11-2.19A1.58,1.58,0,0,0,244.92,366.12Z" transform="translate(-108.25 -176.87)"/><path class="cls-5" d="M241.3,384.78q-1.83,2-3.06,2c-.49,0-.73-.34-.73-1a10.37,10.37,0,0,1,1.6-4.08q1.6-2.88,2.55-4.26c.64-.92,1.18-1.68,1.63-2.28v-.6h-4.77q-1.64,3.24-3.45,6.24l-.82,1.36a27,27,0,0,1-2.18,2.6c-1.32,1.36-2.53,2-3.65,2a.75.75,0,0,1-.59-.3,1.08,1.08,0,0,1-.26-.72q0-2.34,8.71-15.6h2.13l1.12-1.8v-.3h-1.91c.79-1.16,1.44-2.12,2-2.88v-.6h-5.28q-.84,1.74-1.74,3.48h-2.25l-1.12,1.8v.3h2.3q-2,3.6-4.6,7.8c-1,1.57-1.81,2.91-2.48,4a29.29,29.29,0,0,1-2.15,2.74c-1.21,1.36-2.22,2-3,2-.53,0-.79-.34-.79-1q0-1.32,2.14-4.8t2.13-4.44c0-1.68-1-2.52-2.92-2.52a9,9,0,0,0-5.5,2.1q4.54-7.62,8.7-13.86v-.6H217.7q-4.06,8.11-10.89,19.81a32.07,32.07,0,0,1-2.56,3.29q-1.81,2-3.06,2c-.48,0-.73-.34-.73-1a10.54,10.54,0,0,1,1.6-4.08q1.6-2.88,2.56-4.26c.63-.92,1.18-1.68,1.63-2.28v-.6h-4.78c-.18.36-.37.74-.56,1.14a3.31,3.31,0,0,0-3.2-1.68,8.66,8.66,0,0,0-5.55,2.22,16.25,16.25,0,0,0-4.24,5.28,12.66,12.66,0,0,0-1.55,5.64,5,5,0,0,0,.85,2.94,2.61,2.61,0,0,0,2.24,1.2q2.74,0,5.45-3.3a3.63,3.63,0,0,0,.84,2.43,2.47,2.47,0,0,0,1.91.87,7.22,7.22,0,0,0,4.45-1.91L201,391.32h5q2.13-4.32,5.33-10a17.5,17.5,0,0,1,3.34-3.63,5.06,5.06,0,0,1,2.72-1.35c.37,0,.56.16.56.48a6.82,6.82,0,0,1-1.26,2.43,47.81,47.81,0,0,0-2.53,4.29,9.32,9.32,0,0,0-1.26,4.2,3.89,3.89,0,0,0,.79,2.61,2.45,2.45,0,0,0,2,.93,7.54,7.54,0,0,0,4.77-2.16,15.2,15.2,0,0,0,1.59-1.61c0,.08,0,.16,0,.23a3.67,3.67,0,0,0,.87,2.61,2.91,2.91,0,0,0,2.22.93,8.36,8.36,0,0,0,5.16-2.16,14.94,14.94,0,0,0,1.7-1.63c0,.08,0,.16,0,.25a3.85,3.85,0,0,0,.81,2.61,2.55,2.55,0,0,0,2,.93,7.54,7.54,0,0,0,4.77-2.16,32.25,32.25,0,0,0,5.84-7.68l-.5-1.44A35.56,35.56,0,0,1,241.3,384.78Zm-42.46-7a1,1,0,0,1-.9.6,1,1,0,0,0,.9,1c-.34.6-1,1.66-1.91,3.18-2,2.92-3.58,4.38-4.66,4.38q-.9,0-.9-1.38,0-2.46,2.47-6t4.27-3.57a.83.83,0,0,1,.87.6A1.46,1.46,0,0,1,198.84,377.82Z" transform="translate(-108.25 -176.87)"/><path class="cls-5" d="M275.12,383.76q1.17-1.62,2.13-3.27t1.71-3.12l1.35-2.61.93-1.8a3.24,3.24,0,0,0-2.28-.69,2.21,2.21,0,0,0-1.26.81c-.15.24-.37.63-.65,1.17s-.61,1.18-1,1.92l-1.29,2.43c-.47.88-1,1.76-1.54,2.64a44.91,44.91,0,0,1-2.39-3.93,36.55,36.55,0,0,1-1.93-4.17,16.39,16.39,0,0,0,2.69-1.47,12.5,12.5,0,0,0,2.25-1.92,8.53,8.53,0,0,0,1.51-2.34,6.82,6.82,0,0,0,.56-2.79,5.53,5.53,0,0,0-.39-2.1,5.33,5.33,0,0,0-1-1.65,4.36,4.36,0,0,0-1.48-1.05,4.46,4.46,0,0,0-1.75-.36,5.67,5.67,0,0,0-2.77.72,8,8,0,0,0-2.36,2,10.28,10.28,0,0,0-1.69,3,11.22,11.22,0,0,0-.64,3.87,13.34,13.34,0,0,0,.34,3,5.13,5.13,0,0,0,.28,1.2,18.54,18.54,0,0,0-6.37,5.16,10.48,10.48,0,0,0-2.33,6.48,6.35,6.35,0,0,0,2,5.07,7.68,7.68,0,0,0,5.2,1.77,9.45,9.45,0,0,0,4.57-1.17,17.41,17.41,0,0,0,4-3,15.11,15.11,0,0,0,3.48,3,7.07,7.07,0,0,0,3.76,1.14,3.06,3.06,0,0,0,2.24-1,13.16,13.16,0,0,0,1.57-1.86,7.32,7.32,0,0,1-3.7-1.47A19.24,19.24,0,0,1,275.12,383.76Zm-6.6-20c.54-1.18,1.25-1.77,2.11-1.77q.84,0,1.2,1a4.85,4.85,0,0,1,.12,2.49,9.51,9.51,0,0,1-1.15,3,7.2,7.2,0,0,1-2.59,2.58.85.85,0,0,1,0-.3,10.63,10.63,0,0,1-.45-2.94A9.79,9.79,0,0,1,268.52,363.75Zm-1.15,23.79a4.42,4.42,0,0,1-2.52.84,3.35,3.35,0,0,1-3-1.53,7,7,0,0,1-1-4,8.48,8.48,0,0,1,1.12-4.14,9.24,9.24,0,0,1,3-3.3,35.46,35.46,0,0,0,2,5.19,34,34,0,0,0,2.81,4.77A14.91,14.91,0,0,1,267.37,387.54Z" transform="translate(-108.25 -176.87)"/><path class="cls-5" d="M330.69,396.18l-.17.18a1.57,1.57,0,0,1-.73.45,3.71,3.71,0,0,1-1.29.21,2.59,2.59,0,0,1-2.13-1.08,4.82,4.82,0,0,1-.85-3.06,36.07,36.07,0,0,1,.9-6.66,36.39,36.39,0,0,0,.9-5.94,5.55,5.55,0,0,0-1.4-4.2,11.55,11.55,0,0,0,7.83-3.39,11.24,11.24,0,0,0,2.89-8.07,10.33,10.33,0,0,0-4.21-8.43,13.83,13.83,0,0,0-1.4-1h2.27v-3.12h-9.14v-3.88H332v-3.05h-7.8v-3.63H333v-3.12H320.3v14.49a22.36,22.36,0,0,0-6.65,1.35c-.68.25-1.33.53-2,.83l7.21-16.67H315l-5.19,12-5.11-12h-4.22l7.27,16.8h3.63a19.17,19.17,0,0,0-4.14,2.64,17.94,17.94,0,0,0-4.1,4.89,10.84,10.84,0,0,0-1.51,5.34,6.88,6.88,0,0,0,1.77,5,5.83,5.83,0,0,0,4.35,1.8,7.44,7.44,0,0,0,3.36-.78,8.45,8.45,0,0,0,2.59-1.92,14,14,0,0,0,1.74-2.46,14.18,14.18,0,0,0,1.06-2.34,5.3,5.3,0,0,0,.34-1.56c0-.56-.24-.82-.73-.78a4.85,4.85,0,0,1-1.77,2.25,5.33,5.33,0,0,1-3.51,1.29,2.3,2.3,0,0,1-1.91-.78,3.1,3.1,0,0,1-.61-2c0-2.28,1.32-4.56,4-6.84a13.87,13.87,0,0,1,9.32-3.42,11.68,11.68,0,0,1,7.69,2.37,7.73,7.73,0,0,1,2.86,6.27,9.2,9.2,0,0,1-2.72,6.9,8.33,8.33,0,0,1-5.86,2.64,8.81,8.81,0,0,1-2.14-.24,102.87,102.87,0,0,1,7-11.28v-.6h-5.28l-.56,1.32c-.41.84-1.21,2.34-2.38,4.5s-2.54,4.52-4.07,7.08a60.09,60.09,0,0,1-6.82,9.9c-1.74,1.84-3.48,2.76-5.2,2.76a3,3,0,0,1-2.19-.84,3.08,3.08,0,0,1-.84-2.28,3.24,3.24,0,0,1,.4-1.62,2.87,2.87,0,0,1,.64-.9l.42-.3-.05-.12a.33.33,0,0,0-.15-.24.62.62,0,0,0-.42-.12,5.6,5.6,0,0,0-4.57,2.19,7.92,7.92,0,0,0-1.77,5.13,6.23,6.23,0,0,0,1.6,4.35,6.16,6.16,0,0,0,4.8,1.77,10.15,10.15,0,0,0,4.43-1,14.13,14.13,0,0,0,4.1-3.12,37.81,37.81,0,0,0,3.82-4.77q1.8-2.64,4.21-6.78a.92.92,0,0,0,1.51.3,1.7,1.7,0,0,1,0-1.77,1.61,1.61,0,0,1,1.41-.75,1.51,1.51,0,0,1,1.26.63,3.34,3.34,0,0,1,.48,2,15.29,15.29,0,0,1-1,4.86q-1,2.82-1.94,5.85a18.63,18.63,0,0,0-.95,5.61,6.11,6.11,0,0,0,1.48,4.56,5.23,5.23,0,0,0,3.79,1.44,6.88,6.88,0,0,0,4.49-1.56c1.27-1,1.91-2,1.91-3Q331.08,396.24,330.69,396.18Z" transform="translate(-108.25 -176.87)"/><path class="cls-5" d="M448.22,380a30.82,30.82,0,0,1-3.45,4.74q-1.81,2-3,2c-.53,0-.79-.34-.79-1q0-1.32,2.14-4.8t2.13-4.44c0-1.68-1-2.52-2.92-2.52a8.94,8.94,0,0,0-5.28,1.92,8.18,8.18,0,0,0,.51-.78v-.6h-4.72c-1.19,2.39-2.45,4.77-3.75,7.13a23.08,23.08,0,0,1-3.52,3.55,9.39,9.39,0,0,1-5.92,2.46c-1.64,0-2.47-.9-2.47-2.7a8.08,8.08,0,0,1,.12-1.32,7.85,7.85,0,0,0,1.4.12,9.43,9.43,0,0,0,6.12-1.95,5.71,5.71,0,0,0,2.41-4.53,3.11,3.11,0,0,0-1-2.31,3.92,3.92,0,0,0-2.83-1,8.72,8.72,0,0,0-5.25,1.89,14,14,0,0,0-4.07,4.74,13.61,13.61,0,0,0-1.05,2.55c-.42.55-.84,1.07-1.28,1.56-1.21,1.36-2.22,2-3,2-.53,0-.79-.34-.79-1q0-1.32,2.14-4.8t2.13-4.44c0-1.68-1-2.52-2.92-2.52A8.94,8.94,0,0,0,404,376a8.18,8.18,0,0,0,.51-.78v-.6h-4.72c-1.27,2.54-2.61,5.06-4,7.56a30.43,30.43,0,0,1-2.1,2.64q-1.81,2-3.06,2c-.48,0-.73-.34-.73-1a10.54,10.54,0,0,1,1.6-4.08q1.61-2.88,2.56-4.26c.63-.92,1.18-1.68,1.63-2.28v-.6h-4.78c-.18.36-.37.74-.56,1.14a3.31,3.31,0,0,0-3.2-1.68,8.66,8.66,0,0,0-5.55,2.22,16.25,16.25,0,0,0-4.24,5.28,17.25,17.25,0,0,0-.74,1.68c-.44.55-.9,1.07-1.37,1.56-1.31,1.36-2.52,2-3.64,2a.75.75,0,0,1-.59-.3,1.08,1.08,0,0,1-.26-.72q0-2.34,8.7-15.6h2.14l1.12-1.8v-.3h-1.91c.79-1.16,1.44-2.12,2-2.88v-.6H377.5q-.84,1.74-1.74,3.48h-2.25l-1.12,1.8v.3h2.3q-2,3.6-4.6,7.8c-1,1.56-1.8,2.9-2.48,4a29.46,29.46,0,0,1-2.15,2.75q-1.83,2-3,2c-.53,0-.79-.34-.79-1q0-1.32,2.13-4.8t2.14-4.44c0-1.68-1-2.52-2.92-2.52a8.94,8.94,0,0,0-5.28,1.92c.23-.32.39-.58.51-.78v-.6h-4.72c-1.27,2.54-2.61,5.06-4,7.57a30.19,30.19,0,0,1-2.09,2.63q-1.81,2-3.06,2c-.48,0-.73-.34-.73-1a10.54,10.54,0,0,1,1.6-4.08q1.61-2.88,2.56-4.26c.63-.92,1.18-1.68,1.63-2.28v-.6h-4.78c-.18.36-.37.74-.56,1.14a3.31,3.31,0,0,0-3.2-1.68,8.64,8.64,0,0,0-5.55,2.22,16.25,16.25,0,0,0-4.24,5.28,12.66,12.66,0,0,0-1.55,5.64,4.93,4.93,0,0,0,.85,2.94,2.61,2.61,0,0,0,2.24,1.2q2.75,0,5.45-3.3a3.63,3.63,0,0,0,.84,2.43,2.47,2.47,0,0,0,1.91.87,7.31,7.31,0,0,0,4.47-1.92l-1.16,1.92h5q2.25-4.62,5.34-10a17.23,17.23,0,0,1,3.34-3.63,5,5,0,0,1,2.72-1.35c.37,0,.56.16.56.48a6.82,6.82,0,0,1-1.26,2.43,45.55,45.55,0,0,0-2.53,4.29,9.32,9.32,0,0,0-1.26,4.2,4,4,0,0,0,.78,2.61,2.48,2.48,0,0,0,2,.93,7.56,7.56,0,0,0,4.77-2.16,16.22,16.22,0,0,0,1.59-1.61c0,.07,0,.16,0,.23a3.67,3.67,0,0,0,.87,2.61,2.91,2.91,0,0,0,2.22.93,8.38,8.38,0,0,0,5.16-2.16,16.69,16.69,0,0,0,2.45-2.5c0,.17,0,.35,0,.52a5,5,0,0,0,.84,2.94,2.61,2.61,0,0,0,2.24,1.2c1.84,0,3.65-1.1,5.45-3.3a3.63,3.63,0,0,0,.84,2.43,2.47,2.47,0,0,0,1.91.87,7.29,7.29,0,0,0,4.47-1.92c-.38.64-.76,1.28-1.16,1.92h5q2.23-4.62,5.33-10a17.5,17.5,0,0,1,3.34-3.63,5.06,5.06,0,0,1,2.72-1.35c.37,0,.56.16.56.48a6.82,6.82,0,0,1-1.26,2.43,47.81,47.81,0,0,0-2.53,4.29,9.32,9.32,0,0,0-1.26,4.2,3.89,3.89,0,0,0,.79,2.61,2.45,2.45,0,0,0,2,.93,7.54,7.54,0,0,0,4.77-2.16,19.24,19.24,0,0,0,2.69-3h0q0,5.52,5.51,5.52a10.69,10.69,0,0,0,7-3c-.51.85-1,1.71-1.55,2.56h5q2.23-4.62,5.33-10a17.5,17.5,0,0,1,3.34-3.63,5.06,5.06,0,0,1,2.72-1.35c.37,0,.56.16.56.48a6.82,6.82,0,0,1-1.26,2.43q-1.26,1.89-2.53,4.29a9.32,9.32,0,0,0-1.26,4.2,3.89,3.89,0,0,0,.79,2.61,2.45,2.45,0,0,0,2,.93,7.54,7.54,0,0,0,4.77-2.16,33.23,33.23,0,0,0,5.9-7.68Zm-27.61-2.25a4.44,4.44,0,0,1,2.92-1.65c.45,0,.67.24.67.72a4.9,4.9,0,0,1-1.71,3.09,5.08,5.08,0,0,1-3.68,1.77,6.38,6.38,0,0,1-.84-.06A13.14,13.14,0,0,1,420.61,377.79Zm-78.58,0a1,1,0,0,1-.9.6,1,1,0,0,0,.9,1c-.34.6-1,1.66-1.91,3.18-2,2.92-3.58,4.38-4.66,4.38q-.9,0-.9-1.38,0-2.46,2.47-6T341.3,376a.84.84,0,0,1,.87.6A1.46,1.46,0,0,1,342,377.82Zm46.25,0a1,1,0,0,1-.9.6,1,1,0,0,0,.9,1c-.34.6-1,1.66-1.91,3.18-2,2.92-3.58,4.38-4.66,4.38q-.9,0-.9-1.38,0-2.46,2.47-6t4.27-3.57a.83.83,0,0,1,.87.6A1.46,1.46,0,0,1,388.28,377.82Z" transform="translate(-108.25 -176.87)"/><polygon class="cls-8" points="105.8 175.25 96.66 175.25 96.66 171.36 104.46 171.36 104.46 168.31 96.66 168.31 96.66 164.69 105.49 164.69 105.49 161.56 92.79 161.56 92.79 178.37 105.8 178.37 105.8 175.25"/><polygon class="cls-8" points="112.76 174.1 114.99 171.77 120.39 178.37 124.95 178.37 117.58 169.06 124.52 161.56 120.2 161.56 112.76 169.4 112.76 161.56 108.9 161.56 108.9 178.37 112.76 178.37 112.76 174.1"/><path class="cls-8" d="M249,340.59a9,9,0,0,0-2.92-1.81,10.26,10.26,0,0,0-3.66-.63,10.05,10.05,0,0,0-3.66.64,9.08,9.08,0,0,0-2.92,1.83,8.3,8.3,0,0,0-1.93,2.75,8.65,8.65,0,0,0-.68,3.46,8.75,8.75,0,0,0,.68,3.46,8.24,8.24,0,0,0,1.93,2.76,9,9,0,0,0,2.93,1.82,10,10,0,0,0,3.67.65,10.19,10.19,0,0,0,3.64-.63,8.89,8.89,0,0,0,2.92-1.82A8.18,8.18,0,0,0,251,350.3a9.22,9.22,0,0,0,0-6.95A8.45,8.45,0,0,0,249,340.59ZM247.3,349a5.24,5.24,0,0,1-1.12,1.7,5.1,5.1,0,0,1-1.66,1.13,5.77,5.77,0,0,1-4.17,0,5,5,0,0,1-1.67-1.13,5.35,5.35,0,0,1-1.1-1.7,6.11,6.11,0,0,1,0-4.35,5.24,5.24,0,0,1,1.1-1.7,4.89,4.89,0,0,1,1.67-1.13,5.63,5.63,0,0,1,4.17,0,5,5,0,0,1,1.66,1.13,5.13,5.13,0,0,1,1.12,1.7,6.11,6.11,0,0,1,0,4.35Z" transform="translate(-108.25 -176.87)"/><path class="cls-8" d="M258.47,350.6h3.36a9.41,9.41,0,0,0,3.89-.74,6,6,0,0,0,2.52-8.59,5.57,5.57,0,0,0-2.52-2.1,9.41,9.41,0,0,0-3.89-.74h-7.27v16.8h3.91Zm5.83-8.24a2.63,2.63,0,0,1,.92,2.15,2.69,2.69,0,0,1-.92,2.16,4.06,4.06,0,0,1-2.68.76h-3.15V341.6h3.15A4.06,4.06,0,0,1,264.3,342.36Z" transform="translate(-108.25 -176.87)"/><path class="cls-8" d="M276.3,338.43l-7.46,16.8h4l1.5-3.6h7.78l1.5,3.6h4.08l-7.54-16.8Zm-.75,10.25,2.66-6.4,2.67,6.4Z" transform="translate(-108.25 -176.87)"/><polygon class="cls-8" points="193.47 175.2 185.1 175.2 185.1 161.56 181.19 161.56 181.19 178.37 193.47 178.37 193.47 175.2"/><polygon class="cls-8" points="240.44 175.2 232.06 175.2 232.06 161.56 228.15 161.56 228.15 178.37 240.44 178.37 240.44 175.2"/><path class="cls-8" d="M358.14,355.52a7.56,7.56,0,0,0,5.57-2,7.69,7.69,0,0,0,2-5.71v-9.39h-3.82v9.29a5,5,0,0,1-1,3.45,4.1,4.1,0,0,1-5.5,0,5,5,0,0,1-1-3.45v-9.29h-3.92v9.39a7.69,7.69,0,0,0,2,5.71A7.6,7.6,0,0,0,358.14,355.52Z" transform="translate(-108.25 -176.87)"/><polygon class="cls-8" points="264.54 178.37 268.42 178.37 268.42 164.73 273.8 164.73 273.8 161.56 259.16 161.56 259.16 164.73 264.54 164.73 264.54 178.37"/><path class="cls-8" d="M392.49,353.05a8.89,8.89,0,0,0,2.93,1.82,9.9,9.9,0,0,0,3.67.65,10.18,10.18,0,0,0,3.63-.63,8.78,8.78,0,0,0,2.92-1.82,8.18,8.18,0,0,0,1.93-2.77,9.1,9.1,0,0,0,0-6.95,8.45,8.45,0,0,0-1.93-2.76,8.92,8.92,0,0,0-2.92-1.81,10.26,10.26,0,0,0-3.66-.63,10.05,10.05,0,0,0-3.66.64,8.93,8.93,0,0,0-2.91,1.83,8.19,8.19,0,0,0-1.94,2.75,8.65,8.65,0,0,0-.68,3.46,8.75,8.75,0,0,0,.68,3.46A8.13,8.13,0,0,0,392.49,353.05Zm1.71-8.39a5.27,5.27,0,0,1,1.11-1.7,4.76,4.76,0,0,1,1.66-1.13,5.52,5.52,0,0,1,2.09-.4,5.43,5.43,0,0,1,2.08.4,5,5,0,0,1,1.67,1.13,5.11,5.11,0,0,1,1.11,1.7,6.11,6.11,0,0,1,0,4.35,5.21,5.21,0,0,1-1.11,1.7,5.14,5.14,0,0,1-1.67,1.13,5.43,5.43,0,0,1-2.08.39,5.51,5.51,0,0,1-2.09-.39,4.9,4.9,0,0,1-1.66-1.13,5.38,5.38,0,0,1-1.11-1.7,6.26,6.26,0,0,1,0-4.35Z" transform="translate(-108.25 -176.87)"/><polygon class="cls-8" points="306.39 178.37 310.3 178.37 310.3 172.37 316.78 161.56 312.99 161.56 308.5 169 304.02 161.56 299.86 161.56 306.39 172.38 306.39 178.37"/><path class="cls-8" d="M181.83,385.8a.81.81,0,0,0-.62.24,7.91,7.91,0,0,1,.37,1.83,2.37,2.37,0,0,1-.62,1.8,2.57,2.57,0,0,1-2.05.81,40.78,40.78,0,0,1-10.61-2,47,47,0,0,0,7.41-11.34q1.29-2.7,2.08-4.2a31.41,31.41,0,0,0,10-1.89,19,19,0,0,0,7.27-4.56,8.91,8.91,0,0,0,2.69-6.21,6.61,6.61,0,0,0-2.53-5.37,9.15,9.15,0,0,0-6-2.07,11.52,11.52,0,0,0-4.72.9,11,11,0,0,0-3.87,3.12,28.92,28.92,0,0,0-3.34,5q-1.49,2.79-3.56,7.47a11.74,11.74,0,0,1-5.9-2.82,6.34,6.34,0,0,1-2.24-4.74,2.94,2.94,0,0,1,.67-1.95,2.28,2.28,0,0,1,1.85-.81,3.82,3.82,0,0,1,2.22.72,6.37,6.37,0,0,1,1.35,1.14,7.72,7.72,0,0,1,.47.72h.17a.6.6,0,0,0,.37-.18.7.7,0,0,0,.19-.54q0-1.68-2.1-3.87a7,7,0,0,0-5.31-2.19,5.91,5.91,0,0,0-4.32,1.65,6.56,6.56,0,0,0-1.68,4.89,9.33,9.33,0,0,0,3.62,7.29,18.29,18.29,0,0,0,9.18,4,.72.72,0,0,1-.09.24.9.9,0,0,0-.08.24,52,52,0,0,1-8.37,13.92q-6.9-2.1-9.93-2.1a6.13,6.13,0,0,0-4.41,1.53,5.22,5.22,0,0,0-1.6,3.93,4.14,4.14,0,0,0,1.91,3.63,8.13,8.13,0,0,0,4.66,1.29,16.77,16.77,0,0,0,9.65-3.12q4,1.8,5.65,2.52a46,46,0,0,0,4.54,1.62,16.54,16.54,0,0,0,4.63.9,4.94,4.94,0,0,0,4-1.74A6.78,6.78,0,0,0,184.3,391a8.11,8.11,0,0,0-.79-3.45Q182.73,385.8,181.83,385.8Zm3.2-25.5q2.19-2.7,4.38-2.7a2.42,2.42,0,0,1,1.88.78,2.88,2.88,0,0,1,.7,2q0,3-3.62,5.76a18,18,0,0,1-8.84,3.42A55.51,55.51,0,0,1,185,360.3Zm-30.65,32.1a4.56,4.56,0,0,1-2.22-.48,1.5,1.5,0,0,1-.87-1.38c0-1.24.79-1.86,2.36-1.86a19.5,19.5,0,0,1,6.34,1.74A9.87,9.87,0,0,1,154.38,392.4Z" transform="translate(-108.25 -176.87)"/><path class="cls-8" d="M244.92,366.12a2.93,2.93,0,0,0-2,.9,4.56,4.56,0,0,0-1.35,2.19,2.93,2.93,0,0,0,.11,2.22,1.57,1.57,0,0,0,1.49.93,2.91,2.91,0,0,0,2-.93,4.83,4.83,0,0,0,1.35-2.22,2.94,2.94,0,0,0-.11-2.19A1.58,1.58,0,0,0,244.92,366.12Z" transform="translate(-108.25 -176.87)"/><path class="cls-8" d="M241.3,384.78q-1.83,2-3.06,2c-.49,0-.73-.34-.73-1a10.37,10.37,0,0,1,1.6-4.08q1.6-2.88,2.55-4.26c.64-.92,1.18-1.68,1.63-2.28v-.6h-4.77q-1.64,3.24-3.45,6.24l-.82,1.36a27,27,0,0,1-2.18,2.6c-1.32,1.36-2.53,2-3.65,2a.75.75,0,0,1-.59-.3,1.08,1.08,0,0,1-.26-.72q0-2.34,8.71-15.6h2.13l1.12-1.8v-.3h-1.91c.79-1.16,1.44-2.12,2-2.88v-.6h-5.28q-.84,1.74-1.74,3.48h-2.25l-1.12,1.8v.3h2.3q-2,3.6-4.6,7.8c-1,1.57-1.81,2.91-2.48,4a29.29,29.29,0,0,1-2.15,2.74c-1.21,1.36-2.22,2-3,2-.53,0-.79-.34-.79-1q0-1.32,2.14-4.8t2.13-4.44c0-1.68-1-2.52-2.92-2.52a9,9,0,0,0-5.5,2.1q4.54-7.62,8.7-13.86v-.6H217.7q-4.06,8.11-10.89,19.81a32.07,32.07,0,0,1-2.56,3.29q-1.81,2-3.06,2c-.48,0-.73-.34-.73-1a10.54,10.54,0,0,1,1.6-4.08q1.6-2.88,2.56-4.26c.63-.92,1.18-1.68,1.63-2.28v-.6h-4.78c-.18.36-.37.74-.56,1.14a3.31,3.31,0,0,0-3.2-1.68,8.66,8.66,0,0,0-5.55,2.22,16.25,16.25,0,0,0-4.24,5.28,12.66,12.66,0,0,0-1.55,5.64,5,5,0,0,0,.85,2.94,2.61,2.61,0,0,0,2.24,1.2q2.74,0,5.45-3.3a3.63,3.63,0,0,0,.84,2.43,2.47,2.47,0,0,0,1.91.87,7.22,7.22,0,0,0,4.45-1.91L201,391.32h5q2.13-4.32,5.33-10a17.5,17.5,0,0,1,3.34-3.63,5.06,5.06,0,0,1,2.72-1.35c.37,0,.56.16.56.48a6.82,6.82,0,0,1-1.26,2.43,47.81,47.81,0,0,0-2.53,4.29,9.32,9.32,0,0,0-1.26,4.2,3.89,3.89,0,0,0,.79,2.61,2.45,2.45,0,0,0,2,.93,7.54,7.54,0,0,0,4.77-2.16,15.2,15.2,0,0,0,1.59-1.61c0,.08,0,.16,0,.23a3.67,3.67,0,0,0,.87,2.61,2.91,2.91,0,0,0,2.22.93,8.36,8.36,0,0,0,5.16-2.16,14.94,14.94,0,0,0,1.7-1.63c0,.08,0,.16,0,.25a3.85,3.85,0,0,0,.81,2.61,2.55,2.55,0,0,0,2,.93,7.54,7.54,0,0,0,4.77-2.16,32.25,32.25,0,0,0,5.84-7.68l-.5-1.44A35.56,35.56,0,0,1,241.3,384.78Zm-42.46-7a1,1,0,0,1-.9.6,1,1,0,0,0,.9,1c-.34.6-1,1.66-1.91,3.18-2,2.92-3.58,4.38-4.66,4.38q-.9,0-.9-1.38,0-2.46,2.47-6t4.27-3.57a.83.83,0,0,1,.87.6A1.46,1.46,0,0,1,198.84,377.82Z" transform="translate(-108.25 -176.87)"/><path class="cls-8" d="M275.12,383.76q1.17-1.62,2.13-3.27t1.71-3.12l1.35-2.61.93-1.8a3.24,3.24,0,0,0-2.28-.69,2.21,2.21,0,0,0-1.26.81c-.15.24-.37.63-.65,1.17s-.61,1.18-1,1.92l-1.29,2.43c-.47.88-1,1.76-1.54,2.64a44.91,44.91,0,0,1-2.39-3.93,36.55,36.55,0,0,1-1.93-4.17,16.39,16.39,0,0,0,2.69-1.47,12.5,12.5,0,0,0,2.25-1.92,8.53,8.53,0,0,0,1.51-2.34,6.82,6.82,0,0,0,.56-2.79,5.53,5.53,0,0,0-.39-2.1,5.33,5.33,0,0,0-1-1.65,4.36,4.36,0,0,0-1.48-1.05,4.46,4.46,0,0,0-1.75-.36,5.67,5.67,0,0,0-2.77.72,8,8,0,0,0-2.36,2,10.28,10.28,0,0,0-1.69,3,11.22,11.22,0,0,0-.64,3.87,13.34,13.34,0,0,0,.34,3,5.13,5.13,0,0,0,.28,1.2,18.54,18.54,0,0,0-6.37,5.16,10.48,10.48,0,0,0-2.33,6.48,6.35,6.35,0,0,0,2,5.07,7.68,7.68,0,0,0,5.2,1.77,9.45,9.45,0,0,0,4.57-1.17,17.41,17.41,0,0,0,4-3,15.11,15.11,0,0,0,3.48,3,7.07,7.07,0,0,0,3.76,1.14,3.06,3.06,0,0,0,2.24-1,13.16,13.16,0,0,0,1.57-1.86,7.32,7.32,0,0,1-3.7-1.47A19.24,19.24,0,0,1,275.12,383.76Zm-6.6-20c.54-1.18,1.25-1.77,2.11-1.77q.84,0,1.2,1a4.85,4.85,0,0,1,.12,2.49,9.51,9.51,0,0,1-1.15,3,7.2,7.2,0,0,1-2.59,2.58.85.85,0,0,1,0-.3,10.63,10.63,0,0,1-.45-2.94A9.79,9.79,0,0,1,268.52,363.75Zm-1.15,23.79a4.42,4.42,0,0,1-2.52.84,3.35,3.35,0,0,1-3-1.53,7,7,0,0,1-1-4,8.48,8.48,0,0,1,1.12-4.14,9.24,9.24,0,0,1,3-3.3,35.46,35.46,0,0,0,2,5.19,34,34,0,0,0,2.81,4.77A14.91,14.91,0,0,1,267.37,387.54Z" transform="translate(-108.25 -176.87)"/><path class="cls-8" d="M330.69,396.18l-.17.18a1.57,1.57,0,0,1-.73.45,3.71,3.71,0,0,1-1.29.21,2.59,2.59,0,0,1-2.13-1.08,4.82,4.82,0,0,1-.85-3.06,36.07,36.07,0,0,1,.9-6.66,36.39,36.39,0,0,0,.9-5.94,5.55,5.55,0,0,0-1.4-4.2,11.55,11.55,0,0,0,7.83-3.39,11.24,11.24,0,0,0,2.89-8.07,10.33,10.33,0,0,0-4.21-8.43,13.83,13.83,0,0,0-1.4-1h2.27v-3.12h-9.14v-3.88H332v-3.05h-7.8v-3.63H333v-3.12H320.3v14.49a22.36,22.36,0,0,0-6.65,1.35c-.68.25-1.33.53-2,.83l7.21-16.67H315l-5.19,12-5.11-12h-4.22l7.27,16.8h3.63a19.17,19.17,0,0,0-4.14,2.64,17.94,17.94,0,0,0-4.1,4.89,10.84,10.84,0,0,0-1.51,5.34,6.88,6.88,0,0,0,1.77,5,5.83,5.83,0,0,0,4.35,1.8,7.44,7.44,0,0,0,3.36-.78,8.45,8.45,0,0,0,2.59-1.92,14,14,0,0,0,1.74-2.46,14.18,14.18,0,0,0,1.06-2.34,5.3,5.3,0,0,0,.34-1.56c0-.56-.24-.82-.73-.78a4.85,4.85,0,0,1-1.77,2.25,5.33,5.33,0,0,1-3.51,1.29,2.3,2.3,0,0,1-1.91-.78,3.1,3.1,0,0,1-.61-2c0-2.28,1.32-4.56,4-6.84a13.87,13.87,0,0,1,9.32-3.42,11.68,11.68,0,0,1,7.69,2.37,7.73,7.73,0,0,1,2.86,6.27,9.2,9.2,0,0,1-2.72,6.9,8.33,8.33,0,0,1-5.86,2.64,8.81,8.81,0,0,1-2.14-.24,102.87,102.87,0,0,1,7-11.28v-.6h-5.28l-.56,1.32c-.41.84-1.21,2.34-2.38,4.5s-2.54,4.52-4.07,7.08a60.09,60.09,0,0,1-6.82,9.9c-1.74,1.84-3.48,2.76-5.2,2.76a3,3,0,0,1-2.19-.84,3.08,3.08,0,0,1-.84-2.28,3.24,3.24,0,0,1,.4-1.62,2.87,2.87,0,0,1,.64-.9l.42-.3-.05-.12a.33.33,0,0,0-.15-.24.62.62,0,0,0-.42-.12,5.6,5.6,0,0,0-4.57,2.19,7.92,7.92,0,0,0-1.77,5.13,6.23,6.23,0,0,0,1.6,4.35,6.16,6.16,0,0,0,4.8,1.77,10.15,10.15,0,0,0,4.43-1,14.13,14.13,0,0,0,4.1-3.12,37.81,37.81,0,0,0,3.82-4.77q1.8-2.64,4.21-6.78a.92.92,0,0,0,1.51.3,1.7,1.7,0,0,1,0-1.77,1.61,1.61,0,0,1,1.41-.75,1.51,1.51,0,0,1,1.26.63,3.34,3.34,0,0,1,.48,2,15.29,15.29,0,0,1-1,4.86q-1,2.82-1.94,5.85a18.63,18.63,0,0,0-.95,5.61,6.11,6.11,0,0,0,1.48,4.56,5.23,5.23,0,0,0,3.79,1.44,6.88,6.88,0,0,0,4.49-1.56c1.27-1,1.91-2,1.91-3Q331.08,396.24,330.69,396.18Z" transform="translate(-108.25 -176.87)"/><path class="cls-8" d="M448.22,380a30.82,30.82,0,0,1-3.45,4.74q-1.81,2-3,2c-.53,0-.79-.34-.79-1q0-1.32,2.14-4.8t2.13-4.44c0-1.68-1-2.52-2.92-2.52a8.94,8.94,0,0,0-5.28,1.92,8.18,8.18,0,0,0,.51-.78v-.6h-4.72c-1.19,2.39-2.45,4.77-3.75,7.13a23.08,23.08,0,0,1-3.52,3.55,9.39,9.39,0,0,1-5.92,2.46c-1.64,0-2.47-.9-2.47-2.7a8.08,8.08,0,0,1,.12-1.32,7.85,7.85,0,0,0,1.4.12,9.43,9.43,0,0,0,6.12-1.95,5.71,5.71,0,0,0,2.41-4.53,3.11,3.11,0,0,0-1-2.31,3.92,3.92,0,0,0-2.83-1,8.72,8.72,0,0,0-5.25,1.89,14,14,0,0,0-4.07,4.74,13.61,13.61,0,0,0-1.05,2.55c-.42.55-.84,1.07-1.28,1.56-1.21,1.36-2.22,2-3,2-.53,0-.79-.34-.79-1q0-1.32,2.14-4.8t2.13-4.44c0-1.68-1-2.52-2.92-2.52A8.94,8.94,0,0,0,404,376a8.18,8.18,0,0,0,.51-.78v-.6h-4.72c-1.27,2.54-2.61,5.06-4,7.56a30.43,30.43,0,0,1-2.1,2.64q-1.81,2-3.06,2c-.48,0-.73-.34-.73-1a10.54,10.54,0,0,1,1.6-4.08q1.61-2.88,2.56-4.26c.63-.92,1.18-1.68,1.63-2.28v-.6h-4.78c-.18.36-.37.74-.56,1.14a3.31,3.31,0,0,0-3.2-1.68,8.66,8.66,0,0,0-5.55,2.22,16.25,16.25,0,0,0-4.24,5.28,17.25,17.25,0,0,0-.74,1.68c-.44.55-.9,1.07-1.37,1.56-1.31,1.36-2.52,2-3.64,2a.75.75,0,0,1-.59-.3,1.08,1.08,0,0,1-.26-.72q0-2.34,8.7-15.6h2.14l1.12-1.8v-.3h-1.91c.79-1.16,1.44-2.12,2-2.88v-.6H377.5q-.84,1.74-1.74,3.48h-2.25l-1.12,1.8v.3h2.3q-2,3.6-4.6,7.8c-1,1.56-1.8,2.9-2.48,4a29.46,29.46,0,0,1-2.15,2.75q-1.83,2-3,2c-.53,0-.79-.34-.79-1q0-1.32,2.13-4.8t2.14-4.44c0-1.68-1-2.52-2.92-2.52a8.94,8.94,0,0,0-5.28,1.92c.23-.32.39-.58.51-.78v-.6h-4.72c-1.27,2.54-2.61,5.06-4,7.57a30.19,30.19,0,0,1-2.09,2.63q-1.81,2-3.06,2c-.48,0-.73-.34-.73-1a10.54,10.54,0,0,1,1.6-4.08q1.61-2.88,2.56-4.26c.63-.92,1.18-1.68,1.63-2.28v-.6h-4.78c-.18.36-.37.74-.56,1.14a3.31,3.31,0,0,0-3.2-1.68,8.64,8.64,0,0,0-5.55,2.22,16.25,16.25,0,0,0-4.24,5.28,12.66,12.66,0,0,0-1.55,5.64,4.93,4.93,0,0,0,.85,2.94,2.61,2.61,0,0,0,2.24,1.2q2.75,0,5.45-3.3a3.63,3.63,0,0,0,.84,2.43,2.47,2.47,0,0,0,1.91.87,7.31,7.31,0,0,0,4.47-1.92l-1.16,1.92h5q2.25-4.62,5.34-10a17.23,17.23,0,0,1,3.34-3.63,5,5,0,0,1,2.72-1.35c.37,0,.56.16.56.48a6.82,6.82,0,0,1-1.26,2.43,45.55,45.55,0,0,0-2.53,4.29,9.32,9.32,0,0,0-1.26,4.2,4,4,0,0,0,.78,2.61,2.48,2.48,0,0,0,2,.93,7.56,7.56,0,0,0,4.77-2.16,16.22,16.22,0,0,0,1.59-1.61c0,.07,0,.16,0,.23a3.67,3.67,0,0,0,.87,2.61,2.91,2.91,0,0,0,2.22.93,8.38,8.38,0,0,0,5.16-2.16,16.69,16.69,0,0,0,2.45-2.5c0,.17,0,.35,0,.52a5,5,0,0,0,.84,2.94,2.61,2.61,0,0,0,2.24,1.2c1.84,0,3.65-1.1,5.45-3.3a3.63,3.63,0,0,0,.84,2.43,2.47,2.47,0,0,0,1.91.87,7.29,7.29,0,0,0,4.47-1.92c-.38.64-.76,1.28-1.16,1.92h5q2.23-4.62,5.33-10a17.5,17.5,0,0,1,3.34-3.63,5.06,5.06,0,0,1,2.72-1.35c.37,0,.56.16.56.48a6.82,6.82,0,0,1-1.26,2.43,47.81,47.81,0,0,0-2.53,4.29,9.32,9.32,0,0,0-1.26,4.2,3.89,3.89,0,0,0,.79,2.61,2.45,2.45,0,0,0,2,.93,7.54,7.54,0,0,0,4.77-2.16,19.24,19.24,0,0,0,2.69-3h0q0,5.52,5.51,5.52a10.69,10.69,0,0,0,7-3c-.51.85-1,1.71-1.55,2.56h5q2.23-4.62,5.33-10a17.5,17.5,0,0,1,3.34-3.63,5.06,5.06,0,0,1,2.72-1.35c.37,0,.56.16.56.48a6.82,6.82,0,0,1-1.26,2.43q-1.26,1.89-2.53,4.29a9.32,9.32,0,0,0-1.26,4.2,3.89,3.89,0,0,0,.79,2.61,2.45,2.45,0,0,0,2,.93,7.54,7.54,0,0,0,4.77-2.16,33.23,33.23,0,0,0,5.9-7.68Zm-27.61-2.25a4.44,4.44,0,0,1,2.92-1.65c.45,0,.67.24.67.72a4.9,4.9,0,0,1-1.71,3.09,5.08,5.08,0,0,1-3.68,1.77,6.38,6.38,0,0,1-.84-.06A13.14,13.14,0,0,1,420.61,377.79Zm-78.58,0a1,1,0,0,1-.9.6,1,1,0,0,0,.9,1c-.34.6-1,1.66-1.91,3.18-2,2.92-3.58,4.38-4.66,4.38q-.9,0-.9-1.38,0-2.46,2.47-6T341.3,376a.84.84,0,0,1,.87.6A1.46,1.46,0,0,1,342,377.82Zm46.25,0a1,1,0,0,1-.9.6,1,1,0,0,0,.9,1c-.34.6-1,1.66-1.91,3.18-2,2.92-3.58,4.38-4.66,4.38q-.9,0-.9-1.38,0-2.46,2.47-6t4.27-3.57a.83.83,0,0,1,.87.6A1.46,1.46,0,0,1,388.28,377.82Z" transform="translate(-108.25 -176.87)"/><polygon class="cls-7" points="105.8 175.25 96.66 175.25 96.66 171.36 104.46 171.36 104.46 168.31 96.66 168.31 96.66 164.69 105.49 164.69 105.49 161.56 92.79 161.56 92.79 178.37 105.8 178.37 105.8 175.25"/><polygon class="cls-7" points="112.76 174.1 114.99 171.77 120.39 178.37 124.95 178.37 117.58 169.06 124.52 161.56 120.2 161.56 112.76 169.4 112.76 161.56 108.9 161.56 108.9 178.37 112.76 178.37 112.76 174.1"/><path class="cls-7" d="M249,340.59a9,9,0,0,0-2.92-1.81,10.26,10.26,0,0,0-3.66-.63,10.05,10.05,0,0,0-3.66.64,9.08,9.08,0,0,0-2.92,1.83,8.3,8.3,0,0,0-1.93,2.75,8.65,8.65,0,0,0-.68,3.46,8.75,8.75,0,0,0,.68,3.46,8.24,8.24,0,0,0,1.93,2.76,9,9,0,0,0,2.93,1.82,10,10,0,0,0,3.67.65,10.19,10.19,0,0,0,3.64-.63,8.89,8.89,0,0,0,2.92-1.82A8.18,8.18,0,0,0,251,350.3a9.22,9.22,0,0,0,0-6.95A8.45,8.45,0,0,0,249,340.59ZM247.3,349a5.24,5.24,0,0,1-1.12,1.7,5.1,5.1,0,0,1-1.66,1.13,5.77,5.77,0,0,1-4.17,0,5,5,0,0,1-1.67-1.13,5.35,5.35,0,0,1-1.1-1.7,6.11,6.11,0,0,1,0-4.35,5.24,5.24,0,0,1,1.1-1.7,4.89,4.89,0,0,1,1.67-1.13,5.63,5.63,0,0,1,4.17,0,5,5,0,0,1,1.66,1.13,5.13,5.13,0,0,1,1.12,1.7,6.11,6.11,0,0,1,0,4.35Z" transform="translate(-108.25 -176.87)"/><path class="cls-7" d="M258.47,350.6h3.36a9.41,9.41,0,0,0,3.89-.74,6,6,0,0,0,2.52-8.59,5.57,5.57,0,0,0-2.52-2.1,9.41,9.41,0,0,0-3.89-.74h-7.27v16.8h3.91Zm5.83-8.24a2.63,2.63,0,0,1,.92,2.15,2.69,2.69,0,0,1-.92,2.16,4.06,4.06,0,0,1-2.68.76h-3.15V341.6h3.15A4.06,4.06,0,0,1,264.3,342.36Z" transform="translate(-108.25 -176.87)"/><path class="cls-7" d="M276.3,338.43l-7.46,16.8h4l1.5-3.6h7.78l1.5,3.6h4.08l-7.54-16.8Zm-.75,10.25,2.66-6.4,2.67,6.4Z" transform="translate(-108.25 -176.87)"/><polygon class="cls-7" points="193.47 175.2 185.1 175.2 185.1 161.56 181.19 161.56 181.19 178.37 193.47 178.37 193.47 175.2"/><polygon class="cls-7" points="240.44 175.2 232.06 175.2 232.06 161.56 228.15 161.56 228.15 178.37 240.44 178.37 240.44 175.2"/><path class="cls-7" d="M358.14,355.52a7.56,7.56,0,0,0,5.57-2,7.69,7.69,0,0,0,2-5.71v-9.39h-3.82v9.29a5,5,0,0,1-1,3.45,4.1,4.1,0,0,1-5.5,0,5,5,0,0,1-1-3.45v-9.29h-3.92v9.39a7.69,7.69,0,0,0,2,5.71A7.6,7.6,0,0,0,358.14,355.52Z" transform="translate(-108.25 -176.87)"/><polygon class="cls-7" points="264.54 178.37 268.42 178.37 268.42 164.73 273.8 164.73 273.8 161.56 259.16 161.56 259.16 164.73 264.54 164.73 264.54 178.37"/><path class="cls-7" d="M392.49,353.05a8.89,8.89,0,0,0,2.93,1.82,9.9,9.9,0,0,0,3.67.65,10.18,10.18,0,0,0,3.63-.63,8.78,8.78,0,0,0,2.92-1.82,8.18,8.18,0,0,0,1.93-2.77,9.1,9.1,0,0,0,0-6.95,8.45,8.45,0,0,0-1.93-2.76,8.92,8.92,0,0,0-2.92-1.81,10.26,10.26,0,0,0-3.66-.63,10.05,10.05,0,0,0-3.66.64,8.93,8.93,0,0,0-2.91,1.83,8.19,8.19,0,0,0-1.94,2.75,8.65,8.65,0,0,0-.68,3.46,8.75,8.75,0,0,0,.68,3.46A8.13,8.13,0,0,0,392.49,353.05Zm1.71-8.39a5.27,5.27,0,0,1,1.11-1.7,4.76,4.76,0,0,1,1.66-1.13,5.52,5.52,0,0,1,2.09-.4,5.43,5.43,0,0,1,2.08.4,5,5,0,0,1,1.67,1.13,5.11,5.11,0,0,1,1.11,1.7,6.11,6.11,0,0,1,0,4.35,5.21,5.21,0,0,1-1.11,1.7,5.14,5.14,0,0,1-1.67,1.13,5.43,5.43,0,0,1-2.08.39,5.51,5.51,0,0,1-2.09-.39,4.9,4.9,0,0,1-1.66-1.13,5.38,5.38,0,0,1-1.11-1.7,6.26,6.26,0,0,1,0-4.35Z" transform="translate(-108.25 -176.87)"/><polygon class="cls-7" points="306.39 178.37 310.3 178.37 310.3 172.37 316.78 161.56 312.99 161.56 308.5 169 304.02 161.56 299.86 161.56 306.39 172.38 306.39 178.37"/><path class="cls-7" d="M181.83,385.8a.81.81,0,0,0-.62.24,7.91,7.91,0,0,1,.37,1.83,2.37,2.37,0,0,1-.62,1.8,2.57,2.57,0,0,1-2.05.81,40.78,40.78,0,0,1-10.61-2,47,47,0,0,0,7.41-11.34q1.29-2.7,2.08-4.2a31.41,31.41,0,0,0,10-1.89,19,19,0,0,0,7.27-4.56,8.91,8.91,0,0,0,2.69-6.21,6.61,6.61,0,0,0-2.53-5.37,9.15,9.15,0,0,0-6-2.07,11.52,11.52,0,0,0-4.72.9,11,11,0,0,0-3.87,3.12,28.92,28.92,0,0,0-3.34,5q-1.49,2.79-3.56,7.47a11.74,11.74,0,0,1-5.9-2.82,6.34,6.34,0,0,1-2.24-4.74,2.94,2.94,0,0,1,.67-1.95,2.28,2.28,0,0,1,1.85-.81,3.82,3.82,0,0,1,2.22.72,6.37,6.37,0,0,1,1.35,1.14,7.72,7.72,0,0,1,.47.72h.17a.6.6,0,0,0,.37-.18.7.7,0,0,0,.19-.54q0-1.68-2.1-3.87a7,7,0,0,0-5.31-2.19,5.91,5.91,0,0,0-4.32,1.65,6.56,6.56,0,0,0-1.68,4.89,9.33,9.33,0,0,0,3.62,7.29,18.29,18.29,0,0,0,9.18,4,.72.72,0,0,1-.09.24.9.9,0,0,0-.08.24,52,52,0,0,1-8.37,13.92q-6.9-2.1-9.93-2.1a6.13,6.13,0,0,0-4.41,1.53,5.22,5.22,0,0,0-1.6,3.93,4.14,4.14,0,0,0,1.91,3.63,8.13,8.13,0,0,0,4.66,1.29,16.77,16.77,0,0,0,9.65-3.12q4,1.8,5.65,2.52a46,46,0,0,0,4.54,1.62,16.54,16.54,0,0,0,4.63.9,4.94,4.94,0,0,0,4-1.74A6.78,6.78,0,0,0,184.3,391a8.11,8.11,0,0,0-.79-3.45Q182.73,385.8,181.83,385.8Zm3.2-25.5q2.19-2.7,4.38-2.7a2.42,2.42,0,0,1,1.88.78,2.88,2.88,0,0,1,.7,2q0,3-3.62,5.76a18,18,0,0,1-8.84,3.42A55.51,55.51,0,0,1,185,360.3Zm-30.65,32.1a4.56,4.56,0,0,1-2.22-.48,1.5,1.5,0,0,1-.87-1.38c0-1.24.79-1.86,2.36-1.86a19.5,19.5,0,0,1,6.34,1.74A9.87,9.87,0,0,1,154.38,392.4Z" transform="translate(-108.25 -176.87)"/><path class="cls-7" d="M244.92,366.12a2.93,2.93,0,0,0-2,.9,4.56,4.56,0,0,0-1.35,2.19,2.93,2.93,0,0,0,.11,2.22,1.57,1.57,0,0,0,1.49.93,2.91,2.91,0,0,0,2-.93,4.83,4.83,0,0,0,1.35-2.22,2.94,2.94,0,0,0-.11-2.19A1.58,1.58,0,0,0,244.92,366.12Z" transform="translate(-108.25 -176.87)"/><path class="cls-7" d="M241.3,384.78q-1.83,2-3.06,2c-.49,0-.73-.34-.73-1a10.37,10.37,0,0,1,1.6-4.08q1.6-2.88,2.55-4.26c.64-.92,1.18-1.68,1.63-2.28v-.6h-4.77q-1.64,3.24-3.45,6.24l-.82,1.36a27,27,0,0,1-2.18,2.6c-1.32,1.36-2.53,2-3.65,2a.75.75,0,0,1-.59-.3,1.08,1.08,0,0,1-.26-.72q0-2.34,8.71-15.6h2.13l1.12-1.8v-.3h-1.91c.79-1.16,1.44-2.12,2-2.88v-.6h-5.28q-.84,1.74-1.74,3.48h-2.25l-1.12,1.8v.3h2.3q-2,3.6-4.6,7.8c-1,1.57-1.81,2.91-2.48,4a29.29,29.29,0,0,1-2.15,2.74c-1.21,1.36-2.22,2-3,2-.53,0-.79-.34-.79-1q0-1.32,2.14-4.8t2.13-4.44c0-1.68-1-2.52-2.92-2.52a9,9,0,0,0-5.5,2.1q4.54-7.62,8.7-13.86v-.6H217.7q-4.06,8.11-10.89,19.81a32.07,32.07,0,0,1-2.56,3.29q-1.81,2-3.06,2c-.48,0-.73-.34-.73-1a10.54,10.54,0,0,1,1.6-4.08q1.6-2.88,2.56-4.26c.63-.92,1.18-1.68,1.63-2.28v-.6h-4.78c-.18.36-.37.74-.56,1.14a3.31,3.31,0,0,0-3.2-1.68,8.66,8.66,0,0,0-5.55,2.22,16.25,16.25,0,0,0-4.24,5.28,12.66,12.66,0,0,0-1.55,5.64,5,5,0,0,0,.85,2.94,2.61,2.61,0,0,0,2.24,1.2q2.74,0,5.45-3.3a3.63,3.63,0,0,0,.84,2.43,2.47,2.47,0,0,0,1.91.87,7.22,7.22,0,0,0,4.45-1.91L201,391.32h5q2.13-4.32,5.33-10a17.5,17.5,0,0,1,3.34-3.63,5.06,5.06,0,0,1,2.72-1.35c.37,0,.56.16.56.48a6.82,6.82,0,0,1-1.26,2.43,47.81,47.81,0,0,0-2.53,4.29,9.32,9.32,0,0,0-1.26,4.2,3.89,3.89,0,0,0,.79,2.61,2.45,2.45,0,0,0,2,.93,7.54,7.54,0,0,0,4.77-2.16,15.2,15.2,0,0,0,1.59-1.61c0,.08,0,.16,0,.23a3.67,3.67,0,0,0,.87,2.61,2.91,2.91,0,0,0,2.22.93,8.36,8.36,0,0,0,5.16-2.16,14.94,14.94,0,0,0,1.7-1.63c0,.08,0,.16,0,.25a3.85,3.85,0,0,0,.81,2.61,2.55,2.55,0,0,0,2,.93,7.54,7.54,0,0,0,4.77-2.16,32.25,32.25,0,0,0,5.84-7.68l-.5-1.44A35.56,35.56,0,0,1,241.3,384.78Zm-42.46-7a1,1,0,0,1-.9.6,1,1,0,0,0,.9,1c-.34.6-1,1.66-1.91,3.18-2,2.92-3.58,4.38-4.66,4.38q-.9,0-.9-1.38,0-2.46,2.47-6t4.27-3.57a.83.83,0,0,1,.87.6A1.46,1.46,0,0,1,198.84,377.82Z" transform="translate(-108.25 -176.87)"/><path class="cls-7" d="M275.12,383.76q1.17-1.62,2.13-3.27t1.71-3.12l1.35-2.61.93-1.8a3.24,3.24,0,0,0-2.28-.69,2.21,2.21,0,0,0-1.26.81c-.15.24-.37.63-.65,1.17s-.61,1.18-1,1.92l-1.29,2.43c-.47.88-1,1.76-1.54,2.64a44.91,44.91,0,0,1-2.39-3.93,36.55,36.55,0,0,1-1.93-4.17,16.39,16.39,0,0,0,2.69-1.47,12.5,12.5,0,0,0,2.25-1.92,8.53,8.53,0,0,0,1.51-2.34,6.82,6.82,0,0,0,.56-2.79,5.53,5.53,0,0,0-.39-2.1,5.33,5.33,0,0,0-1-1.65,4.36,4.36,0,0,0-1.48-1.05,4.46,4.46,0,0,0-1.75-.36,5.67,5.67,0,0,0-2.77.72,8,8,0,0,0-2.36,2,10.28,10.28,0,0,0-1.69,3,11.22,11.22,0,0,0-.64,3.87,13.34,13.34,0,0,0,.34,3,5.13,5.13,0,0,0,.28,1.2,18.54,18.54,0,0,0-6.37,5.16,10.48,10.48,0,0,0-2.33,6.48,6.35,6.35,0,0,0,2,5.07,7.68,7.68,0,0,0,5.2,1.77,9.45,9.45,0,0,0,4.57-1.17,17.41,17.41,0,0,0,4-3,15.11,15.11,0,0,0,3.48,3,7.07,7.07,0,0,0,3.76,1.14,3.06,3.06,0,0,0,2.24-1,13.16,13.16,0,0,0,1.57-1.86,7.32,7.32,0,0,1-3.7-1.47A19.24,19.24,0,0,1,275.12,383.76Zm-6.6-20c.54-1.18,1.25-1.77,2.11-1.77q.84,0,1.2,1a4.85,4.85,0,0,1,.12,2.49,9.51,9.51,0,0,1-1.15,3,7.2,7.2,0,0,1-2.59,2.58.85.85,0,0,1,0-.3,10.63,10.63,0,0,1-.45-2.94A9.79,9.79,0,0,1,268.52,363.75Zm-1.15,23.79a4.42,4.42,0,0,1-2.52.84,3.35,3.35,0,0,1-3-1.53,7,7,0,0,1-1-4,8.48,8.48,0,0,1,1.12-4.14,9.24,9.24,0,0,1,3-3.3,35.46,35.46,0,0,0,2,5.19,34,34,0,0,0,2.81,4.77A14.91,14.91,0,0,1,267.37,387.54Z" transform="translate(-108.25 -176.87)"/><path class="cls-7" d="M330.69,396.18l-.17.18a1.57,1.57,0,0,1-.73.45,3.71,3.71,0,0,1-1.29.21,2.59,2.59,0,0,1-2.13-1.08,4.82,4.82,0,0,1-.85-3.06,36.07,36.07,0,0,1,.9-6.66,36.39,36.39,0,0,0,.9-5.94,5.55,5.55,0,0,0-1.4-4.2,11.55,11.55,0,0,0,7.83-3.39,11.24,11.24,0,0,0,2.89-8.07,10.33,10.33,0,0,0-4.21-8.43,13.83,13.83,0,0,0-1.4-1h2.27v-3.12h-9.14v-3.88H332v-3.05h-7.8v-3.63H333v-3.12H320.3v14.49a22.36,22.36,0,0,0-6.65,1.35c-.68.25-1.33.53-2,.83l7.21-16.67H315l-5.19,12-5.11-12h-4.22l7.27,16.8h3.63a19.17,19.17,0,0,0-4.14,2.64,17.94,17.94,0,0,0-4.1,4.89,10.84,10.84,0,0,0-1.51,5.34,6.88,6.88,0,0,0,1.77,5,5.83,5.83,0,0,0,4.35,1.8,7.44,7.44,0,0,0,3.36-.78,8.45,8.45,0,0,0,2.59-1.92,14,14,0,0,0,1.74-2.46,14.18,14.18,0,0,0,1.06-2.34,5.3,5.3,0,0,0,.34-1.56c0-.56-.24-.82-.73-.78a4.85,4.85,0,0,1-1.77,2.25,5.33,5.33,0,0,1-3.51,1.29,2.3,2.3,0,0,1-1.91-.78,3.1,3.1,0,0,1-.61-2c0-2.28,1.32-4.56,4-6.84a13.87,13.87,0,0,1,9.32-3.42,11.68,11.68,0,0,1,7.69,2.37,7.73,7.73,0,0,1,2.86,6.27,9.2,9.2,0,0,1-2.72,6.9,8.33,8.33,0,0,1-5.86,2.64,8.81,8.81,0,0,1-2.14-.24,102.87,102.87,0,0,1,7-11.28v-.6h-5.28l-.56,1.32c-.41.84-1.21,2.34-2.38,4.5s-2.54,4.52-4.07,7.08a60.09,60.09,0,0,1-6.82,9.9c-1.74,1.84-3.48,2.76-5.2,2.76a3,3,0,0,1-2.19-.84,3.08,3.08,0,0,1-.84-2.28,3.24,3.24,0,0,1,.4-1.62,2.87,2.87,0,0,1,.64-.9l.42-.3-.05-.12a.33.33,0,0,0-.15-.24.62.62,0,0,0-.42-.12,5.6,5.6,0,0,0-4.57,2.19,7.92,7.92,0,0,0-1.77,5.13,6.23,6.23,0,0,0,1.6,4.35,6.16,6.16,0,0,0,4.8,1.77,10.15,10.15,0,0,0,4.43-1,14.13,14.13,0,0,0,4.1-3.12,37.81,37.81,0,0,0,3.82-4.77q1.8-2.64,4.21-6.78a.92.92,0,0,0,1.51.3,1.7,1.7,0,0,1,0-1.77,1.61,1.61,0,0,1,1.41-.75,1.51,1.51,0,0,1,1.26.63,3.34,3.34,0,0,1,.48,2,15.29,15.29,0,0,1-1,4.86q-1,2.82-1.94,5.85a18.63,18.63,0,0,0-.95,5.61,6.11,6.11,0,0,0,1.48,4.56,5.23,5.23,0,0,0,3.79,1.44,6.88,6.88,0,0,0,4.49-1.56c1.27-1,1.91-2,1.91-3Q331.08,396.24,330.69,396.18Z" transform="translate(-108.25 -176.87)"/><path class="cls-7" d="M448.22,380a30.82,30.82,0,0,1-3.45,4.74q-1.81,2-3,2c-.53,0-.79-.34-.79-1q0-1.32,2.14-4.8t2.13-4.44c0-1.68-1-2.52-2.92-2.52a8.94,8.94,0,0,0-5.28,1.92,8.18,8.18,0,0,0,.51-.78v-.6h-4.72c-1.19,2.39-2.45,4.77-3.75,7.13a23.08,23.08,0,0,1-3.52,3.55,9.39,9.39,0,0,1-5.92,2.46c-1.64,0-2.47-.9-2.47-2.7a8.08,8.08,0,0,1,.12-1.32,7.85,7.85,0,0,0,1.4.12,9.43,9.43,0,0,0,6.12-1.95,5.71,5.71,0,0,0,2.41-4.53,3.11,3.11,0,0,0-1-2.31,3.92,3.92,0,0,0-2.83-1,8.72,8.72,0,0,0-5.25,1.89,14,14,0,0,0-4.07,4.74,13.61,13.61,0,0,0-1.05,2.55c-.42.55-.84,1.07-1.28,1.56-1.21,1.36-2.22,2-3,2-.53,0-.79-.34-.79-1q0-1.32,2.14-4.8t2.13-4.44c0-1.68-1-2.52-2.92-2.52A8.94,8.94,0,0,0,404,376a8.18,8.18,0,0,0,.51-.78v-.6h-4.72c-1.27,2.54-2.61,5.06-4,7.56a30.43,30.43,0,0,1-2.1,2.64q-1.81,2-3.06,2c-.48,0-.73-.34-.73-1a10.54,10.54,0,0,1,1.6-4.08q1.61-2.88,2.56-4.26c.63-.92,1.18-1.68,1.63-2.28v-.6h-4.78c-.18.36-.37.74-.56,1.14a3.31,3.31,0,0,0-3.2-1.68,8.66,8.66,0,0,0-5.55,2.22,16.25,16.25,0,0,0-4.24,5.28,17.25,17.25,0,0,0-.74,1.68c-.44.55-.9,1.07-1.37,1.56-1.31,1.36-2.52,2-3.64,2a.75.75,0,0,1-.59-.3,1.08,1.08,0,0,1-.26-.72q0-2.34,8.7-15.6h2.14l1.12-1.8v-.3h-1.91c.79-1.16,1.44-2.12,2-2.88v-.6H377.5q-.84,1.74-1.74,3.48h-2.25l-1.12,1.8v.3h2.3q-2,3.6-4.6,7.8c-1,1.56-1.8,2.9-2.48,4a29.46,29.46,0,0,1-2.15,2.75q-1.83,2-3,2c-.53,0-.79-.34-.79-1q0-1.32,2.13-4.8t2.14-4.44c0-1.68-1-2.52-2.92-2.52a8.94,8.94,0,0,0-5.28,1.92c.23-.32.39-.58.51-.78v-.6h-4.72c-1.27,2.54-2.61,5.06-4,7.57a30.19,30.19,0,0,1-2.09,2.63q-1.81,2-3.06,2c-.48,0-.73-.34-.73-1a10.54,10.54,0,0,1,1.6-4.08q1.61-2.88,2.56-4.26c.63-.92,1.18-1.68,1.63-2.28v-.6h-4.78c-.18.36-.37.74-.56,1.14a3.31,3.31,0,0,0-3.2-1.68,8.64,8.64,0,0,0-5.55,2.22,16.25,16.25,0,0,0-4.24,5.28,12.66,12.66,0,0,0-1.55,5.64,4.93,4.93,0,0,0,.85,2.94,2.61,2.61,0,0,0,2.24,1.2q2.75,0,5.45-3.3a3.63,3.63,0,0,0,.84,2.43,2.47,2.47,0,0,0,1.91.87,7.31,7.31,0,0,0,4.47-1.92l-1.16,1.92h5q2.25-4.62,5.34-10a17.23,17.23,0,0,1,3.34-3.63,5,5,0,0,1,2.72-1.35c.37,0,.56.16.56.48a6.82,6.82,0,0,1-1.26,2.43,45.55,45.55,0,0,0-2.53,4.29,9.32,9.32,0,0,0-1.26,4.2,4,4,0,0,0,.78,2.61,2.48,2.48,0,0,0,2,.93,7.56,7.56,0,0,0,4.77-2.16,16.22,16.22,0,0,0,1.59-1.61c0,.07,0,.16,0,.23a3.67,3.67,0,0,0,.87,2.61,2.91,2.91,0,0,0,2.22.93,8.38,8.38,0,0,0,5.16-2.16,16.69,16.69,0,0,0,2.45-2.5c0,.17,0,.35,0,.52a5,5,0,0,0,.84,2.94,2.61,2.61,0,0,0,2.24,1.2c1.84,0,3.65-1.1,5.45-3.3a3.63,3.63,0,0,0,.84,2.43,2.47,2.47,0,0,0,1.91.87,7.29,7.29,0,0,0,4.47-1.92c-.38.64-.76,1.28-1.16,1.92h5q2.23-4.62,5.33-10a17.5,17.5,0,0,1,3.34-3.63,5.06,5.06,0,0,1,2.72-1.35c.37,0,.56.16.56.48a6.82,6.82,0,0,1-1.26,2.43,47.81,47.81,0,0,0-2.53,4.29,9.32,9.32,0,0,0-1.26,4.2,3.89,3.89,0,0,0,.79,2.61,2.45,2.45,0,0,0,2,.93,7.54,7.54,0,0,0,4.77-2.16,19.24,19.24,0,0,0,2.69-3h0q0,5.52,5.51,5.52a10.69,10.69,0,0,0,7-3c-.51.85-1,1.71-1.55,2.56h5q2.23-4.62,5.33-10a17.5,17.5,0,0,1,3.34-3.63,5.06,5.06,0,0,1,2.72-1.35c.37,0,.56.16.56.48a6.82,6.82,0,0,1-1.26,2.43q-1.26,1.89-2.53,4.29a9.32,9.32,0,0,0-1.26,4.2,3.89,3.89,0,0,0,.79,2.61,2.45,2.45,0,0,0,2,.93,7.54,7.54,0,0,0,4.77-2.16,33.23,33.23,0,0,0,5.9-7.68Zm-27.61-2.25a4.44,4.44,0,0,1,2.92-1.65c.45,0,.67.24.67.72a4.9,4.9,0,0,1-1.71,3.09,5.08,5.08,0,0,1-3.68,1.77,6.38,6.38,0,0,1-.84-.06A13.14,13.14,0,0,1,420.61,377.79Zm-78.58,0a1,1,0,0,1-.9.6,1,1,0,0,0,.9,1c-.34.6-1,1.66-1.91,3.18-2,2.92-3.58,4.38-4.66,4.38q-.9,0-.9-1.38,0-2.46,2.47-6T341.3,376a.84.84,0,0,1,.87.6A1.46,1.46,0,0,1,342,377.82Zm46.25,0a1,1,0,0,1-.9.6,1,1,0,0,0,.9,1c-.34.6-1,1.66-1.91,3.18-2,2.92-3.58,4.38-4.66,4.38q-.9,0-.9-1.38,0-2.46,2.47-6t4.27-3.57a.83.83,0,0,1,.87.6A1.46,1.46,0,0,1,388.28,377.82Z" transform="translate(-108.25 -176.87)"/><path class="cls-4" d="M123,410.42" transform="translate(-108.25 -176.87)"/><path class="cls-4" d="M325.65,410.42" transform="translate(-108.25 -176.87)"/><path class="cls-2" d="M352.74,235.18c-.35-19.13-15.06-35.62-34-38.62-2.88-.46-13.09-.58-16.31-.88l-102.25.42c-19.76.71-36.53,16.1-38.47,35.71-.75,7.65-.36,15.43-.46,23.15,0,2.64,0,5.28,0,8.26-3.93,0-7.52.09-11.12,0-2.62-.08-3.81.85-3.8,3.64q.12,22.17,0,44.35c0,2.65,1.08,3.59,3.57,3.57,5.34-.06,10.68-.07,16,0,2,0,3.08-.88,3.9-2.65.3-.66.61-1.32.92-2l11.14-22.05L182,288h4.83a3.24,3.24,0,0,0,2.45-1.12l3.17-3.68H151v-.15c0-4.31,0-8.3,0-12.29,0-.84.11-1.68.18-2.63H348.3c0,4.12-.15,8,.06,11.9.13,2.5-.62,3.25-3.18,3.23-12.21-.11-34.08-.07-48.31-.06h-9.14l2.86,3.57a3.26,3.26,0,0,0,2.55,1.23h8.45c14.69,0,35.71,0,47.86,0,2.41,0,3.42-1.14,3.41-3.6C352.79,268,353,251.58,352.74,235.18ZM151,288h25l-11.69,22.12H151Zm193.14-37.81h-176V236.12h176Z" transform="translate(-108.25 -176.87)"/></g></svg>